<svg id="Group_6937" data-name="Group 6937" xmlns="http://www.w3.org/2000/svg" xmlns:xlink="http://www.w3.org/1999/xlink" width="91.567" height="99.906" viewBox="0 0 91.567 99.906">
  <defs>
    <clipPath id="clip-path">
      <rect id="Rectangle_903" data-name="Rectangle 903" width="91.567" height="99.906" fill="none"/>
    </clipPath>
  </defs>
  <g id="Group_6279" data-name="Group 6279" transform="translate(0 0)" clip-path="url(#clip-path)">
    <path id="Path_8712" data-name="Path 8712" d="M78.262,61.2a13.03,13.03,0,0,1-2.41-.223A31.622,31.622,0,0,1,64.078,75.833l1.775,2.174.289.175A34.685,34.685,0,0,0,79.1,61.162C78.815,61.179,78.539,61.2,78.262,61.2Z" transform="translate(0.092 0.088)" fill="#f4efe9"/>
    <path id="Path_8713" data-name="Path 8713" d="M26.534,78.188l.3-.179,1.771-2.174A31.667,31.667,0,0,1,16.766,60.769a13.108,13.108,0,0,1-3.147.425A34.848,34.848,0,0,0,26.534,78.187Z" transform="translate(0.02 0.087)" fill="#f4efe9"/>
    <path id="Path_8714" data-name="Path 8714" d="M46.345,61.968A7.572,7.572,0,1,0,38.773,54.4a7.579,7.579,0,0,0,7.572,7.572" transform="translate(0.056 0.067)" fill="#f4efe9"/>
    <path id="Path_8715" data-name="Path 8715" d="M36.736,68.42l-6.315,7.734-2.427,2.98a.825.825,0,0,1-.21.179l-.867.526-6.845,4.107a1.553,1.553,0,0,0-.754,1.336,1.53,1.53,0,0,0,.369,1,1.568,1.568,0,0,0,1.762.447l9.99-3.909,6.841-8a.811.811,0,0,1,1.424.57L39.058,88.3a.806.806,0,0,1-.539.727L25.175,93.688a.788.788,0,0,1-.592.263c-.061,0-.122,0-.179,0l-1.508.53a3.171,3.171,0,0,0-.386.324,2.889,2.889,0,0,0-.858,2.069,2.934,2.934,0,0,0,2.931,2.931H53.257l.118-.009.382-.03a2.943,2.943,0,0,0,2.458-2.888c0-.1,0-.193-.013-.284a2.927,2.927,0,0,0-2.914-2.647H36.157a.811.811,0,1,1,0-1.621h17.13a4.55,4.55,0,0,1,4.532,4.123c.013.145.017.285.017.426v.013c0,.131-.008.267-.021.4-.005.044-.009.092-.014.136-.013.092-.026.179-.039.267-.009.052-.022.1-.031.153a2.614,2.614,0,0,1-.065.253c-.013.049-.022.092-.04.141a3.318,3.318,0,0,1-.127.359c-.017.044-.039.088-.056.132-.035.074-.07.153-.11.227-.026.053-.057.105-.087.158s-.075.127-.114.188-.066.105-.1.157a.23.23,0,0,0-.03.044l10.863-.867h.066a3.406,3.406,0,0,0,.876-6.7L54.335,89.051a.806.806,0,0,1-.653-.753l-.64-12.906a.811.811,0,0,1,1.424-.57l6.836,8,10,3.909a1.6,1.6,0,0,0,1.762-.447,1.56,1.56,0,0,0-.391-2.336l-7.708-4.632a.762.762,0,0,1-.21-.179L56,68.415a4.08,4.08,0,0,0-3.164-1.5H39.9a4.083,4.083,0,0,0-3.168,1.5Z" transform="translate(0.028 0.096)" fill="#f4efe9"/>
    <path id="Path_8716" data-name="Path 8716" d="M59.271,17.545c-.118.245-.249.491-.395.749a17.566,17.566,0,0,1-1.31,1.911A31.864,31.864,0,0,1,74.719,35.88a12.871,12.871,0,0,1,3.195-.5A34.914,34.914,0,0,0,59.271,17.546Z" transform="translate(0.083 0.025)" fill="#f4efe9"/>
    <path id="Path_8717" data-name="Path 8717" d="M14.757,35.437a12.859,12.859,0,0,1,3.1.7A31.837,31.837,0,0,1,35.09,20.217a14.927,14.927,0,0,1-1.652-2.682,34.932,34.932,0,0,0-18.681,17.9Z" transform="translate(0.021 0.025)" fill="#f4efe9"/>
    <path id="Path_8718" data-name="Path 8718" d="M77.271,59.508A11.364,11.364,0,1,1,88.635,48.144,11.376,11.376,0,0,1,77.271,59.508m0-25.568a14.2,14.2,0,1,0,14.2,14.2,14.221,14.221,0,0,0-14.2-14.2" transform="translate(0.091 0.049)" fill="#f4efe9"/>
    <path id="Path_8719" data-name="Path 8719" d="M78.678,41.032h-2.84v1.421A2.843,2.843,0,0,0,73,45.293v1.42a2.844,2.844,0,0,0,2.841,2.842h2.84v1.419H73v2.841h2.841v1.421h2.84V53.815a2.843,2.843,0,0,0,2.84-2.841V49.555a2.843,2.843,0,0,0-2.84-2.842h-2.84v-1.42h5.68v-2.84h-2.84Z" transform="translate(0.105 0.059)" fill="#d7d4dd"/>
    <path id="Path_8720" data-name="Path 8720" d="M13.751,59.8a11,11,0,1,1,11-11,11.013,11.013,0,0,1-11,11m0-24.752A13.751,13.751,0,1,0,27.5,48.8,13.767,13.767,0,0,0,13.751,35.047" transform="translate(0 0.05)" fill="#f4efe9"/>
    <path id="Path_8721" data-name="Path 8721" d="M7.784,48.006l.451-.439a.185.185,0,0,1,.129-.053h.005a.19.19,0,0,1,.132.06l.5.547a.292.292,0,0,0,.205.088.3.3,0,0,0,.21-.082l.484-.472a.277.277,0,0,0-.009-.408l-.558-.481a.175.175,0,0,1-.008-.26l.451-.439a.5.5,0,0,0,0-.715l-.035-.035a1.971,1.971,0,0,0-1.445-.547,1.929,1.929,0,0,0-1.393.671A1.877,1.877,0,0,0,7.051,48,.527.527,0,0,0,7.784,48.006Z" transform="translate(0.009 0.064)" fill="#b2d3d3"/>
    <path id="Path_8722" data-name="Path 8722" d="M8.923,43.82a1.171,1.171,0,1,0-1.2-1.17,1.188,1.188,0,0,0,1.2,1.17" transform="translate(0.011 0.06)" fill="#b2d3d3"/>
    <path id="Path_8723" data-name="Path 8723" d="M12.389,48.955a1.171,1.171,0,1,0-1.2-1.171,1.188,1.188,0,0,0,1.2,1.171" transform="translate(0.016 0.067)" fill="#b2d3d3"/>
    <path id="Path_8724" data-name="Path 8724" d="M13.815,45.8a1.983,1.983,0,1,0-2.035-1.982A2.012,2.012,0,0,0,13.815,45.8m0-3.125a1.143,1.143,0,1,1-1.173,1.143,1.159,1.159,0,0,1,1.173-1.143" transform="translate(0.017 0.06)" fill="#b2d3d3"/>
    <path id="Path_8725" data-name="Path 8725" d="M13.813,44.6a.787.787,0,1,0-.807-.786.8.8,0,0,0,.807.786" transform="translate(0.019 0.062)" fill="#b2d3d3"/>
    <path id="Path_8726" data-name="Path 8726" d="M17.845,42.946a.179.179,0,0,0,.182-.177V41.657a.182.182,0,0,0-.365,0v1.111a.179.179,0,0,0,.182.177" transform="translate(0.025 0.06)" fill="#b2d3d3"/>
    <path id="Path_8727" data-name="Path 8727" d="M18.991,43.441a.186.186,0,0,0,.129-.052l.806-.786a.175.175,0,0,0,0-.251.185.185,0,0,0-.258,0l-.806.785a.174.174,0,0,0,0,.252A.186.186,0,0,0,18.991,43.441Z" transform="translate(0.027 0.061)" fill="#b2d3d3"/>
    <path id="Path_8728" data-name="Path 8728" d="M15.384,48.743l.23.7h.565L18.5,47.18a.187.187,0,0,1,.258,0,.176.176,0,0,1,0,.252L16.7,49.44h1.741a.782.782,0,0,0,.735-.46.657.657,0,0,0,.032-.414.175.175,0,0,1,.034-.151.184.184,0,0,1,.143-.067h.193a.758.758,0,0,0,.773-.674.706.706,0,0,0-.226-.559.175.175,0,0,1-.012-.246.7.7,0,0,0-.033-.975.747.747,0,0,0-1-.033.185.185,0,0,1-.252-.011.738.738,0,0,0-1.266.533v.188a.174.174,0,0,1-.069.139.183.183,0,0,1-.155.034.7.7,0,0,0-.424.031.785.785,0,0,0-.478.731v.161a.18.18,0,0,1-.069.14.186.186,0,0,1-.155.033.747.747,0,0,0-.49.053A.694.694,0,0,0,15.384,48.743Z" transform="translate(0.022 0.066)" fill="#b2d3d3"/>
    <path id="Path_8729" data-name="Path 8729" d="M9.508,55.366h7.81a6.952,6.952,0,0,0,3.04-5.575H6.468a6.95,6.95,0,0,0,3.04,5.575" transform="translate(0.009 0.072)" fill="#b2d3d3"/>
    <path id="Path_8730" data-name="Path 8730" d="M16.918,57.064H9.9a.526.526,0,0,1,0-1.053h7.018a.526.526,0,1,1,0,1.053" transform="translate(0.014 0.08)" fill="#b2d3d3"/>
    <path id="Path_8731" data-name="Path 8731" d="M61.137,14.612A14.612,14.612,0,1,1,46.525,0,14.613,14.613,0,0,1,61.137,14.612" transform="translate(0.046 0)" fill="#b8dd5e"/>
    <path id="Path_8732" data-name="Path 8732" d="M52.475,22.229a.281.281,0,0,1,.539.16l-.4,1.317a10.967,10.967,0,1,0-6.108,1.857.281.281,0,0,1,0,.563,11.534,11.534,0,1,1,6.491-2l1.336.1a.281.281,0,0,1-.042.561c-.245-.019-2.169-.157-2.241-.178a.282.282,0,0,1-.189-.35ZM46.229,10.463V22.146c-1.513-4.3-7.344-4.1-10.018-9.014A10.4,10.4,0,0,0,46.271,25l.309.006a.838.838,0,0,1,.21.045v-2.9L52.1,16.831a.281.281,0,0,0-.392-.4l-.006.006-4.916,4.916V10.463a.281.281,0,1,0-.562,0m.28-3.816a4.73,4.73,0,0,0-1.02,6.611c.057.078.116.153.177.227V10.463a.844.844,0,0,1,1.687,0v3.023a4.73,4.73,0,0,0-.616-6.66q-.111-.093-.228-.177ZM54.6,13.934a4.729,4.729,0,0,0-5.4,3.952c-.015.1-.027.191-.036.287l2.137-2.137a.843.843,0,0,1,1.208,1.178l-.015.015-2.137,2.137a4.729,4.729,0,0,0,4.274-5.145c-.009-.1-.02-.191-.035-.286" transform="translate(0.05 0.004)" fill="#3a2856" fill-rule="evenodd"/>
    <path id="Path_8733" data-name="Path 8733" d="M48.625,71.107a3.256,3.256,0,0,1,3.187,2.814c.539,2.754-1.157,5.605-4.99,7.163-.1.041-.58.215-.58.215l-.554-.215c-3.841-1.523-5.536-4.378-5-7.149a3.259,3.259,0,0,1,3.189-2.846,3.1,3.1,0,0,1,1.754.466,1.483,1.483,0,0,1,.611.7,1.985,1.985,0,0,1,.638-.7,3.036,3.036,0,0,1,1.746-.448" transform="translate(0.059 0.102)" fill="#c32b30"/>
  </g>
</svg>
