<svg id="Group_6930" data-name="Group 6930" xmlns="http://www.w3.org/2000/svg" xmlns:xlink="http://www.w3.org/1999/xlink" width="94.716" height="87.132" viewBox="0 0 94.716 87.132">
  <defs>
    <linearGradient id="linear-gradient" y1="0.5" x2="1" y2="0.5" gradientUnits="objectBoundingBox">
      <stop offset="0" stop-color="#c70b2a" stop-opacity="0.698"/>
      <stop offset="1" stop-color="#c70b2a"/>
    </linearGradient>
    <linearGradient id="linear-gradient-2" x1="0" y1="0.5" x2="1" y2="0.5" xlink:href="#linear-gradient"/>
    <linearGradient id="linear-gradient-3" x1="0" y1="0.5" x2="1" y2="0.5" xlink:href="#linear-gradient"/>
    <linearGradient id="linear-gradient-5" x1="0" y1="0.5" x2="1" y2="0.5" xlink:href="#linear-gradient"/>
  </defs>
  <g id="Group_35" data-name="Group 35" transform="translate(0 21.489)">
    <path id="Path_116" data-name="Path 116" d="M418.154,5703.537H415.68v7.855a1.853,1.853,0,0,0,2.474,0Z" transform="translate(-412.174 -5703.537)" fill="#f5efe8"/>
    <path id="Path_117" data-name="Path 117" d="M423.1,5703.537h-3.711v8.269c1.194-.143,2.813.395,3.711-.414Z" transform="translate(-412.168 -5703.537)" fill="#f5efe8"/>
    <path id="Path_118" data-name="Path 118" d="M428.036,5703.537h-3.71v7.855c.9.808,2.518.271,3.71.414Z" transform="translate(-412.161 -5703.537)" fill="#f5efe8"/>
    <path id="Path_119" data-name="Path 119" d="M432.977,5703.537h-3.711v7.855c.9.808,2.518.271,3.711.414Z" transform="translate(-412.154 -5703.537)" fill="#f5efe8"/>
    <rect id="Rectangle_25" data-name="Rectangle 25" width="3.711" height="8.269" transform="translate(22.06)" fill="#f5efe8"/>
    <rect id="Rectangle_26" data-name="Rectangle 26" width="2.474" height="8.269" transform="translate(27.008)" fill="#f5efe8"/>
    <path id="Path_120" data-name="Path 120" d="M439.186,5712.9H418.159v7.029c-2.811,1.875-5.112,4.821-5.532,8.022-.648,4.94-.531,16.147-.045,21.205a6.2,6.2,0,0,0,5.14,5.341c6.793.823,15.725-.459,22.71-.106,2.293-.812,3.88-2.247,4.24-4.49-.264-6.893.627-14.333.094-21.164-.306-3.938-2.386-6.3-5.58-8.808Z" transform="translate(-412.179 -5703.523)" fill="#f5efe8"/>
  </g>
  <g id="Group_40" data-name="Group 40" transform="translate(4.265 42.804)">
    <g id="Group_36" data-name="Group 36" transform="translate(8.098)">
      <path id="Path_121" data-name="Path 121" d="M424.626,5725.723a1.387,1.387,0,0,0,.886,1.842,2.1,2.1,0,0,1,1.061.75,1.677,1.677,0,0,1,.237.582,2.464,2.464,0,0,1,.045.353,3.881,3.881,0,0,0,.015.39,1.333,1.333,0,0,0,.457.886,1.416,1.416,0,0,0,1.547.184,1.361,1.361,0,0,0,.565-.482,1.535,1.535,0,0,0,.042-1.429,1.209,1.209,0,0,0-.478-.506,1.482,1.482,0,0,0-.3-.135,2.89,2.89,0,0,1-.449-.191,1.71,1.71,0,0,1-.956-1.667,1.354,1.354,0,0,0-.926-1.36A1.382,1.382,0,0,0,424.626,5725.723Z" transform="translate(-424.524 -5724.821)" fill="#b8dd5e"/>
      <path id="Path_122" data-name="Path 122" d="M429.147,5726.262a1.8,1.8,0,0,1-.894,1.7,2.51,2.51,0,0,1-.455.2,1.253,1.253,0,0,0-.942,1.259c0,.009,0,.017,0,.026a1.249,1.249,0,0,0,.01.139,1.692,1.692,0,0,0,.021.171,1.342,1.342,0,0,0,1.5,1.075,1.722,1.722,0,0,0,.488-.138c.045-.022.089-.044.132-.07l.045-.028a1.364,1.364,0,0,0,.186-.145l.009-.007a1.213,1.213,0,0,0,.124-.142c.021-.028.044-.055.063-.085s.02-.037.031-.056a1.27,1.27,0,0,0,.144-.423c0-.018,0-.036.005-.055a1.553,1.553,0,0,0,.013-.208s0-.007,0-.011a1.781,1.781,0,0,1,1.3-1.935,1.353,1.353,0,0,0,.983-1.32,1.383,1.383,0,1,0-2.764.044Z" transform="translate(-424.52 -5724.821)" fill="url(#linear-gradient)"/>
    </g>
    <g id="Group_37" data-name="Group 37" transform="translate(8.098 17.618)">
      <path id="Path_123" data-name="Path 123" d="M429.147,5747.008a1.8,1.8,0,0,0-.894-1.7,2.51,2.51,0,0,0-.455-.2,1.253,1.253,0,0,1-.942-1.259c0-.009,0-.017,0-.027a1.249,1.249,0,0,1,.01-.138c.006-.057.009-.113.021-.172a1.341,1.341,0,0,1,1.5-1.073,1.754,1.754,0,0,1,.488.137c.045.022.089.045.132.071l.045.027a1.446,1.446,0,0,1,.186.145l.009.008a1.346,1.346,0,0,1,.124.142c.021.028.044.055.063.084s.02.038.031.057a1.268,1.268,0,0,1,.144.422c0,.019,0,.037.005.055a1.556,1.556,0,0,1,.013.207s0,.008,0,.012a1.783,1.783,0,0,0,1.3,1.935,1.353,1.353,0,0,1,.983,1.32,1.383,1.383,0,1,1-2.764-.045Z" transform="translate(-424.52 -5742.414)" fill="#b8dd5e"/>
      <path id="Path_124" data-name="Path 124" d="M424.626,5747.547a1.386,1.386,0,0,1,.886-1.841,2.094,2.094,0,0,0,1.061-.751,1.67,1.67,0,0,0,.237-.581,2.464,2.464,0,0,0,.045-.353c.007-.13-.005-.262.015-.391a1.332,1.332,0,0,1,.457-.885,1.415,1.415,0,0,1,1.547-.183,1.356,1.356,0,0,1,.565.481,1.535,1.535,0,0,1,.042,1.429,1.222,1.222,0,0,1-.478.507,1.478,1.478,0,0,1-.3.134,2.89,2.89,0,0,0-.449.191,1.71,1.71,0,0,0-.956,1.667,1.356,1.356,0,0,1-.926,1.361A1.383,1.383,0,0,1,424.626,5747.547Z" transform="translate(-424.524 -5742.414)" fill="url(#linear-gradient-2)"/>
    </g>
    <g id="Group_38" data-name="Group 38" transform="translate(0 8.142)">
      <path id="Path_125" data-name="Path 125" d="M417.335,5740.216a1.383,1.383,0,0,0,1.838-.883,2.092,2.092,0,0,1,.748-1.058,1.676,1.676,0,0,1,.58-.237,2.437,2.437,0,0,1,.352-.045,3.836,3.836,0,0,0,.39-.015,1.321,1.321,0,0,0,.882-.455,1.411,1.411,0,0,0,.184-1.543,1.373,1.373,0,0,0-.481-.563,1.536,1.536,0,0,0-1.425-.042,1.216,1.216,0,0,0-.506.477,1.461,1.461,0,0,0-.134.3,2.835,2.835,0,0,1-.19.447,1.709,1.709,0,0,1-1.662.954,1.351,1.351,0,0,0-1.357.924A1.377,1.377,0,0,0,417.335,5740.216Z" transform="translate(-416.437 -5732.948)" fill="#b8dd5e"/>
      <path id="Path_126" data-name="Path 126" d="M417.874,5735.708a1.793,1.793,0,0,1,1.7.892,2.49,2.49,0,0,1,.2.453,1.248,1.248,0,0,0,1.256.939h.026c.048,0,.092-.007.138-.01s.113-.01.172-.021a1.338,1.338,0,0,0,1.071-1.5,1.735,1.735,0,0,0-.137-.487c-.022-.045-.045-.089-.071-.132-.008-.015-.017-.03-.027-.045a1.462,1.462,0,0,0-.144-.187l-.008-.008a1.3,1.3,0,0,0-.141-.124,1.036,1.036,0,0,0-.084-.062c-.018-.012-.037-.021-.056-.032a1.274,1.274,0,0,0-.421-.143c-.019,0-.037,0-.055-.005a1.585,1.585,0,0,0-.207-.013h-.011a1.777,1.777,0,0,1-1.93-1.294,1.349,1.349,0,0,0-1.317-.98,1.379,1.379,0,1,0,.045,2.757Z" transform="translate(-416.437 -5732.951)" fill="url(#linear-gradient-3)"/>
    </g>
    <g id="Group_39" data-name="Group 39" transform="translate(17.57 8.142)">
      <path id="Path_127" data-name="Path 127" d="M438.563,5735.708a1.791,1.791,0,0,0-1.7.892,2.489,2.489,0,0,0-.2.453,1.247,1.247,0,0,1-1.256.939h-.026c-.048,0-.092-.007-.138-.01s-.112-.01-.171-.021a1.337,1.337,0,0,1-1.071-1.5,1.7,1.7,0,0,1,.137-.487,1.409,1.409,0,0,1,.07-.132l.027-.045a1.57,1.57,0,0,1,.145-.187l.007-.008a1.3,1.3,0,0,1,.141-.124c.028-.021.055-.044.084-.062s.038-.021.056-.032a1.288,1.288,0,0,1,.422-.143c.019,0,.036,0,.055-.005a1.58,1.58,0,0,1,.206-.013h.012a1.777,1.777,0,0,0,1.929-1.294,1.35,1.35,0,0,1,1.317-.98,1.379,1.379,0,1,1-.045,2.757Z" transform="translate(-433.981 -5732.951)" fill="#b8dd5e"/>
      <path id="Path_128" data-name="Path 128" d="M439.1,5740.216a1.384,1.384,0,0,1-1.838-.883,2.081,2.081,0,0,0-.748-1.058,1.659,1.659,0,0,0-.58-.237,2.419,2.419,0,0,0-.352-.045,3.817,3.817,0,0,1-.389-.015,1.321,1.321,0,0,1-.883-.455,1.411,1.411,0,0,1-.183-1.543,1.363,1.363,0,0,1,.48-.563,1.538,1.538,0,0,1,1.426-.042,1.228,1.228,0,0,1,.506.477,1.514,1.514,0,0,1,.133.3,2.835,2.835,0,0,0,.191.447,1.707,1.707,0,0,0,1.662.954,1.352,1.352,0,0,1,1.357.924A1.378,1.378,0,0,1,439.1,5740.216Z" transform="translate(-433.981 -5732.948)" fill="url(#linear-gradient-2)"/>
    </g>
    <path id="Path_129" data-name="Path 129" d="M426.416,5735.206v0l.047.007Z" transform="translate(-416.423 -5724.806)" fill="none"/>
    <path id="Path_130" data-name="Path 130" d="M430.013,5735.206l-.054.011.054-.008Z" transform="translate(-416.418 -5724.806)" fill="none"/>
    <path id="Path_131" data-name="Path 131" d="M435.8,5739.162c-1.678.013-2.882-.819-2.9-2.5s1.179-2.523,2.857-2.536a1.958,1.958,0,1,0-1.973-1.943,2.226,2.226,0,0,1-2.5,2.537,1.924,1.924,0,0,0-.814.194,2.842,2.842,0,0,0-.463-.475,1.92,1.92,0,0,0,.212-.882,2.224,2.224,0,0,1,2.5-2.537,1.959,1.959,0,1,0-1.973-1.943c.013,1.678-.819,2.911-2.5,2.924s-2.525-1.208-2.538-2.886a1.957,1.957,0,1,0-1.943,1.973,2.226,2.226,0,0,1,2.538,2.5,1.921,1.921,0,0,0,.193.815,2.826,2.826,0,0,0-.513.512,1.917,1.917,0,0,0-.814-.194,2.225,2.225,0,0,1-2.5-2.537,1.958,1.958,0,1,0-1.974,1.943c1.678.013,2.87.859,2.857,2.536s-1.217,2.512-2.9,2.5a1.958,1.958,0,1,0,1.944,1.972,2.225,2.225,0,0,1,2.537-2.5,1.912,1.912,0,0,0,.882-.211,2.9,2.9,0,0,0,.475.463,1.914,1.914,0,0,0-.193.814,2.226,2.226,0,0,1-2.538,2.5,1.958,1.958,0,1,0,1.943,1.973c.013-1.678.859-2.874,2.538-2.861s2.511,1.221,2.5,2.9a1.959,1.959,0,1,0,1.973-1.944,2.224,2.224,0,0,1-2.5-2.537,1.923,1.923,0,0,0-.212-.882,2.856,2.856,0,0,0,.426-.425,1.9,1.9,0,0,0,.881.211,2.225,2.225,0,0,1,2.538,2.5,1.958,1.958,0,1,0,1.943-1.972Zm-5.694-2.957-1.406.258v1.448l0,.981h-.942l0-.981v-1.448l-1.407-.258-.011-1,.084.013v0l.047.01,1.77.271,1.732-.27.054-.011v0l.084-.014Z" transform="translate(-416.434 -5724.818)" fill="#3a2856"/>
  </g>
  <g id="Group_42" data-name="Group 42" transform="translate(20.83)">
    <g id="Group_41" data-name="Group 41">
      <path id="Path_132" data-name="Path 132" d="M439.945,5765.875c1.29.822,4.027.828,5.538.638,2.506-.314,4.37-2.064,7.257-1.843,1.8.137,1.794,1.33,3.224,2.157,4.8,2.775,9.665-.391,14.019.675,1.471.36,2.825,1.168,4.267,1.652,3.609.082,7.208.068,10.822,0l7.594-.782a6.423,6.423,0,0,0,5.553-5.727c3.131-1.546,7.109-2.6,8.645-6.05v-2.07c-2.176-5.181-8-6.814-12.822-8.6l-.419-.617c-.1-3.088-.407-6.223-.22-9.318.14-2.313.876-4.756,1.041-7.031.216-2.984.121-7.461.093-10.553-.024-2.822-1.068-5.34-.409-8.184.435-1.875,1.5-4.02,2.077-6,2.089-7.2,2.972-14.743,4.036-22.146H493.2a22.648,22.648,0,0,1-3.21.412c-11.6.74-23.166-.121-34.776.425l-8.788-.836H439.6a6.175,6.175,0,0,0,.053,1.289c.759,4.464,1.947,8.906,2.784,13.364,2.132,11.357,2.565,22.371,3.163,33.887.2,3.762-.926,5.078-1.424,8.3-.184,1.194-.02,4.972-.336,5.666a44.563,44.563,0,0,1-2.992,4.252c-2.318,2.616-5.816,4.111-7.869,6.929v1.655a16.181,16.181,0,0,1,.949,1.432C434.817,5760.071,438.988,5765.265,439.945,5765.875Zm18.638-67.192,22.312-.048a1.254,1.254,0,0,1,.213,2.5l-22.16-.006A1.239,1.239,0,0,1,458.583,5698.682Z" transform="translate(-432.979 -5682.079)" fill="#6b5f92"/>
    </g>
    <path id="Path_133" data-name="Path 133" d="M493.72,5682.079l-9.615.836c-9.886.021-19.749-.43-29.615,0l-9.2-.837Z" transform="translate(-432.961 -5682.079)" fill="#b8dd5e"/>
    <path id="Path_134" data-name="Path 134" d="M484.938,5741.2c1.047.222,2.282,3.9,3.21,4.862.633.659,1.592.862,2.27,1.451l-1.026,1.034,1.962,1.963,1.891-1.817,6.7,2.652-1.03,1.343,1.963,1.962,1.449-1.441c.55.485,1.681,1.7,1.466,2.487-.3,1.082-4.014,3.249-5.084,3.434-.754.13-1.167-1.064-1.8-1.349-.438-.186-1.875,1.537-1.895,1.774l.772,1.167c-.805.891-.5,1.988-1.1,3.049-1.159,2.048-3.815,1.632-5.8,2.061l-1.659-1.447c-.18,0-1.4,1.594-1.762,1.753a18.663,18.663,0,0,1-2.587.332c-.893-.073-1.752-1.551-2.482-2.085l-1.878,1.86.325.618c-.474.35-4.572-.442-5.172-.931-.473-.384.479-.542.4-1l-1.773-1.773-1.826,1.557-3.838-.333.617-.723-1.962-1.962-1.963,1.962,1.031,1.136c-1.738.346-5.5.6-7.04-.3-.485-.283.415-.662.415-.832l-1.963-1.963c-.73,1.108-1.328.274-2.275.2a19.081,19.081,0,0,0-4.1.176l-1.724-1.608-1.923,1.773c-.079.444.891.674.4,1.008a7.76,7.76,0,0,1-4.487.343c-2.022-.619.319-1.689.963-2.623L440.647,5759l-1.655,1.647-3.365-4.035,2.333-1.914c.259.021.833.946,1.137,1.1.506.261,1.63-1.335,2.053-1.7l-1.016-1.213a21.752,21.752,0,0,0,2.682-2.49c1.231-1.445,1.884-3.572,3.527-4.338a26.757,26.757,0,0,1,2.589-.865c.314.035.813.917,1.135,1.082.508.26,1.629-1.337,2.054-1.7l-.593-.828c1.24-1.8,2.968-3.4,5.367-2.558l-.325.619,1.879,1.859c.149,0,1.644-1.8,2.1-2.041.567-.3,1.287-.271,1.938-.546a16.585,16.585,0,0,0,2.683-1.468l1.562,1.364,1.963-1.963-.617-.722c1.383-.476,2.941.333,4.3.77,2.146.691,4.234,1.782,6.463,2.128l-.325.619,1.878,1.859,1.878-1.859-.325-.621C482.82,5741.321,484.124,5741.022,484.938,5741.2ZM468,5742.659l-1.774,1.924,1.923,1.772,1.774-1.923Zm5.381,0-1.773,1.924,1.923,1.772,1.773-1.923Zm-17.62,3.922-1.963,1.962,1.963,1.963,1.963-1.963Zm8.1.218-1.773,1.923,1.923,1.773,1.773-1.924Zm4.14,0-1.774,1.923,1.923,1.773,1.774-1.924Zm12.886,2.037c.173-.424-1.443-1.681-1.767-2.037l-1.923,1.772,1.745,1.928Zm-32.133.654-1.773,1.923,1.923,1.773,1.773-1.924Zm24.628,0-1.773,1.923,1.923,1.773,1.773-1.924Zm12.418,0-1.773,1.923,1.923,1.773,1.773-1.924Zm-26.084,2.685-1.778,1.958,1.934,1.745,1.773-1.924Zm35.6.006-1.773,1.923,1.923,1.773,1.773-1.924Zm-50.693,1.456-1.8,1.737,1.963,1.963,1.962-1.963C446.226,5755,445.236,5753.476,444.621,5753.637Zm35.6,0-1.8,1.737,1.962,1.963,1.963-1.963C481.824,5755,480.834,5753.476,480.219,5753.637Zm-27.154,1.224-1.962,1.963,1.962,1.962,1.767-1.962Zm36.84,0-1.963,1.963,1.963,1.962,1.962-1.962Zm-30.188,1.46-1.773,1.923,1.923,1.772,1.773-1.922Zm4.139,0-1.773,1.923,1.923,1.772,1.773-1.922Zm6.83,0-1.773,1.923,1.923,1.772,1.773-1.922Zm5.56,2.68-1.963,1.962,1.963,1.963,1.962-1.963Zm10.008,2.246c.341-.59-1.394-1.771-1.73-2.246l-1.962,1.962,1.784,1.744Zm3.651-2.246-1.963,1.962,1.963,1.963,1.962-1.963Z" transform="translate(-432.975 -5681.998)" fill="#b8dd5e"/>
    <path id="Path_135" data-name="Path 135" d="M454.59,5712.053l0-2.691H484.6l0,2.691H475.08v2.9H484.6v23.39c-1.513-.214-3.364.481-4.8.373-2.133-.159-6.148-2.287-8.492-2.91-4.938-1.312-5.726,1.068-9.537,2.574-2.7,1.067-4.422-.277-7.177-.037v-23.39h6.83v-2.9Z" transform="translate(-432.948 -5682.04)" fill="#f5efe8"/>
    <path id="Path_136" data-name="Path 136" d="M458.672,5698.456l21.474-.049c2.162.036,2.4,2.65.212,2.9-6.757-.563-14.708.739-21.322,0C456.785,5701.052,456.72,5698.806,458.672,5698.456Z" transform="translate(-432.944 -5682.056)" fill="#c70b2a"/>
    <rect id="Rectangle_27" data-name="Rectangle 27" width="2.775" height="2.775" transform="translate(20.818 66.546) rotate(-44.997)"/>
    <rect id="Rectangle_28" data-name="Rectangle 28" width="2.775" height="2.775" transform="translate(54.967 74.825) rotate(-44.997)"/>
    <rect id="Rectangle_29" data-name="Rectangle 29" width="2.775" height="2.775" transform="translate(41.307 78.965) rotate(-44.997)"/>
    <rect id="Rectangle_30" data-name="Rectangle 30" width="2.775" height="2.775" transform="translate(54.967 78.965) rotate(-44.997)"/>
    <rect id="Rectangle_31" data-name="Rectangle 31" width="2.615" height="2.615" transform="translate(38.628 62.585) rotate(-47.324)"/>
    <rect id="Rectangle_32" data-name="Rectangle 32" width="2.615" height="2.615" transform="translate(29.108 66.725) rotate(-47.324)"/>
    <rect id="Rectangle_33" data-name="Rectangle 33" width="2.615" height="2.615" transform="translate(33.247 66.725) rotate(-47.324)"/>
    <rect id="Rectangle_34" data-name="Rectangle 34" width="2.615" height="2.615" transform="translate(14 69.415) rotate(-47.324)"/>
    <rect id="Rectangle_35" data-name="Rectangle 35" width="2.615" height="2.615" transform="translate(38.628 69.415) rotate(-47.324)"/>
    <rect id="Rectangle_36" data-name="Rectangle 36" width="2.615" height="2.615" transform="translate(51.046 69.415) rotate(-47.324)"/>
    <rect id="Rectangle_37" data-name="Rectangle 37" width="2.615" height="2.615" transform="translate(33.247 62.585) rotate(-47.324)"/>
    <path id="Path_137" data-name="Path 137" d="M444.611,5753.615c.615-.161,1.605,1.363,2.128,1.737l-1.962,1.963-1.963-1.963Z" transform="translate(-432.965 -5681.976)"/>
    <path id="Path_138" data-name="Path 138" d="M480.158,5753.615c.615-.161,1.6,1.363,2.128,1.737l-1.963,1.963-1.962-1.963Z" transform="translate(-432.914 -5681.976)"/>
    <path id="Path_139" data-name="Path 139" d="M453.043,5754.837l1.767,1.962-1.767,1.963-1.962-1.963Z" transform="translate(-432.953 -5681.974)"/>
    <rect id="Rectangle_38" data-name="Rectangle 38" width="2.615" height="2.615" transform="translate(24.969 76.246) rotate(-47.324)"/>
    <rect id="Rectangle_39" data-name="Rectangle 39" width="2.615" height="2.615" transform="translate(29.108 76.246) rotate(-47.324)"/>
    <rect id="Rectangle_40" data-name="Rectangle 40" width="2.615" height="2.615" transform="translate(35.938 76.246) rotate(-47.324)"/>
    <rect id="Rectangle_41" data-name="Rectangle 41" width="2.615" height="2.615" transform="translate(60.567 72.106) rotate(-47.324)"/>
    <path id="Path_140" data-name="Path 140" d="M480.821,5748.824l-1.945,1.664-1.745-1.928,1.923-1.772C479.378,5747.143,480.995,5748.4,480.821,5748.824Z" transform="translate(-432.915 -5681.986)"/>
    <path id="Path_141" data-name="Path 141" d="M459.678,5752.155l1.929,1.779-1.773,1.923-1.934-1.744Z" transform="translate(-432.943 -5681.978)"/>
    <path id="Path_142" data-name="Path 142" d="M486.186,5761.217l-1.909,1.46-1.784-1.744,1.962-1.962C484.792,5759.447,486.528,5760.627,486.186,5761.217Z" transform="translate(-432.908 -5681.968)"/>
  </g>
  <g id="Group_47" data-name="Group 47" transform="translate(48.918 35.353)">
    <g id="Group_43" data-name="Group 43" transform="translate(5.746)">
      <path id="Path_143" data-name="Path 143" d="M466.836,5718.021a.985.985,0,0,0,.629,1.308,1.479,1.479,0,0,1,.752.532,1.205,1.205,0,0,1,.168.413,1.744,1.744,0,0,1,.032.25c.005.092,0,.185.011.276a.938.938,0,0,0,.323.628,1,1,0,0,0,1.1.132.98.98,0,0,0,.4-.343,1.086,1.086,0,0,0,.03-1.013.858.858,0,0,0-.338-.36,1,1,0,0,0-.212-.1,2.094,2.094,0,0,1-.317-.136,1.212,1.212,0,0,1-.679-1.183.961.961,0,0,0-.658-.965A.979.979,0,0,0,466.836,5718.021Z" transform="translate(-466.763 -5717.381)" fill="#b8dd5e"/>
      <path id="Path_144" data-name="Path 144" d="M470.043,5718.4a1.276,1.276,0,0,1-.634,1.208,1.743,1.743,0,0,1-.323.145.888.888,0,0,0-.668.894c0,.006,0,.012,0,.018,0,.035.005.066.007.1s.007.08.015.122a.951.951,0,0,0,1.065.761,1.223,1.223,0,0,0,.345-.1c.032-.016.064-.032.094-.05l.032-.02a1.045,1.045,0,0,0,.132-.1l.006-.006a.946.946,0,0,0,.089-.1c.015-.02.031-.039.044-.06s.014-.027.022-.04a.917.917,0,0,0,.1-.3c0-.013,0-.026,0-.039a1.184,1.184,0,0,0,.009-.147v-.008a1.263,1.263,0,0,1,.92-1.373.962.962,0,0,0,.7-.937.981.981,0,1,0-1.962.032Z" transform="translate(-466.761 -5717.381)" fill="url(#linear-gradient-5)"/>
    </g>
    <g id="Group_44" data-name="Group 44" transform="translate(5.746 12.5)">
      <path id="Path_145" data-name="Path 145" d="M470.043,5733.124a1.276,1.276,0,0,0-.634-1.209,1.882,1.882,0,0,0-.323-.145.888.888,0,0,1-.668-.894c0-.006,0-.012,0-.018,0-.034.005-.066.007-.1s.007-.08.015-.121a.951.951,0,0,1,1.065-.762,1.207,1.207,0,0,1,.345.1c.032.016.064.032.094.05l.032.02a.968.968,0,0,1,.132.1l.006,0a.946.946,0,0,1,.089.1c.015.02.031.039.044.061s.014.027.022.04a.909.909,0,0,1,.1.3c0,.013,0,.026,0,.039a1.17,1.17,0,0,1,.009.147v.008a1.263,1.263,0,0,0,.92,1.373.963.963,0,0,1,.7.937.981.981,0,1,1-1.962-.031Z" transform="translate(-466.761 -5729.864)" fill="#b8dd5e"/>
      <path id="Path_146" data-name="Path 146" d="M466.836,5733.506a.984.984,0,0,1,.629-1.307,1.489,1.489,0,0,0,.752-.532,1.212,1.212,0,0,0,.168-.413,1.746,1.746,0,0,0,.032-.25c.005-.092,0-.186.011-.276a.938.938,0,0,1,.323-.628,1,1,0,0,1,1.1-.13.958.958,0,0,1,.4.341,1.086,1.086,0,0,1,.03,1.013.872.872,0,0,1-.338.361,1.144,1.144,0,0,1-.212.095,2,2,0,0,0-.317.135,1.213,1.213,0,0,0-.679,1.183.962.962,0,0,1-.658.966A.98.98,0,0,1,466.836,5733.506Z" transform="translate(-466.763 -5729.864)" fill="url(#linear-gradient-3)"/>
    </g>
    <g id="Group_45" data-name="Group 45" transform="translate(0 5.777)">
      <path id="Path_147" data-name="Path 147" d="M461.663,5728.3a.982.982,0,0,0,1.3-.627,1.476,1.476,0,0,1,.531-.75,1.192,1.192,0,0,1,.412-.168,1.706,1.706,0,0,1,.249-.032,2.721,2.721,0,0,0,.275-.01.942.942,0,0,0,.627-.323,1,1,0,0,0,.13-1.095.963.963,0,0,0-.34-.4,1.088,1.088,0,0,0-1.011-.03.861.861,0,0,0-.359.338,1.022,1.022,0,0,0-.1.211,2.129,2.129,0,0,1-.135.316,1.212,1.212,0,0,1-1.18.678.958.958,0,0,0-.963.655A.977.977,0,0,0,461.663,5728.3Z" transform="translate(-461.026 -5723.147)" fill="#b8dd5e"/>
      <path id="Path_148" data-name="Path 148" d="M462.044,5725.106a1.272,1.272,0,0,1,1.206.632,1.786,1.786,0,0,1,.144.323.886.886,0,0,0,.891.666h.018a.8.8,0,0,0,.1-.007c.04,0,.08-.006.122-.014a.949.949,0,0,0,.759-1.062,1.229,1.229,0,0,0-.1-.346.9.9,0,0,0-.05-.094l-.019-.032a1.017,1.017,0,0,0-.1-.131l-.005-.006a.89.89,0,0,0-.1-.088c-.02-.015-.039-.031-.06-.045s-.026-.015-.04-.022a.93.93,0,0,0-.3-.1l-.039,0a1.184,1.184,0,0,0-.146-.01h-.008a1.261,1.261,0,0,1-1.369-.918.96.96,0,0,0-.934-.7.978.978,0,1,0,.031,1.956Z" transform="translate(-461.026 -5723.15)" fill="url(#linear-gradient-3)"/>
    </g>
    <g id="Group_46" data-name="Group 46" transform="translate(12.465 5.777)">
      <path id="Path_149" data-name="Path 149" d="M476.724,5725.106a1.272,1.272,0,0,0-1.2.632,1.784,1.784,0,0,0-.144.323.886.886,0,0,1-.891.666h-.018a.831.831,0,0,1-.1-.007c-.04,0-.079-.006-.121-.014a.95.95,0,0,1-.76-1.062,1.2,1.2,0,0,1,.1-.346.9.9,0,0,1,.05-.094l.019-.032a1.105,1.105,0,0,1,.1-.131l.006-.006a.81.81,0,0,1,.1-.088c.019-.015.038-.031.059-.045l.04-.022a.944.944,0,0,1,.3-.1l.039,0a1.172,1.172,0,0,1,.146-.01h.008a1.261,1.261,0,0,0,1.369-.918.959.959,0,0,1,.934-.7.978.978,0,1,1-.032,1.956Z" transform="translate(-473.473 -5723.15)" fill="#b8dd5e"/>
      <path id="Path_150" data-name="Path 150" d="M477.106,5728.3a.981.981,0,0,1-1.3-.627,1.476,1.476,0,0,0-.531-.75,1.2,1.2,0,0,0-.412-.168,1.706,1.706,0,0,0-.249-.032,2.741,2.741,0,0,1-.276-.01.942.942,0,0,1-.626-.323,1,1,0,0,1-.13-1.095.964.964,0,0,1,.34-.4,1.089,1.089,0,0,1,1.011-.03.861.861,0,0,1,.359.338,1.022,1.022,0,0,1,.1.211,2.025,2.025,0,0,0,.135.316,1.212,1.212,0,0,0,1.18.678.956.956,0,0,1,.962.655A.977.977,0,0,1,477.106,5728.3Z" transform="translate(-473.473 -5723.147)" fill="url(#linear-gradient-2)"/>
    </g>
    <path id="Path_151" data-name="Path 151" d="M468.105,5724.75v0l.033,0Z" transform="translate(-461.015 -5717.371)" fill="none"/>
    <path id="Path_152" data-name="Path 152" d="M470.657,5724.75l-.038.008.038-.006Z" transform="translate(-461.012 -5717.371)" fill="none"/>
    <path id="Path_153" data-name="Path 153" d="M474.76,5727.556c-1.191.009-2.045-.582-2.054-1.772s.836-1.792,2.027-1.8a1.389,1.389,0,1,0-1.4-1.378,1.579,1.579,0,0,1-1.773,1.8,1.347,1.347,0,0,0-.578.138,2.061,2.061,0,0,0-.328-.337,1.359,1.359,0,0,0,.15-.625,1.579,1.579,0,0,1,1.772-1.8,1.389,1.389,0,1,0-1.4-1.379c.009,1.191-.582,2.066-1.773,2.075s-1.792-.857-1.8-2.048a1.389,1.389,0,1,0-1.378,1.4,1.579,1.579,0,0,1,1.8,1.773,1.357,1.357,0,0,0,.137.577,2,2,0,0,0-.364.365,1.351,1.351,0,0,0-.578-.138,1.579,1.579,0,0,1-1.773-1.8,1.39,1.39,0,1,0-1.4,1.378c1.191.009,2.036.61,2.027,1.8s-.863,1.782-2.054,1.772a1.39,1.39,0,1,0,1.378,1.4,1.58,1.58,0,0,1,1.8-1.772,1.361,1.361,0,0,0,.626-.15,2.035,2.035,0,0,0,.336.329,1.357,1.357,0,0,0-.137.577,1.579,1.579,0,0,1-1.8,1.773,1.39,1.39,0,1,0,1.378,1.4c.009-1.191.61-2.039,1.8-2.03s1.782.866,1.773,2.057a1.39,1.39,0,1,0,1.4-1.379,1.578,1.578,0,0,1-1.772-1.8,1.356,1.356,0,0,0-.15-.626,2,2,0,0,0,.3-.3,1.358,1.358,0,0,0,.626.15,1.579,1.579,0,0,1,1.8,1.772,1.39,1.39,0,1,0,1.379-1.4Zm-4.04-2.1-1,.183v1.027l0,.7h-.668l0-.7v-1.027l-1-.183-.008-.708.06.009v0l.034.007,1.256.194,1.228-.193.038-.008v0l.06-.009Z" transform="translate(-461.023 -5717.379)" fill="#3a2856"/>
  </g>
</svg>
