<svg id="Group_5060" data-name="Group 5060" xmlns="http://www.w3.org/2000/svg" xmlns:xlink="http://www.w3.org/1999/xlink" width="185.927" height="147.065" viewBox="0 0 185.927 147.065">
  <defs>
    <clipPath id="clip-path">
      <rect id="Rectangle_778" data-name="Rectangle 778" width="185.927" height="147.065" fill="none"/>
    </clipPath>
  </defs>
  <g id="Group_5059" data-name="Group 5059" clip-path="url(#clip-path)">
    <path id="Path_7541" data-name="Path 7541" d="M228.257,136.319H127.671a14.4,14.4,0,0,1-14.4-14.4V16.864a14.4,14.4,0,0,1,14.4-14.4H228.257a14.4,14.4,0,0,1,14.4,14.4V121.916a14.4,14.4,0,0,1-14.4,14.4" transform="translate(-57.935 -1.258)" fill="#f3ede6"/>
    <path id="Path_7542" data-name="Path 7542" d="M229.39,136.263H124.022a13.229,13.229,0,0,1-13.214-13.214V13.215A13.229,13.229,0,0,1,124.022,0H229.39A13.229,13.229,0,0,1,242.6,13.215V123.048a13.229,13.229,0,0,1-13.214,13.214M124.022,2.4A10.824,10.824,0,0,0,113.21,13.215V123.048a10.824,10.824,0,0,0,10.812,10.812H229.39A10.824,10.824,0,0,0,240.2,123.048V13.215A10.824,10.824,0,0,0,229.39,2.4Z" transform="translate(-56.677 -0.001)" fill="#3a2856"/>
    <rect id="Rectangle_751" data-name="Rectangle 751" width="129.382" height="2.402" transform="translate(54.966 17.682)" fill="#3a2856"/>
    <path id="Path_7543" data-name="Path 7543" d="M344.4,20.163a5.6,5.6,0,1,1,5.6-5.6,5.609,5.609,0,0,1-5.6,5.6m0-8.8a3.2,3.2,0,1,0,3.2,3.2,3.2,3.2,0,0,0-3.2-3.2" transform="translate(-173.291 -4.582)" fill="#3a2856"/>
    <path id="Path_7544" data-name="Path 7544" d="M317.345,20.163a5.6,5.6,0,1,1,5.6-5.6,5.609,5.609,0,0,1-5.6,5.6m0-8.8a3.2,3.2,0,1,0,3.2,3.2,3.2,3.2,0,0,0-3.2-3.2" transform="translate(-159.454 -4.582)" fill="#3a2856"/>
    <path id="Path_7545" data-name="Path 7545" d="M290.292,20.163a5.6,5.6,0,1,1,5.6-5.6,5.609,5.609,0,0,1-5.6,5.6m0-8.8a3.2,3.2,0,1,0,3.2,3.2,3.2,3.2,0,0,0-3.2-3.2" transform="translate(-145.616 -4.582)" fill="#3a2856"/>
    <path id="Path_7546" data-name="Path 7546" d="M82.593,164.412v0c-.1.14-5.76,5.245-5.76,5.245l-6.652-.186-14.906-.419-14.78-.414s-4.081-2.374-4.554-4.229c0-.02-.01-.039-.014-.06a6.323,6.323,0,0,1-.053-1.125c0-.033,0-.066,0-.1.02-1.634.211-4.549.455-7.7.031-.392.062-.788.095-1.186.22-2.747.468-5.57.671-7.8.038-.418.075-.814.109-1.186.173-1.885.292-3.116.292-3.116l-.529-4.684-.135-1.185-.882-7.8-.134-1.185-.882-7.8L34.8,118.3l-.239-2.118A55.23,55.23,0,0,1,48.8,114.629a57.062,57.062,0,0,1,13.356,1.706,50.762,50.762,0,0,1,6.125,1.968q1.38.542,2.766,1.186a48.108,48.108,0,0,1,4.766,2.552s.236,2.055.592,5.247c.042.379.086.775.132,1.185.248,2.248.542,4.932.848,7.8.042.391.085.787.126,1.185.271,2.543.548,5.2.807,7.8.04.4.079.792.12,1.186.08.82.237,2.432.237,2.432.181,1.89,4.044,14.722,3.919,15.537" transform="translate(-17.678 -58.629)" fill="#c02b30"/>
    <path id="Path_7547" data-name="Path 7547" d="M63.377,85.913a16.668,16.668,0,0,1,2.735,5.062l1.051-3.236c-2.479-.7-3.057-3.305-1.363-4.049A1.384,1.384,0,0,1,67.823,84.8v.009l1.8-3.4s4.146,2.194,6.842,2.36a2.416,2.416,0,0,0,1.812-.442c1.829-1.7,1.562-5,0-6.067a8.649,8.649,0,0,0-3.926-1.16s1.517-3.346-2.9-2.855S66.5,76.456,66.5,76.456s-5.4,6.692-3.123,9.458" transform="translate(-32.131 -37.438)" fill="#040404"/>
    <path id="Path_7548" data-name="Path 7548" d="M66.943,103.511s5.14,3.238,10.511.512l-.95-3.967s1.446-.2,1.612-1.442a50.118,50.118,0,0,0,.459-6.248c-2.7-.166-6.842-2.36-6.842-2.36l-1.8,3.4V93.4a1.384,1.384,0,0,0-2.023-1.107c-1.694.744-1.115,3.347,1.364,4.049l-1.052,3.237Z" transform="translate(-34.24 -46.037)" fill="#f6b58e"/>
    <path id="Path_7549" data-name="Path 7549" d="M56.358,219.507l2.878,36.64H39.687c-1.915-23.1-3.356-42.162-2.927-42.5a.548.548,0,0,1,.2-.069c1.437-.312,9.724-.352,18.911-.292Z" transform="translate(-18.763 -109.082)" fill="#c02b30"/>
    <path id="Path_7550" data-name="Path 7550" d="M127.41,256.325H113.662c-1.538-7.288-4.671-22.158-7.606-36.221l-1.354-6.493c7.6.1,13.5.214,13.5.214l.264,1.219Z" transform="translate(-53.555 -109.26)" fill="#c02b30"/>
    <path id="Path_7551" data-name="Path 7551" d="M98.96,256.171H79.326l-2.878-36.64-.489-6.222c4.712.03,9.66.087,14.042.147.443,2.123.9,4.3,1.353,6.493,2.935,14.064,6.068,28.934,7.606,36.221" transform="translate(-38.852 -109.106)" fill="#b6db5e"/>
    <path id="Path_7552" data-name="Path 7552" d="M83.733,162.985c-4.382-.06-9.33-.117-14.042-.147l-2.024-25.772-3.962-22.433a57.062,57.062,0,0,1,13.356,1.706c.421,5.214,1.556,19.824,1.411,20.51-.067.319,2.342,12.1,5.26,26.136" transform="translate(-32.585 -58.634)" fill="#3a2856"/>
    <path id="Path_7553" data-name="Path 7553" d="M16.883,117.817S2.489,121.541.941,131.934s-2.875,46.879,10.614,47.1,22.776-11.278,22.112-11.5-16.784-49.719-16.784-49.719" transform="translate(0 -60.262)" fill="#c02b30"/>
    <path id="Path_7554" data-name="Path 7554" d="M36.474,181.426a.2.2,0,0,1-.122-.359l12.767-9.785a.2.2,0,0,1,.244.318L36.6,181.384a.2.2,0,0,1-.122.042" transform="translate(-18.554 -87.588)" fill="#040404"/>
    <path id="Path_7555" data-name="Path 7555" d="M41.705,158.084a.2.2,0,0,1-.195-.155l-5.541-24a.2.2,0,1,1,.39-.09l5.541,24a.2.2,0,0,1-.15.24.206.206,0,0,1-.045.005" transform="translate(-18.395 -68.377)" fill="#040404"/>
    <path id="Path_7556" data-name="Path 7556" d="M39.057,218.347a.2.2,0,0,1-.164-.312c.436-.623,15.568-12.952,17.76-14.737l-1.658-6.579a.2.2,0,0,1,.388-.1l1.69,6.7a.2.2,0,0,1-.068.2c-6.95,5.657-17.42,14.25-17.784,14.737a.205.205,0,0,1-.164.082" transform="translate(-19.875 -100.492)" fill="#040404"/>
    <rect id="Rectangle_752" data-name="Rectangle 752" width="65.019" height="65.019" transform="translate(41.346 57.751)" fill="#3a2856"/>
    <path id="Path_7557" data-name="Path 7557" d="M150.514,135.031a2.184,2.184,0,1,0-1.7-.822l-4.713,8.162H133.749l-5.378-9.316-1.229.709,5.384,9.325-5.179,8.97h-11.32l-5.993,10.38,5.584,9.671-4.617,8a2.28,2.28,0,0,0-.233-.013,2.186,2.186,0,1,0,1.521.619l4.557-7.894h11.167l5.583-9.671h11.32l5.993-10.38-5.588-9.679,4.688-8.119a2.188,2.188,0,0,0,.506.061M127.193,171.4H116.845l-5.173-8.961,5.173-8.961h10.348l5.174,8.961Zm22.077-18.632L144.1,161.73H133.749l-5.173-8.961,5.173-8.961H144.1Z" transform="translate(-55.541 -66.836)" fill="#f3ede6"/>
    <path id="Path_7558" data-name="Path 7558" d="M127.16,181.857h8.211a.5.5,0,1,0,0-.993H127.16a.5.5,0,0,0,0,.993" transform="translate(-64.788 -92.51)" fill="#f3ede6"/>
    <path id="Path_7559" data-name="Path 7559" d="M143.721,203.459a.5.5,0,0,0,.679-.182l4.105-7.111a.5.5,0,1,0-.86-.5l-4.106,7.111a.5.5,0,0,0,.182.679" transform="translate(-73.385 -99.956)" fill="#f3ede6"/>
    <path id="Path_7560" data-name="Path 7560" d="M119.186,195.669a.5.5,0,0,0-.86.5l4.106,7.112a.5.5,0,0,0,.86-.5Z" transform="translate(-60.488 -99.956)" fill="#f3ede6"/>
    <path id="Path_7561" data-name="Path 7561" d="M79.831,158.144s2.365,2.349-.43,3.482c0,0-1.531,3.006-3.174,2.447l-4.3,1.013-4.483,5.271c-1.448-3.835-3.418-9.059-4.626-12.325,2.585-2.343,4.645-4.2,4.645-4.2l4.541-8.8s2.629,1.066.205,5.921c0,0,8.566-.449,8.544-.269s2,1.2-.432,3.5c0,0,2.757,1.5-.49,3.968" transform="translate(-32.131 -74.181)" fill="#f6b58e"/>
    <path id="Path_7562" data-name="Path 7562" d="M271.794,132.346a3.142,3.142,0,1,1-3.922-4.263,3.142,3.142,0,0,0,3.922,4.263" transform="translate(-135.951 -65.513)" fill="#b6b1ad"/>
    <path id="Path_7563" data-name="Path 7563" d="M273.672,132.151a3.1,3.1,0,0,1-.678.162,3.142,3.142,0,0,1-3.244-4.425,3.061,3.061,0,0,1,.678-.162,3.142,3.142,0,0,1,3.244,4.425" transform="translate(-137.829 -65.318)" fill="#b0d1d0"/>
    <path id="Path_7564" data-name="Path 7564" d="M310.338,126.373a3.142,3.142,0,1,1-4.218,3.971,3.142,3.142,0,0,0,4.218-3.971" transform="translate(-156.578 -64.639)" fill="#b6b1ad"/>
    <path id="Path_7565" data-name="Path 7565" d="M310.13,126.09a3.109,3.109,0,0,1,.17.676,3.142,3.142,0,0,1-4.388,3.295,3.079,3.079,0,0,1-.17-.676,3.142,3.142,0,0,1,4.388-3.295" transform="translate(-156.37 -64.356)" fill="#b0d1d0"/>
    <path id="Path_7566" data-name="Path 7566" d="M273.188,96.758a3.143,3.143,0,1,1,5.527-1.733,3.143,3.143,0,0,0-5.385,1.05,3.079,3.079,0,0,0-.142.683" transform="translate(-139.353 -46.845)" fill="#b6b1ad"/>
    <path id="Path_7567" data-name="Path 7567" d="M273.967,99.194a3.081,3.081,0,0,1,.142-.683,3.143,3.143,0,0,1,5.385-1.05,3.073,3.073,0,0,1-.142.683,3.143,3.143,0,0,1-5.385,1.05" transform="translate(-140.132 -49.28)" fill="#b0d1d0"/>
    <path id="Path_7568" data-name="Path 7568" d="M345.45,91.635a3.143,3.143,0,1,1-.037,5.793,3.141,3.141,0,0,0,.037-5.793" transform="translate(-176.676 -46.749)" fill="#b6b1ad"/>
    <path id="Path_7569" data-name="Path 7569" d="M343.454,91.885a3.1,3.1,0,0,1,.607.343,3.143,3.143,0,0,1-.643,5.449,3.1,3.1,0,0,1-.607-.343,3.143,3.143,0,0,1,.643-5.449" transform="translate(-174.68 -46.998)" fill="#b0d1d0"/>
    <path id="Path_7570" data-name="Path 7570" d="M318.539,67.741a3.142,3.142,0,1,1,5.774-.465,3.143,3.143,0,0,0-5.484-.169,3.09,3.09,0,0,0-.29.634" transform="translate(-162.749 -32.301)" fill="#b6b1ad"/>
    <path id="Path_7571" data-name="Path 7571" d="M318.909,70.285a3.088,3.088,0,0,1,.29-.634,3.143,3.143,0,0,1,5.484.169,3.092,3.092,0,0,1-.29.635,3.143,3.143,0,0,1-5.484-.17" transform="translate(-163.119 -34.845)" fill="#b0d1d0"/>
    <path id="Path_7572" data-name="Path 7572" d="M283.534,105.572a4.256,4.256,0,0,0-1.636,1.041l-3.015-5.22a.97.97,0,0,1,1.679-.969q1.485,2.575,2.972,5.148" transform="translate(-142.572 -51.112)" fill="#b6db5e"/>
    <path id="Path_7573" data-name="Path 7573" d="M302.933,126.473l-4.911-2.836a4.243,4.243,0,0,0,.906-1.716l4.974,2.872a.969.969,0,0,1-.969,1.679" transform="translate(-152.436 -62.362)" fill="#b6db5e"/>
    <path id="Path_7574" data-name="Path 7574" d="M279.311,124.577q-2.243,1.691-4.485,3.385a.969.969,0,1,1-1.168-1.547l4.532-3.422a4.278,4.278,0,0,0,.978,1.45q.07.069.144.133" transform="translate(-139.768 -62.91)" fill="#b6db5e"/>
    <path id="Path_7575" data-name="Path 7575" d="M322.549,79.509a4.247,4.247,0,0,1,1.936.111q.044-3.015.087-6.028a.969.969,0,1,0-1.938-.027q-.042,2.972-.084,5.943" transform="translate(-164.981 -37.139)" fill="#b6db5e"/>
    <path id="Path_7576" data-name="Path 7576" d="M332.279,96.176l5.567.768a.969.969,0,1,0,.265-1.92l-5.626-.778a4.283,4.283,0,0,1-.146,1.743c-.019.063-.039.125-.061.186" transform="translate(-169.958 -48.207)" fill="#b6db5e"/>
    <path id="Path_7577" data-name="Path 7577" d="M291.227,117.1a4.571,4.571,0,0,1-.095.637c-.009.043-.021.085-.032.127a4.246,4.246,0,0,1-.906,1.716,4.425,4.425,0,0,1-.327.336,4.262,4.262,0,0,1-5.716.056c-.049-.043-.1-.087-.144-.133a4.274,4.274,0,0,1-.977-1.45,4.191,4.191,0,0,1-.229-.764,4.284,4.284,0,0,1-.071-1.153A4.233,4.233,0,0,1,283.761,114a3.96,3.96,0,0,0,.065.45,4.19,4.19,0,0,0,.229.764,4.28,4.28,0,0,0,.978,1.45c.047.046.095.09.144.133a4.261,4.261,0,0,0,5.717-.055,4.519,4.519,0,0,0,.327-.336v0a4.269,4.269,0,0,1,.006.7" transform="translate(-144.608 -58.308)" fill="#3a2856"/>
    <path id="Path_7578" data-name="Path 7578" d="M308.082,92.081c-.019.063-.04.125-.061.187a4.258,4.258,0,0,1-6.787,1.837l-7.9,5.931-1.365,1.024a4.213,4.213,0,0,1,.345,1.33l0,0a4.525,4.525,0,0,1-.327.336,4.261,4.261,0,0,1-5.717.055c-.049-.043-.1-.087-.143-.133a4.277,4.277,0,0,1-.977-1.45,4.2,4.2,0,0,1-.229-.764,4.066,4.066,0,0,1-.064-.45c.051-.061.106-.119.161-.176l.011-.011a4.25,4.25,0,0,1,1.636-1.041,3.988,3.988,0,0,1,.559-.155,4.265,4.265,0,0,1,2.83.4l9.765-7.332A4.28,4.28,0,0,1,300.168,89a4.239,4.239,0,0,1,1.484-1.691,4.275,4.275,0,0,1,1.053-.5,4.118,4.118,0,0,1,.564-.137,4.254,4.254,0,0,1,1.936.11l.015,0a4.265,4.265,0,0,1,2.836,2.778,4.3,4.3,0,0,1,.173.777c.005.045.01.091.015.136a4.3,4.3,0,0,1-.161,1.607" transform="translate(-145.7 -44.297)" fill="#c02b30"/>
    <path id="Path_7579" data-name="Path 7579" d="M323.828,92.717a4.576,4.576,0,0,1-.095.637c-.009.043-.021.085-.032.127a4.246,4.246,0,0,1-.906,1.716,4.423,4.423,0,0,1-.327.336,4.262,4.262,0,0,1-5.717.056c-.049-.043-.1-.087-.144-.133A4.274,4.274,0,0,1,315.63,94a4.191,4.191,0,0,1-.229-.764,4.283,4.283,0,0,1-.071-1.153,4.233,4.233,0,0,1,1.032-2.478,3.947,3.947,0,0,0,.065.45,4.185,4.185,0,0,0,.229.764,4.284,4.284,0,0,0,.977,1.45c.047.046.095.09.144.133a4.261,4.261,0,0,0,5.717-.055,4.519,4.519,0,0,0,.327-.336v0a4.272,4.272,0,0,1,.006.7" transform="translate(-161.283 -45.835)" fill="#3a2856"/>
    <rect id="Rectangle_753" data-name="Rectangle 753" width="40.163" height="2.466" transform="translate(65.339 28.385)" fill="#3a2856"/>
    <rect id="Rectangle_754" data-name="Rectangle 754" width="40.163" height="2.466" transform="translate(65.339 35.303)" fill="#3a2856"/>
    <rect id="Rectangle_755" data-name="Rectangle 755" width="40.163" height="2.466" transform="translate(65.339 42.221)" fill="#3a2856"/>
    <rect id="Rectangle_756" data-name="Rectangle 756" width="40.163" height="2.466" transform="translate(65.339 49.14)" fill="#3a2856"/>
    <rect id="Rectangle_757" data-name="Rectangle 757" width="8.775" height="8.775" transform="translate(114.504 83.194)" fill="#3a2856"/>
    <rect id="Rectangle_758" data-name="Rectangle 758" width="21.381" height="2.063" transform="translate(125.25 83.195)" fill="#3a2856"/>
    <rect id="Rectangle_759" data-name="Rectangle 759" width="21.381" height="2.063" transform="translate(125.25 86.491)" fill="#3a2856"/>
    <rect id="Rectangle_760" data-name="Rectangle 760" width="21.381" height="2.063" transform="translate(125.25 89.788)" fill="#3a2856"/>
    <rect id="Rectangle_761" data-name="Rectangle 761" width="8.775" height="8.775" transform="translate(114.504 99.122)" fill="#3a2856"/>
    <rect id="Rectangle_762" data-name="Rectangle 762" width="21.381" height="2.063" transform="translate(125.25 99.123)" fill="#3a2856"/>
    <rect id="Rectangle_763" data-name="Rectangle 763" width="21.381" height="2.063" transform="translate(125.25 102.419)" fill="#3a2856"/>
    <rect id="Rectangle_764" data-name="Rectangle 764" width="21.381" height="2.063" transform="translate(125.25 105.716)" fill="#3a2856"/>
    <rect id="Rectangle_765" data-name="Rectangle 765" width="8.775" height="8.775" transform="translate(114.504 115.051)" fill="#3a2856"/>
    <rect id="Rectangle_766" data-name="Rectangle 766" width="21.381" height="2.063" transform="translate(125.25 115.051)" fill="#3a2856"/>
    <rect id="Rectangle_767" data-name="Rectangle 767" width="21.381" height="2.063" transform="translate(125.25 118.347)" fill="#3a2856"/>
    <rect id="Rectangle_768" data-name="Rectangle 768" width="21.381" height="2.063" transform="translate(125.25 121.644)" fill="#3a2856"/>
    <rect id="Rectangle_769" data-name="Rectangle 769" width="15.425" height="1.894" transform="translate(159.119 80.236)" fill="#c02b30"/>
    <rect id="Rectangle_770" data-name="Rectangle 770" width="15.425" height="1.894" transform="translate(159.119 85.55)" fill="#c02b30"/>
    <rect id="Rectangle_771" data-name="Rectangle 771" width="15.425" height="1.894" transform="translate(159.119 90.864)" fill="#c02b30"/>
    <rect id="Rectangle_772" data-name="Rectangle 772" width="15.425" height="1.894" transform="translate(159.119 96.178)" fill="#c02b30"/>
    <rect id="Rectangle_773" data-name="Rectangle 773" width="15.425" height="1.894" transform="translate(159.119 101.492)" fill="#c02b30"/>
    <rect id="Rectangle_774" data-name="Rectangle 774" width="15.425" height="1.894" transform="translate(159.119 106.806)" fill="#c02b30"/>
    <rect id="Rectangle_775" data-name="Rectangle 775" width="15.425" height="1.894" transform="translate(159.119 112.12)" fill="#c02b30"/>
    <rect id="Rectangle_776" data-name="Rectangle 776" width="15.425" height="1.894" transform="translate(159.119 117.434)" fill="#c02b30"/>
    <rect id="Rectangle_777" data-name="Rectangle 777" width="15.425" height="1.894" transform="translate(159.119 122.748)" fill="#c02b30"/>
  </g>
</svg>
