<svg xmlns="http://www.w3.org/2000/svg" xmlns:xlink="http://www.w3.org/1999/xlink" width="65.403" height="63.606" viewBox="0 0 65.403 63.606">
  <defs>
    <clipPath id="clip-path">
      <path id="Path_8262" data-name="Path 8262" d="M0,37.508H65.4V-26.1H0Z" transform="translate(0 26.098)" fill="none"/>
    </clipPath>
  </defs>
  <g id="Group_7158" data-name="Group 7158" transform="translate(-755.764 -3759.175)">
    <g id="Group_5737" data-name="Group 5737" transform="translate(755.764 3759.175)">
      <g id="Group_5710" data-name="Group 5710" transform="translate(0 0)" clip-path="url(#clip-path)">
        <g id="Group_5629" data-name="Group 5629" transform="translate(0.099 1.34)">
          <path id="Path_8181" data-name="Path 8181" d="M32.629,3.988a36.7,36.7,0,0,0-3.037-2.464,26.579,26.579,0,0,0-10.926-4.3L18.6-1.049A27.832,27.832,0,0,1,33.314,7.164c13.41,14.692,8.949,37.767-7.975,47.5a30.784,30.784,0,0,1-15.42,3.926v-.01A20.029,20.029,0,0,1-5.457,51.806,23.7,23.7,0,0,1-9.8,44.67a26.835,26.835,0,0,1-1.828-8.113c-.012-.193-.024-.388-.032-.582a.98.98,0,0,0-.107-.487.323.323,0,0,0-.431-.127,4.6,4.6,0,0,0,.112,1.077c.044.373.1.746.151,1.119q.165,1.115.395,2.22a30.08,30.08,0,0,0,2.886,8.25c.324.595.682,1.167,1.038,1.743a4.676,4.676,0,0,0,.972,1.3,9.516,9.516,0,0,1-2.8-3.388,21.725,21.725,0,0,1-1.523-4.116,42.39,42.39,0,0,1-1-4.365c-.141-.816-.229-1.628-.314-2.452a8.415,8.415,0,0,0-.193-1.46A16.418,16.418,0,0,1-22.7,28.765,34.074,34.074,0,0,0-12.23,50.32a33.755,33.755,0,0,0,9.946,6.466,33.427,33.427,0,0,0,12.637,2.7A30.347,30.347,0,0,0,22.912,56.9,33.5,33.5,0,0,0,31.964,51q.72-.662,1.4-1.362a31.056,31.056,0,0,0,9.037-19c1.06-9.963-2.208-20.224-9.776-26.648" transform="translate(22.703 2.775)" fill="#f4efe8"/>
        </g>
        <g id="Group_5630" data-name="Group 5630" transform="translate(21.79 33.573)">
          <path id="Path_8182" data-name="Path 8182" d="M0,.313C.514.828,1.041.633.8-.218c-.18.2-.619.327-.8.531" transform="translate(0 0.218)" fill="#f4efe8"/>
        </g>
        <g id="Group_5631" data-name="Group 5631" transform="translate(0 3.763)">
          <path id="Path_8183" data-name="Path 8183" d="M1.366,18.392a18.163,18.163,0,0,0,6.793,3.663c.346.1.7.18,1.05.253.256.054.873.039,1.072.195.29.227.2.963.236,1.3a30.56,30.56,0,0,0,1.163,6.342,25.818,25.818,0,0,0,2.471,5.7A20.261,20.261,0,0,0,23.2,44.032a23.049,23.049,0,0,0,2.5.994c3.934,1.314,8.457,1.092,12.479.292.422-.085.843-.183,1.26-.295A31.069,31.069,0,0,0,57.4,32.262C67.929,17,62.287-5.332,44.549-11.937a21.691,21.691,0,0,0-2.854-.858c-.285.068-.327.261-.061.324a2.821,2.821,0,0,0,.361.08l.665.239c3.015,1.165,3.841,1.423,5.7,2.788.015.063-.083.054-.124.041-.275-.09-.96-.582-1.3-.741-.841-.388-1.679-.785-2.544-1.111a14.719,14.719,0,0,0-2.335-.7,3.688,3.688,0,0,1-.485-.115c-.183-.063-.424-.229-.629-.178-.115.029-.222.3-.132.388a.208.208,0,0,0,.093.046c.534.158,1.085.249,1.628.366a7.739,7.739,0,0,1,1.35.441c.841.353,1.657.758,2.476,1.158.027.012.054.024.08.039C63.2-1.564,66.284,21.214,54.1,34.753a29.478,29.478,0,0,1-14.794,9.283,23.167,23.167,0,0,1-3.678.59c-.6.054-1.211.073-1.818.09-.392.012-.785,0-1.175.017-.017-.1-.037-.2-.051-.285.614-.034,1.258.039,1.864.007,12.413-.646,23.968-11.25,26.134-23.385,1.594-8.92-.151-17.65-6.32-24.387C50.978-6.9,45.635-10.823,40.72-11.591c-.161-.024-.612-.054-.531.227A29.828,29.828,0,0,1,51.543-5.49C62.067,3.432,63.673,19.8,56.05,31.087A29.269,29.269,0,0,1,42.1,42.411,27.672,27.672,0,0,1,32.518,44.2c-.041-.054-.59,0-2.284,0-.129,0-1.089-.061-1.311-.1a19.056,19.056,0,0,1-13.531-9.186c-2.3-3.861-3.237-8.323-3.707-12.756-.592-.11-1.153-.139-1.721-.28a20.666,20.666,0,0,1-5.028-1.916A14.28,14.28,0,0,1,.5,16.191a8.973,8.973,0,0,1-.963-1.518c-.051-.1-.28-.8-.37-.807-.146-.012-.112.743-.112.826A3.074,3.074,0,0,0-.221,16.74a10.185,10.185,0,0,0,1.587,1.652" transform="translate(0.95 12.797)" fill="#f4efe8"/>
        </g>
        <g id="Group_5632" data-name="Group 5632" transform="translate(30.752 44.525)">
          <path id="Path_8184" data-name="Path 8184" d="M1.45,0A2.626,2.626,0,0,0-1.007,2.662c.134,2.83,3.946,3.722,4.857.938A2.709,2.709,0,0,0,1.45,0m.058,5.006c-.183,0-.626,0-.724-.178h1.36c-.061.166-.487.178-.636.178" transform="translate(1.009 0)" fill="#b7b2ad"/>
        </g>
        <g id="Group_5633" data-name="Group 5633" transform="translate(25.661 44.305)">
          <path id="Path_8185" data-name="Path 8185" d="M1.036.029a3.275,3.275,0,0,0-1,.617A2.638,2.638,0,0,0,2.871,4.928c1.275-.519,1.362-1.716,1.255-2.922A2.564,2.564,0,0,0,1.036.029" transform="translate(0.721 0.02)" fill="#827593"/>
        </g>
        <g id="Group_5634" data-name="Group 5634" transform="translate(35.268 46.912)">
          <path id="Path_8186" data-name="Path 8186" d="M.15,1.641l-.168-.509c-.743,2.837,3.5,3.995,4.667,1.477,1-2.15-.582-4.277-2.954-3.634A2.9,2.9,0,0,0,.15,1.641m3.283,1.28c.066-.058.09-.19.144-.234.154-.122.466-.136.653-.327.136-.139.112-.339.258-.378a2.3,2.3,0,0,1-1.869,1.7,6.9,6.9,0,0,1,.814-.763" transform="translate(0.105 1.142)" fill="#c12b30"/>
        </g>
        <g id="Group_5635" data-name="Group 5635" transform="translate(30.396 49.965)">
          <path id="Path_8187" data-name="Path 8187" d="M.139,2.048C1.216,4.778,5.971,3.33,4.731.179c-.522-1.326-1.774-1.511-3.044-1.6C.256-.655-.516.388.139,2.048m3.529.127.851-.551A2.372,2.372,0,0,1,2.65,3.24Z" transform="translate(0.097 1.425)" fill="#f4efe8"/>
        </g>
        <g id="Group_5636" data-name="Group 5636" transform="translate(20.996 43.708)">
          <path id="Path_8188" data-name="Path 8188" d="M2.673,1.021A2.539,2.539,0,0,0-.288-.659c-1.343.271-1.835,1.908-1.438,3.1.76,2.279,4.138,2.3,4.353.241a11.754,11.754,0,0,0,.046-1.662" transform="translate(1.86 0.71)" fill="#b2d3d3"/>
        </g>
        <g id="Group_5637" data-name="Group 5637" transform="translate(42.82 42.816)">
          <path id="Path_8189" data-name="Path 8189" d="M1.357.005C-2.362.3-1.273,6.654,2.48,4.877,4.94,3.712,4.216-.219,1.357.005M3.333,2.923a1.388,1.388,0,0,0,.19-1.05c-.007-.093-.1-.288.061-.271A2.645,2.645,0,0,1,.913,4.912a1.4,1.4,0,0,1-1.07-.843l.639.595L.66,4.487c.548.4,2.418-1.175,2.674-1.565" transform="translate(0.944 0.004)" fill="#b2d3d3"/>
        </g>
        <g id="Group_5638" data-name="Group 5638" transform="translate(18.607 34.19)">
          <path id="Path_8190" data-name="Path 8190" d="M5.784.114A7.385,7.385,0,0,0,3.525.149c-.334.1-.314.641-.375.643C2.872.117,2.8.01,2.043-.049L2,.11,1.863-.061l-.76,0L.939.11.685-.061.554.195C.412.231.515.041.42.019c-.288-.058-.648.366-.76.6-.088.185.263.239.129.6h.171l-.085.341H3.193c-.037.158-.278.163-.329.312-.08.239.146.453-.054.624L2.684,2.1l-.256.049.253-.3-.256-.044.088-.168C1.846,1.8.449,1.5-.126,1.677c-.136.044-.256.224-.424.222l.168.253L-.555,2.2l.093.246-.158.066-.056.239.041-.6-.341.171c.056-.175-.061-.38.171-.341V1.9l-.327-.1-.015-.151-.256.168c.214-.207-.19-.224-.392-.244a3.682,3.682,0,0,0-1.016-.119,1.452,1.452,0,0,0-.89.621,2.265,2.265,0,0,0-.278.553c-.041.127-.127.565.156.427a.421.421,0,0,0,.173-.2.13.13,0,0,0,.076.146.364.364,0,0,0,.178.024c.136,0,.312-.034.336-.171a.151.151,0,0,0,.21.149c0-.049,0-.1.007-.149A.256.256,0,0,0-2.607,3a.254.254,0,0,0,.229-.163.459.459,0,0,0,.458.232.135.135,0,0,1,.076-.154c.01.1.117.149.212.175C-1.24,3.2-.55,3.31-.3,2.937a.922.922,0,0,1,.134.156A7.261,7.261,0,0,1,2.026,3.02c.288.066.485.468.87.071l.085-.344c.073,0,.017.212.251.258.561.115,1.492-.1,2.047-.044.219.022.314.3.336.3C6.5,2.605,7.558,2.9,8.582,2.82l.707-1.053a.5.5,0,0,0-.434-.3c-.444-.058-2.349.029-2.591.4-.19.29.022.439-.051.714-.429-.219-.122-.617-.385-.892l-.763-.3c.37-.122.685.146,1.063.154a18.6,18.6,0,0,0,2.527-.263c.09-.019.175-.151.268-.136.129.019.3.414.595.395.132-.007.285-.132.446-.141a12.511,12.511,0,0,0,2.03-.1c.4-.093.522-.8.812-1.058,0-.378-2.006-.334-2.33-.29-.431.058-.836.261-.731.758H9.406C9.372.66,9.7.18,9.089.044A10.973,10.973,0,0,0,6.435.2l.034.929C6.191.748,6.374.222,5.784.114" transform="translate(4.024 0.08)" fill="#f4efe8"/>
        </g>
        <g id="Group_5639" data-name="Group 5639" transform="translate(20.057 34.164)">
          <path id="Path_8191" data-name="Path 8191" d="M1.18.556A1.779,1.779,0,0,1,1.365.008a.446.446,0,0,1-.212-.146c-.039-.049-.073-.107-.132-.119C.985-.265.944-.25.909-.263S.827-.387.809-.387a.068.068,0,0,0-.061.029A1.694,1.694,0,0,1,.4-.05C.264.047.159.174.034.283a4.586,4.586,0,0,0-.855.77c.239.051,1.2.3,1.3-.034l.212.088-.083.168.595.085L1.034,1.19l.21,0,.171.173s.129-.424.129-.427C1.526.993,1.182.678,1.18.556" transform="translate(0.821 0.387)" fill="#f4efe8"/>
        </g>
        <g id="Group_5640" data-name="Group 5640" transform="translate(25.566 49.466)">
          <path id="Path_8192" data-name="Path 8192" d="M1.293,2.682c.663.1,2.108-.239,2.3-.977A8.373,8.373,0,0,0,3.677-.043,2.53,2.53,0,0,0,2.592-1.51c-.546-.241-1.475-.171-2.074-.356-2.354,1-1.555,4.182.775,4.548" transform="translate(0.9 1.866)" fill="#b7dd5e"/>
        </g>
        <g id="Group_5641" data-name="Group 5641" transform="translate(13.056 32.765)">
          <path id="Path_8193" data-name="Path 8193" d="M28.049,1.179a8.7,8.7,0,0,1-.212-1.2c.012-.2.292-.646.044-.8a2.115,2.115,0,0,1-.183.541A15.554,15.554,0,0,1,24.52,2.582C14.918,8.79-.983,9.9-11.94,7.391c-2.6-.6-4.889-1.526-7.392-2.308-.132-.041-.207-.093-.178.093A34.892,34.892,0,0,0-11.855,7.73a55.536,55.536,0,0,0,17.74.977A45.275,45.275,0,0,0,22.863,3.9,15.519,15.519,0,0,0,27.752.031L27.63.655l.419,2.181c-.029-.539.046-1.124,0-1.657" transform="translate(19.517 0.82)" fill="#f4efe8"/>
        </g>
        <g id="Group_5642" data-name="Group 5642" transform="translate(37.895 42.125)">
          <path id="Path_8194" data-name="Path 8194" d="M2.1.014A30.877,30.877,0,0,0-1.072.5C-1.806,1.806-1.579,3.98.208,4.157A2.73,2.73,0,0,0,3.269.755C3.03-.035,2.879-.052,2.1.014" transform="translate(1.464 0.01)" fill="#f4efe8"/>
        </g>
        <g id="Group_5643" data-name="Group 5643" transform="translate(20.968 48.823)">
          <path id="Path_8195" data-name="Path 8195" d="M.793.024A1.845,1.845,0,0,0-.543,1.749C-.726,3.858,2.143,5.639,3.751,4a11.39,11.39,0,0,0,.037-2.074,2.673,2.673,0,0,0-3-1.9m2.917,2.7a1.705,1.705,0,0,1-1.618,1.7c.1-.358.734-.383.987-.67.268-.307-.01-1.009.631-1.031" transform="translate(0.551 0.017)" fill="#b7b2ad"/>
        </g>
        <g id="Group_5644" data-name="Group 5644" transform="translate(17.052 45.877)">
          <path id="Path_8196" data-name="Path 8196" d="M1.928.3A4.6,4.6,0,0,0,.008-.206a1.713,1.713,0,0,0-1.34,1.557,3.081,3.081,0,0,0,2.7,3C3.288,4.427,3.164,1.174,1.928.3" transform="translate(1.342 0.211)" fill="#c12b30"/>
        </g>
        <g id="Group_5645" data-name="Group 5645" transform="translate(17.263 41.184)">
          <path id="Path_8197" data-name="Path 8197" d="M1.971.37A4.084,4.084,0,0,0-.077-.254c-.4.037-.975.836-1.114,1.189a2.452,2.452,0,0,0,.6,2.722,2.155,2.155,0,0,0,2.574.373c.063-.051.8-1.294.834-1.389A3.134,3.134,0,0,0,1.971.37" transform="translate(1.371 0.258)" fill="#f4efe8"/>
        </g>
        <g id="Group_5646" data-name="Group 5646" transform="translate(40.13 46.455)">
          <path id="Path_8198" data-name="Path 8198" d="M1.072,0C.572.01-.8.583-.744,1.134c.007.071.4,1.231.453,1.34.119.256.158-.168.3-.171L.082,3.532l-.132.122-.368.012c.012.124-.039.3.019.407a5.072,5.072,0,0,0,.485.322,2.26,2.26,0,0,0,3.3-1.816C3.509,1.6,2.846,1.382,2.3.817,1.842.337,1.973-.019,1.072,0M2.3,3.871c.129-.158.283-.682.395-.8s.268-.068.295-.093-.144-.368.171-.419a2.139,2.139,0,0,1-1.275,1.7c-.017-.271.273-.214.414-.39" transform="translate(0.746 0)" fill="#827593"/>
        </g>
        <g id="Group_5647" data-name="Group 5647" transform="translate(46.819 40.172)">
          <path id="Path_8199" data-name="Path 8199" d="M1.806.008A9.7,9.7,0,0,0,.738.39C.312.512-.8.7-1.092.856c-.058.032-.119.044-.134.122A2.7,2.7,0,0,0-.644,3.352C1.316,5.589,4.048,2.479,2.629.42A.734.734,0,0,0,1.806.008M1.362,3.734C.889,3.9.19,4.073-.129,3.564a1.636,1.636,0,0,0,1.272-.217c.531-.3.621-.809.98-1.233.117-.139.383-.266.427-.339.1-.154-.041-.414.127-.424A2.139,2.139,0,0,1,1.362,3.734" transform="translate(1.256 0.005)" fill="#827593"/>
        </g>
        <g id="Group_5648" data-name="Group 5648" transform="translate(47.164 44.553)">
          <path id="Path_8200" data-name="Path 8200" d="M.862.022.95.19a.671.671,0,0,0-.6.468C.3.866.443.741.521.7a2.682,2.682,0,0,1-.349,1.63c-.134.224-.529.478-.5.751l-.085-.339c-.419.3-.027.968.222,1.267.946,1.148,2.822.429,3.368-.782C4,1.407,2.885-.292.862.022m1.448,3.7c-.729.6-1.923.958-2.381-.129.136-.007.368.336.4.341s.614.058.648.058c.509-.012,1.221-.648,1.721-.821.441-.548.122-.994.119-1.582L2.99.873a2.539,2.539,0,0,1-.68,2.852" transform="translate(0.6 0.016)" fill="#b7b2ad"/>
        </g>
        <g id="Group_5649" data-name="Group 5649" transform="translate(13.997 42.734)">
          <path id="Path_8201" data-name="Path 8201" d="M0,.718A7.635,7.635,0,0,0,.609,3c.385.656,1.8,1.287,2.357.6A2.822,2.822,0,0,0,2.357-.106,2.313,2.313,0,0,0,1.345-.5C.765-.449,0,.079,0,.718" transform="translate(0 0.5)" fill="#827593"/>
        </g>
        <g id="Group_5650" data-name="Group 5650" transform="translate(38.663 51.56)">
          <path id="Path_8202" data-name="Path 8202" d="M.688,2.055C2.667,2.8,5.017.361,3.571-1.423l.217.807C3.844,1.056,1.765,2.684.3,1.5A1.244,1.244,0,0,1-.218.493c0-.068-.024-.312.088-.171-.158.987,1.84,1.189,2.325.9.08-.049.115-.214.229-.3.207-.154.492-.175.685-.339C3.7.079,3-.733,3.016-1.335a6.106,6.106,0,0,0-1.141-.08c-.3.044-.556.295-.79.314-.141.015-.3-.088-.4-.061C.554-1.125.576-.709.125-1v.427L-.214-.657c-.453,1.2-.429,2.213.9,2.713" transform="translate(0.479 1.43)" fill="#f4efe8"/>
        </g>
        <g id="Group_5651" data-name="Group 5651" transform="translate(51.096 39.553)">
          <path id="Path_8203" data-name="Path 8203" d="M.333,2.26l-.565-.58C.185,3.23,2.415,3,3.041,1.677c.731-1.543-.01-3.439-1.874-3.234A1.369,1.369,0,0,0,.039-.17c.046.227.278.441.317.7C.416.919.326,1.4.355,1.8A2.328,2.328,0,0,0,1,2.021a1.453,1.453,0,0,0,1.73-.743l.1-1.726c.319.3.256.955.146,1.377C2.676,2.082,1.464,3.118.333,2.26" transform="translate(0.232 1.572)" fill="#b7dd5e"/>
        </g>
        <g id="Group_5652" data-name="Group 5652" transform="translate(34.408 53.164)">
          <path id="Path_8204" data-name="Path 8204" d="M2.24.411C2.016.189.868-.4.663-.266.656-.262.729-.142.7-.1.651-.023.522-.006.464.075.432.116.476.209.408.282-.146.874-1.637,1.649-.658,2.544c.919.841,2.5-.278,3.2-.994.01-.29-.229-.349-.173-.709.648.826.024,1.874-.792,2.313-1.75.938-3.346-.09-2.7-2.057-.663.422-.485,1.582,0,2.086C.61,5,4.361,2.507,2.24.411" transform="translate(1.559 0.286)" fill="#f4efe8"/>
        </g>
        <g id="Group_5653" data-name="Group 5653" transform="translate(25.849 53.859)">
          <path id="Path_8205" data-name="Path 8205" d="M1.219.3C.682.235.222-.121-.3-.209c-.436.617-.7.926-.439,1.706a2.56,2.56,0,0,0,3.4,1.45c1-.434.685-2.038.21-2.81A4.783,4.783,0,0,1,1.219.3M2.791,2.482a2.4,2.4,0,0,1-2.05.253C.609,2.694.1,2.455.458,2.36c.244-.063.573.027.834-.015.219-.037.31-.195.451-.232.31-.083.6.08.875-.232a.658.658,0,0,0,.1-.868C2.41.483,1.93.627,1.406.539,1.316.522,1.068.517,1.085.393a3.765,3.765,0,0,0,1.531,0L2.447.561a1.346,1.346,0,0,1,.344,1.921" transform="translate(0.848 0.209)" fill="#f4efe8"/>
        </g>
        <g id="Group_5654" data-name="Group 5654" transform="translate(44.884 32.509)">
          <path id="Path_8206" data-name="Path 8206" d="M0,.777c.141.149.522.451.721.431C.785,1.2.873,1.1.982,1.084A7.137,7.137,0,0,0,3.19.736c.451.67,1,.263,1.626.178.648-.085,1.26.08,1.735-.478C7.706-.924,5.2-.522,4.487-.349,3.846-.2,4.048-.054,3.8.2c-.132.132-.344.234-.483.368C3.2.426,3.978-.156,3.2-.463a4.169,4.169,0,0,0-2.349.3C.573.046.329.565,0,.777" transform="translate(0 0.541)" fill="#f4efe8"/>
        </g>
        <g id="Group_5655" data-name="Group 5655" transform="translate(18.004 50.421)">
          <path id="Path_8207" data-name="Path 8207" d="M1.272,2.184a2.071,2.071,0,0,0,1.406-.049C3.49,1.545,2.522.8,2.186.249a6.309,6.309,0,0,1-.621-1.377l-.329-.01C1.2-1,1.353-1.1,1.4-.992c.034.083.134.524-.039.531-.2.007-1.07-1.214-1.66-.678-.129-.188.353-.19.171-.341-.207-.168-.553.232-.639.424-.548,1.226.9,2.92,2.038,3.239M0,.648l.551.595c.049-.436.741-.041.985,0,.47.071.843-.127,1.236.312-.4.926-1.8.319-2.349-.217C.28,1.194-.068.8,0,.648" transform="translate(0.885 1.52)" fill="#f4efe8"/>
        </g>
        <g id="Group_5656" data-name="Group 5656" transform="translate(30.12 54.957)">
          <path id="Path_8208" data-name="Path 8208" d="M2.584,1.233A3.151,3.151,0,0,0,1.991-.334c.185.877.836,1.243-.058,1.942A4.754,4.754,0,0,1,.86,2.137c-.1.046-.015.2-.146.166l-.1-2.8C.049-.581-.543-.885-1.116-.673l.044-.171c-.158-.119-.573.565-.617.7C-2.371,1.952.322,2.988,1.879,2.066a1.645,1.645,0,0,0,.7-.834" transform="translate(1.798 0.858)" fill="#b2d3d3"/>
        </g>
        <g id="Group_5657" data-name="Group 5657" transform="translate(41.825 29.841)">
          <path id="Path_8209" data-name="Path 8209" d="M.322.167a2.34,2.34,0,0,0-.546.8c.122.519,2.537.239,3.005.253a.319.319,0,0,1,.351.224A6.846,6.846,0,0,1,5.538.964L6.066.04,5.942-.087A16.262,16.262,0,0,0,3.9,0c-.285.049-.212.28-.212.509C3.649.549,3.417.452,3.368.4,3.23.259,3.31.013,2.944-.067A5.99,5.99,0,0,0,.322.167" transform="translate(0.224 0.116)" fill="#f4efe8"/>
        </g>
        <g id="Group_5658" data-name="Group 5658" transform="translate(22.009 53.555)">
          <path id="Path_8210" data-name="Path 8210" d="M2.1,1.864c.519-.21.317-.485.168-.894-.224.024.041.451,0,.507a3.33,3.33,0,0,1-.807.266A3.319,3.319,0,0,1-.5.887C-.562.821-.715.706-.581.628c.146.066.295.317.422.356C.065,1.055.113.914.233.926c.229.022.529.273.785.2A1.725,1.725,0,0,1,2,.36C2.234-1.134,1.044-.983-.028-1.07L1.23-.8,1.5-.393C1.076-.322.764-.634.4-.773A9.431,9.431,0,0,1-.657-1.207c-.349-.173-.485-.1-.665.246C-2.112.548.659,2.444,2.1,1.864" transform="translate(1.461 1.297)" fill="#f4efe8"/>
        </g>
        <g id="Group_5659" data-name="Group 5659" transform="translate(54.079 36.936)">
          <path id="Path_8211" data-name="Path 8211" d="M.8,2.282c1.784.495,2.847-2.676,1.621-3.834L2.3-1.588-.549,0A6.877,6.877,0,0,0-.432,1.215,3.645,3.645,0,0,0,.8,2.282M.309,1.329c.253.09.448-.154.658-.241.124-.054.288-.024.424-.088a4,4,0,0,0,.77-1.019V-1.252c.324-.339.59.977.585,1.141-.024,1.4-1.933,3.266-2.8,1.284.227-.19.249.117.361.156" transform="translate(0.554 1.588)" fill="#f4efe8"/>
        </g>
        <g id="Group_5660" data-name="Group 5660" transform="translate(10.974 2.069)">
          <path id="Path_8212" data-name="Path 8212" d="M17.4.013l-.938.08c-1.1.093-2.2.185-3.285.38a20.9,20.9,0,0,0-3.171.848A18.171,18.171,0,0,0,7.03,2.577c-.938.534-1.869,1.055-2.756,1.677A30.227,30.227,0,0,0,.243,7.664,38.515,38.515,0,0,0-3.3,11.778a44.216,44.216,0,0,0-3,4.592,46.334,46.334,0,0,0-2.406,4.84,43.309,43.309,0,0,0-1.747,4.855c-.066.222-.129.446-.19.668a37.68,37.68,0,0,0-1.46,8.942l1.521.266A19.218,19.218,0,0,1-10.05,30.4a43.647,43.647,0,0,1,9.8-19.98A27.608,27.608,0,0,1,3.263,7.1,21.275,21.275,0,0,1,8.607,3.776a20.2,20.2,0,0,1,6.217-1.338q.808-.055,1.621-.068c.271,0,.541,0,.809,0,.154,0,.5.085.57-.1a1.151,1.151,0,0,0,.037-.317A9.022,9.022,0,0,0,17.891.264c-.041-.341-.183-.278-.487-.251" transform="translate(12.109 0.009)" fill="#f4efe8"/>
        </g>
        <g id="Group_5661" data-name="Group 5661" transform="translate(14.486 39.911)">
          <path id="Path_8213" data-name="Path 8213" d="M1.292,1.5c.834-.08.89-1.05,1.489-1.531C1.514-.194.412-1-.877-1.047A2.13,2.13,0,0,0,1.292,1.5" transform="translate(0.899 1.047)" fill="#f4efe8"/>
        </g>
        <g id="Group_5662" data-name="Group 5662" transform="translate(45.047 37.259)">
          <path id="Path_8214" data-name="Path 8214" d="M.528.959C1.842.942,3.114,1.13,3.465-.479,2.768-.764.76-.766.26-.2c-.1.115-.11.314-.193.424-.11.146-.514.28-.422.6.1.353.665.139.882.136" transform="translate(0.368 0.667)" fill="#f4efe8"/>
        </g>
        <g id="Group_5663" data-name="Group 5663" transform="translate(48.457 35.648)">
          <path id="Path_8215" data-name="Path 8215" d="M2.1.524c.353-.558.056-.816-.539-.88a8.423,8.423,0,0,0-2.02.193c-.519.19-.7.831-1,1.253.972.424,2.932.422,3.558-.565" transform="translate(1.46 0.364)" fill="#f4efe8"/>
        </g>
        <g id="Group_5664" data-name="Group 5664" transform="translate(38.281 37.211)">
          <path id="Path_8216" data-name="Path 8216" d="M.712.041A1.524,1.524,0,0,0,.2.214,3.661,3.661,0,0,0-.492,1.4a.408.408,0,0,0,.346.175,13.243,13.243,0,0,0,1.616-.007A1.65,1.65,0,0,0,2.832.97c.7-.777.229-.977-.658-1A13.235,13.235,0,0,0,.712.041" transform="translate(0.495 0.029)" fill="#f4efe8"/>
        </g>
        <g id="Group_5665" data-name="Group 5665" transform="translate(41.47 37.281)">
          <path id="Path_8217" data-name="Path 8217" d="M1.792,0A11.268,11.268,0,0,0-.155.268a7.84,7.84,0,0,0-1,.958c-.049.071-.119.083-.083.212l.707.327C.12,1.4,1.678,1.73,2.224,1.243,2.787.741,2.66,0,1.792,0" transform="translate(1.247 0)" fill="#f4efe8"/>
        </g>
        <g id="Group_5666" data-name="Group 5666" transform="translate(48.192 34.03)">
          <path id="Path_8218" data-name="Path 8218" d="M.382,1.109c.166-.434.687-.214,1.1-.256C2.371.77,3.467.724,3.475-.407A2.634,2.634,0,0,0,2.68-.766,6.934,6.934,0,0,0,.867-.532c-.59.21-.395.39-.7.751C-.006.429-.323.448-.257.77Z" transform="translate(0.266 0.771)" fill="#f4efe8"/>
        </g>
        <g id="Group_5667" data-name="Group 5667" transform="translate(41.653 35.656)">
          <path id="Path_8219" data-name="Path 8219" d="M.1.925A6.205,6.205,0,0,0,2.651.849a2.435,2.435,0,0,0,.5-.214C3.5,1.51,3.923.969,4.4.893,5.14.779,6.049,1.015,6.651.425,7.211-.126,7-.53,6.258-.635A12.128,12.128,0,0,0,4.5-.54a.791.791,0,0,0-.573.919c-.3-.188-.4.151-.68.168C3.668,0,3.8-.484,2.951-.562a5.1,5.1,0,0,0-2.12.188A7.9,7.9,0,0,0-.069.688C-.088.8.024.874.1.925" transform="translate(0.071 0.643)" fill="#f4efe8"/>
        </g>
        <g id="Group_5668" data-name="Group 5668" transform="translate(51.351 32.563)">
          <path id="Path_8220" data-name="Path 8220" d="M.4.292c-.217.195-.4.587-.675.77l.887.456,2.413-.344L3.457.219C2.867-.459.99-.235.4.292" transform="translate(0.277 0.203)" fill="#f4efe8"/>
        </g>
        <g id="Group_5669" data-name="Group 5669" transform="translate(38.345 34.106)">
          <path id="Path_8221" data-name="Path 8221" d="M1.911.849c.324.417.69.156,1.05.119A6.385,6.385,0,0,0,5.119.658c.141-.11.551-.731.5-.914-.134-.531-2.079-.3-2.53-.175-.648.178-.407.422-.629.69-.056.066-.388.158-.487.275-.085-.1.422-.656.214-.851C2.011-.614.125-.5-.277-.4-.5-.217-1.23.368-1.311.617c-.093.29.173.419.363.592.807-.673,1.935-.027,2.8-.59.08-.019.012.163.063.229" transform="translate(1.33 0.59)" fill="#f4efe8"/>
        </g>
        <g id="Group_5670" data-name="Group 5670" transform="translate(28.398 37.244)">
          <path id="Path_8222" data-name="Path 8222" d="M.141.145C-.4.535.089,1.291.521,1.373A3.242,3.242,0,0,0,3,.918C3.241.676,3.543.3,3.175.079A5.536,5.536,0,0,0,.141.145" transform="translate(0.098 0.101)" fill="#f4efe8"/>
        </g>
        <g id="Group_5671" data-name="Group 5671" transform="translate(51.774 34.197)">
          <path id="Path_8223" data-name="Path 8223" d="M1.457.837c.434-.124,1.011-.57,1-1.053C2-.764.041-.637-.38-.235l-.634.941A3.1,3.1,0,0,0,1.457.837" transform="translate(1.014 0.583)" fill="#f4efe8"/>
        </g>
        <g id="Group_5672" data-name="Group 5672" transform="translate(15.266 47.554)">
          <path id="Path_8224" data-name="Path 8224" d="M.86,2.038c.341.275,1.241.112,1.016-.122C1.258,1.753.848,2.033.512,1.363.47,1.282.373,1.3.514,1.19c.492.044.641-.324,1.063-.385l.468.429A5.807,5.807,0,0,0,1.353.1C1.206-.158.9-.989.775-1.111A2.8,2.8,0,0,0-.422-1.4v.682L-.59-.809A9.543,9.543,0,0,0,.86,2.038" transform="translate(0.599 1.418)" fill="#f4efe8"/>
        </g>
        <g id="Group_5673" data-name="Group 5673" transform="translate(54.753 32.693)">
          <path id="Path_8225" data-name="Path 8225" d="M1.467.882C1.823.785,2.54.163,2.342-.2,2.113-.634,1.326-.634.917-.6-.244-.512-.339-.253-1.021.6A2.887,2.887,0,0,0,1.467.882" transform="translate(1.021 0.614)" fill="#f4efe8"/>
        </g>
        <g id="Group_5674" data-name="Group 5674" transform="translate(38.497 31.205)">
          <path id="Path_8226" data-name="Path 8226" d="M.729.015a.711.711,0,0,0-.47.21,8.5,8.5,0,0,0-.765.941c0,.168.3.38.458.366.1-.012.217-.134.358-.149.636-.063,1.918.032,2.391-.373.271-.232.67-.721.178-.929A10.205,10.205,0,0,0,.729.015" transform="translate(0.507 0.011)" fill="#f4efe8"/>
        </g>
        <g id="Group_5675" data-name="Group 5675" transform="translate(44.971 34.188)">
          <path id="Path_8227" data-name="Path 8227" d="M2.084.164C1.85-.3-.019-.07-.517.035L-1.45,1.061l.424.548c.2,0,.285-.178.487-.234.57-.161,1.44-.046,1.957-.256C1.626,1.037,2.2.4,2.084.164" transform="translate(1.45 0.114)" fill="#f4efe8"/>
        </g>
        <g id="Group_5676" data-name="Group 5676" transform="translate(54.242 28.355)">
          <path id="Path_8228" data-name="Path 8228" d="M1.949.561c.136-.18.261-.5.076-.69C1.552-.617-.359-.346-.839.068c-.21.18-.329.582-.517.8.719.256,2.822.324,3.3-.31" transform="translate(1.356 0.39)" fill="#f4efe8"/>
        </g>
        <g id="Group_5677" data-name="Group 5677" transform="translate(47.858 29.629)">
          <path id="Path_8229" data-name="Path 8229" d="M.639.1A1.864,1.864,0,0,0,.112.427c-.085.076-.6.707-.553.763.324-.032.692.256.975.261a13.3,13.3,0,0,0,1.889-.244c.434-.129.556-.509.7-.9C3.1.183,2.686-.051,2.559-.068A15.291,15.291,0,0,0,.639.1" transform="translate(0.444 0.071)" fill="#f4efe8"/>
        </g>
        <g id="Group_5678" data-name="Group 5678" transform="translate(51.03 28.358)">
          <path id="Path_8230" data-name="Path 8230" d="M1.281,0C.441.035-.325.028-.834.784c-.222.329.249.634.561.646a17.163,17.163,0,0,0,1.862-.183c.458-.068.8-.195.943-.68C2.707-.05,1.654-.011,1.281,0" transform="translate(0.892 0.003)" fill="#f4efe8"/>
        </g>
        <g id="Group_5679" data-name="Group 5679" transform="translate(44.276 48.586)">
          <path id="Path_8231" data-name="Path 8231" d="M.007,1.055c.373.051.685.317,1.065.344.753.054,1.475-.4,1.3-1.216-.012-.058-.258-.631-.28-.658a3.47,3.47,0,0,0-.938-.258.824.824,0,0,0-.461.219A4.483,4.483,0,0,0,.35-.073C.319.068.37.234.326.4c-.032.127-.4.551-.319.658" transform="translate(0.005 0.734)" fill="#f4efe8"/>
        </g>
        <g id="Group_5680" data-name="Group 5680" transform="translate(41.043 53.083)">
          <path id="Path_8232" data-name="Path 8232" d="M1.882,2.462a.31.31,0,0,0,.139-.244l.09.161.112,0c.765-.526,2.123-.941,2.793-1.526A8.9,8.9,0,0,0,5.977-.5,2.868,2.868,0,0,0,6.359-1.7c-.151-.171-.775.99-.894,1.1-.219.21-1.377.721-1.406.809-.012.041-.027.214.046.214.346.041.6-.38.977-.171l-.261.29L2.569,1.96c-.249.071-.041-.344-.166-.424A4.858,4.858,0,0,1,1.024,2.625a8.567,8.567,0,0,1-.819.458c-.439.193-.953.239-1.338.451-.117.066-.21-.007-.166.214A7.547,7.547,0,0,0,1.882,2.462" transform="translate(1.31 1.713)" fill="#f4efe8"/>
        </g>
        <g id="Group_5681" data-name="Group 5681" transform="translate(44.8 31.155)">
          <path id="Path_8233" data-name="Path 8233" d="M.119.752A6.541,6.541,0,0,0,2.739.635a1.064,1.064,0,0,0,.826-.99,6.483,6.483,0,0,0-2.83.007L.507.148.353.077-.083.618a.369.369,0,0,0,.2.134" transform="translate(0.083 0.524)" fill="#f4efe8"/>
        </g>
        <g id="Group_5682" data-name="Group 5682" transform="translate(48.115 31.156)">
          <path id="Path_8234" data-name="Path 8234" d="M.551.118A4.23,4.23,0,0,0-.383,1.14l.553.353c.9-.356,2.881-.041,2.839-1.4C2.8-.233.926-.03.551.118" transform="translate(0.383 0.082)" fill="#f4efe8"/>
        </g>
        <g id="Group_5683" data-name="Group 5683" transform="translate(0.141 0.001)">
          <path id="Path_8235" data-name="Path 8235" d="M5.954,22.065c.59.161.6-.261.687-.792.239-1.423.285-2.917.561-4.377C8.879,7.978,14.338-2.675,21.633-8.234a26.262,26.262,0,0,1,5.34-3.285,23.8,23.8,0,0,1,6.183-1.733c.612-.09,1.226-.163,1.843-.227.283-.032.568-.049.851-.058h0a1.437,1.437,0,0,0,.539-.063,3.958,3.958,0,0,0-.877-.5,5.253,5.253,0,0,0-1.687.185,24.977,24.977,0,0,0-3.188.709,27.437,27.437,0,0,0-6,2.588,32.612,32.612,0,0,0-9.9,8.954c-4.95,6.744-7.49,15-8.669,23.283a80.217,80.217,0,0,1,1.265-8.886,41.9,41.9,0,0,1,3.261-8.616C15.62-5.741,24.513-13.665,36-14.162c-8.223-2.508-17.833-.921-25.111,3.507A32.4,32.4,0,0,0-3.861,10.517a9.853,9.853,0,0,0-.183,3.61,7.829,7.829,0,0,0,3.1,4.658,20.26,20.26,0,0,0,6.895,3.28" transform="translate(4.143 15.353)" fill="#f4efe8"/>
        </g>
        <g id="Group_5684" data-name="Group 5684" transform="translate(51.348 31.147)">
          <path id="Path_8236" data-name="Path 8236" d="M1.986.1c-.2-.329-2.23-.107-2.581.063-.241.119-.441.656-.787.746.1.409.714.278.6.807.158.012.1-.253.188-.322.219-.158,1.538-.117,2-.339C1.64.941,2.13.339,1.986.1" transform="translate(1.382 0.07)" fill="#f4efe8"/>
        </g>
        <g id="Group_5685" data-name="Group 5685" transform="translate(52.966 44.506)">
          <path id="Path_8237" data-name="Path 8237" d="M1.485.506C1.431.6,1.451.759,1.39.84c-.073.1-.336.054-.383.3l.171.083-.933.768c.022.058.21.1.253.085.151-.061.707-.619.943-.763.073-.044.2.022.251-.01.11-.063.219-.407.253-.546.168-.015.071.261.044.341C1.645,2.11.437,3.019-.012,4.03V3.816c-.458-.1-.358.224-.522.543a2.73,2.73,0,0,0-.5,1.414c.7-.458.907-1.238,1.377-1.9.663-.933,1.784-1.638,1.938-2.83a11.133,11.133,0,0,1,.088-1.4c-.461,0-.673.5-.885.858" transform="translate(1.033 0.352)" fill="#f4efe8"/>
        </g>
        <g id="Group_5686" data-name="Group 5686" transform="translate(26.562 57.227)">
          <path id="Path_8238" data-name="Path 8238" d="M2.526.551c-.183.019-.183.263-.344.422-.614.6-1.979.414-2.72.129-.015-.171.217-.029.327-.1.2-.122.149-.714.1-.921l.37.163.31-.334C-.2.232-2.5-1.284-1.52.512c.653,1.206,3.809,1.94,4.046.039" transform="translate(1.757 0.383)" fill="#f4efe8"/>
        </g>
        <g id="Group_5687" data-name="Group 5687" transform="translate(41.64 31.315)">
          <path id="Path_8239" data-name="Path 8239" d="M.586.707C1.127.622,2.265.87,2.655.395a5.49,5.49,0,0,0,.329-.673C2.95-.738,1.19-.295.832-.407.676-.414.661-.222.593-.178c-.1.061-.2.063-.314.151A8.443,8.443,0,0,0-.4.661c-.112.507.909.058.985.046" transform="translate(0.408 0.492)" fill="#f4efe8"/>
        </g>
        <g id="Group_5688" data-name="Group 5688" transform="translate(43.267 48.267)">
          <path id="Path_8240" data-name="Path 8240" d="M2.179,1.993c.795-1.119.692-3.086-.846-3.38l-1.574.239H1.674c.161,0,.468.4.543.561C3,1.087,1.038,3.7-.624,2.508l-.892-1.019c.11,2.232,2.642,1.986,3.695.5" transform="translate(1.516 1.387)" fill="#f4efe8"/>
        </g>
        <g id="Group_5689" data-name="Group 5689" transform="translate(46.935 49.017)">
          <path id="Path_8241" data-name="Path 8241" d="M2.139.862a2.319,2.319,0,0,0-.4-1.421c-.122-.124-.046.076-.149.122A3.7,3.7,0,0,1-.223-.091c-.019.149.195.083.3.085a4.979,4.979,0,0,0,1.66-.341A2.615,2.615,0,0,1,.177,2.816c-.838.368-1.1.193-1.336-.695-.027-.029-.427.295-.307.427,1.133,1.85,3.48-.09,3.6-1.687" transform="translate(1.488 0.599)" fill="#f4efe8"/>
        </g>
        <g id="Group_5690" data-name="Group 5690" transform="translate(34.93 58.205)">
          <path id="Path_8242" data-name="Path 8242" d="M.273,1.1A21.862,21.862,0,0,0,3.044.723,7.523,7.523,0,0,0,5.81-.342c.049-.08-.085-.456-.251-.424l-.646.083.253.3A4.745,4.745,0,0,1,2.83.423L2.871.253A6.816,6.816,0,0,1,.512.83C.246.845.024.623-.19.974c.122.173.288.134.463.129" transform="translate(0.19 0.768)" fill="#f4efe8"/>
        </g>
        <g id="Group_5691" data-name="Group 5691" transform="translate(38.244 55.312)">
          <path id="Path_8243" data-name="Path 8243" d="M2.261.829C2.49.271,2.524-.577,1.747-.577c-.012.156.193.049.3.168C2.31-.116,2,.671,1.786.949a2.947,2.947,0,0,1-2.359.836,1.724,1.724,0,0,1-.819-.636C-1.446.944-1.2.888-1.232.7c-.875.626.127,1.319.829,1.426A2.7,2.7,0,0,0,2.261.829" transform="translate(1.573 0.577)" fill="#f4efe8"/>
        </g>
        <g id="Group_5692" data-name="Group 5692" transform="translate(42.227 53.014)">
          <path id="Path_8244" data-name="Path 8244" d="M.327,1.716c1.189.66,3.022-.48,3.2-1.769C3.58-.436,3.6-1.126,3.11-1.194,4.007.083,1.816,1.928.7,1.6.446,1.519-.117.817.132.507.066.556-.175.668-.19.695c-.168.283.275.887.517,1.021" transform="translate(0.227 1.194)" fill="#f4efe8"/>
        </g>
        <g id="Group_5693" data-name="Group 5693" transform="translate(57.732 34.626)">
          <path id="Path_8245" data-name="Path 8245" d="M1.5.588A2.155,2.155,0,0,0,.952-.4C.8-.477.742-.061.655.025c.324-.019.37.132.344.427L1.167.2C1.3,1.163,1.152,2.606.145,3.047c.361.11.073.249.032.441-.017.083.044.19.015.283a1.767,1.767,0,0,1-.526.665l-.709.353a1.107,1.107,0,0,0,.685-.122C.579,4.217,1.617,1.6,1.5.588" transform="translate(1.044 0.409)" fill="#f4efe8"/>
        </g>
        <g id="Group_5694" data-name="Group 5694" transform="translate(50.621 46.755)">
          <path id="Path_8246" data-name="Path 8246" d="M1.722.569C1.673.108,1.466-.586.891-.347c-.01.163.219.044.344.124.2.127.188.855.146,1.089C1.205,1.89-.94,3.9-1.066,1.778c-.314.2,0,1.009.278,1.128C.35,3.391,1.834,1.622,1.722.569" transform="translate(1.198 0.396)" fill="#f4efe8"/>
        </g>
        <g id="Group_5695" data-name="Group 5695" transform="translate(48.457 51.993)">
          <path id="Path_8247" data-name="Path 8247" d="M.8,1.174C1.236.816,2.172-.364,1.444-.817a5.087,5.087,0,0,1-1.7,2.3l-.127-.253-.171.595C-.4,1.969.629,1.311.8,1.174" transform="translate(0.555 0.817)" fill="#f4efe8"/>
        </g>
        <g id="Group_5696" data-name="Group 5696" transform="translate(47.678 49.683)">
          <path id="Path_8248" data-name="Path 8248" d="M.008.76C.33.7.9,1.1,1.178.823a2.046,2.046,0,0,0,.146-.992C1.17-.639.746-.512.347-.515.529-.22-.1.548.008.76" transform="translate(0.005 0.529)" fill="#f4efe8"/>
        </g>
        <g id="Group_5697" data-name="Group 5697" transform="translate(30.83 58.459)">
          <path id="Path_8249" data-name="Path 8249" d="M1.112.9,1.027-.627C.849-.647,1-.374.934-.3.905-.262.6-.257.5-.2.354-.125.3.223.05.221A2.578,2.578,0,0,1-.572-.135c-.068-.119.066-.339-.1-.322C-1.184.547.391.842,1.112.9" transform="translate(0.774 0.628)" fill="#f4efe8"/>
        </g>
        <g id="Group_5698" data-name="Group 5698" transform="translate(34 57.609)">
          <path id="Path_8250" data-name="Path 8250" d="M1.074.957C.487.955-.437.4-.5-.242-1-.191-.625.27-.417.487A2.671,2.671,0,0,0,2.9.648C3.275.37,3.7-.383,3.16-.666,3.382.25,1.771.96,1.074.957" transform="translate(0.747 0.666)" fill="#f4efe8"/>
        </g>
        <g id="Group_5699" data-name="Group 5699" transform="translate(57.469 39.231)">
          <path id="Path_8251" data-name="Path 8251" d="M.6,1.906c-.015-.456.434-.673.641-1.1a2.765,2.765,0,0,0,.124-2.13c-.5.076-.224.631-.249.98C1.031.936.7,1.06-.216,1.721c-.107.076-.236.09-.2.271l.892-.339Z" transform="translate(0.421 1.326)" fill="#f4efe8"/>
        </g>
        <g id="Group_5700" data-name="Group 5700" transform="translate(51.35 43.571)">
          <path id="Path_8252" data-name="Path 8252" d="M1.069,1.446c-.356.268-.877.641-1.3.307l-.512-.631C-.612,2.379.6,2.2,1.408,1.614a2.147,2.147,0,0,0,.738-2.62l-.171.041a2.176,2.176,0,0,1-.907,2.41" transform="translate(0.744 1.006)" fill="#f4efe8"/>
        </g>
        <g id="Group_5701" data-name="Group 5701" transform="translate(54.667 40.885)">
          <path id="Path_8253" data-name="Path 8253" d="M1.508.706A2.808,2.808,0,0,0,1.052-.422C.918-.541.8-.478.652-.444c-.01.151.185.058.3.166a1.631,1.631,0,0,1,.2.563C1.342,1.652.479,3.168-1.049,2.79c.127.327.592.285.9.258.994-.09,1.691-1.436,1.66-2.342" transform="translate(1.049 0.492)" fill="#f4efe8"/>
        </g>
        <g id="Group_5702" data-name="Group 5702" transform="translate(19.658 54.289)">
          <path id="Path_8254" data-name="Path 8254" d="M.915,1.091A2.49,2.49,0,0,0,2.3,1.113L2,.774C1.841,1.144,1.085.923.8.689.749.642.313.126.3.092.24-.04.283-.179.249-.272S.013-.3.169-.5H-.087L0-.079c-.3-.136-.19-.682-.595-.68C-.894-.42.554.947.915,1.091" transform="translate(0.636 0.759)" fill="#f4efe8"/>
        </g>
        <g id="Group_5703" data-name="Group 5703" transform="translate(50.755 49.861)">
          <path id="Path_8255" data-name="Path 8255" d="M.552.982-.384,1.7A2.258,2.258,0,0,0,1.571-.678c-.041-.046-.47.249-.487.271a1.118,1.118,0,0,1-.039.341A10.262,10.262,0,0,1,.552.982" transform="translate(0.384 0.683)" fill="#f4efe8"/>
        </g>
        <g id="Group_5704" data-name="Group 5704" transform="translate(56.538 42.454)">
          <path id="Path_8256" data-name="Path 8256" d="M1,.006C.75-.038.87.072.826.206A4.921,4.921,0,0,1-.059,1.963c-.236.266-.66.4-.639.765C.448,2.54,1.1,1.061,1,.006" transform="translate(0.698 0.004)" fill="#f4efe8"/>
        </g>
        <g id="Group_5705" data-name="Group 5705" transform="translate(23.869 56.92)">
          <path id="Path_8257" data-name="Path 8257" d="M1.755,1.058C1.582.415,1.233.673.787.624A2.239,2.239,0,0,1-.327.12c-.144-.112-.8-.946-.894-.848C-.709.617.458.892,1.755,1.058" transform="translate(1.221 0.736)" fill="#f4efe8"/>
        </g>
        <g id="Group_5706" data-name="Group 5706" transform="translate(32.619 55.644)">
          <path id="Path_8258" data-name="Path 8258" d="M.167.915C.233.873.381.934.471.883A3.709,3.709,0,0,0,.732.505C.759.386.586.174.5.091.189-.192-.045.008.064-.628c-.2-.015-.149-.029-.171.124C-.17-.016.1.705-.018,1.241c.161.015.1-.275.185-.327" transform="translate(0.116 0.637)" fill="#f4efe8"/>
        </g>
        <g id="Group_5707" data-name="Group 5707" transform="translate(28.263 59.395)">
          <path id="Path_8259" data-name="Path 8259" d="M.709.336a1.735,1.735,0,0,0,1.377-.1C1.728-.229,1.655.054,1.36.1A5.072,5.072,0,0,1-.463-.234C-.707.007.612.317.709.336" transform="translate(0.493 0.234)" fill="#f4efe8"/>
        </g>
        <g id="Group_5708" data-name="Group 5708" transform="translate(32.794 59.014)">
          <path id="Path_8260" data-name="Path 8260" d="M.141.539C.38.5,1.611,0,1.355-.334,1.2-.541.6.1.307.2c-.141.046-.448-.1-.4.275.022.163.161.078.234.066" transform="translate(0.098 0.375)" fill="#f4efe8"/>
        </g>
        <g id="Group_5709" data-name="Group 5709" transform="translate(32.971 59.41)">
          <path id="Path_8261" data-name="Path 8261" d="M1.2.092.819-.064.541.258-.838.687C-.168.635.827.752,1.2.092" transform="translate(0.838 0.064)" fill="#f4efe8"/>
        </g>
      </g>
      <g id="Group_5711" data-name="Group 5711" transform="translate(21.485 56.419)">
        <path id="Path_8263" data-name="Path 8263" d="M.568.309,1.73.718,1.416.311-.4-.215Z" transform="translate(0.395 0.215)" fill="#f4efe8"/>
      </g>
      <g id="Group_5736" data-name="Group 5736" transform="translate(0 0)" clip-path="url(#clip-path)">
        <g id="Group_5712" data-name="Group 5712" transform="translate(59.631 38.039)">
          <path id="Path_8264" data-name="Path 8264" d="M.133,0C-.328.383.062,1.187.05,1.7.438,1.3.126.5.133,0" transform="translate(0.092)" fill="#f4efe8"/>
        </g>
        <g id="Group_5713" data-name="Group 5713" transform="translate(17.423 51.909)">
          <path id="Path_8265" data-name="Path 8265" d="M.337.6C.306.433-.016-.408-.131-.418c-.171-.015-.09.2-.046.3A2.331,2.331,0,0,0,.337.6" transform="translate(0.235 0.418)" fill="#f4efe8"/>
        </g>
        <g id="Group_5714" data-name="Group 5714" transform="translate(18.324 25.532)">
          <path id="Path_8266" data-name="Path 8266" d="M.56,0C.148.67-.3.865-.376,1.745A1.694,1.694,0,0,0,.448,3.566C1.83,3.151,2.093,1.711,1.832.429,1.152.565.972.573.56,0" transform="translate(0.39)" fill="#f4efe8"/>
        </g>
        <g id="Group_5715" data-name="Group 5715" transform="translate(28.421 10.579)">
          <path id="Path_8267" data-name="Path 8267" d="M1.105,1.294C1.234.835,1.507-.924.691-.9a2.006,2.006,0,0,0-.912.526c-.573.592-.5,1.163-.548,1.93l.68.838C.128,1.808.964,1.8,1.105,1.294" transform="translate(0.769 0.9)" fill="#f4efe8"/>
        </g>
        <g id="Group_5716" data-name="Group 5716" transform="translate(21.473 17.369)">
          <path id="Path_8268" data-name="Path 8268" d="M.118.736c-.358.853-.344,2.591.946,1.8.931-.575.9-2.186.39-3.044A2.019,2.019,0,0,0,.118.736" transform="translate(0.082 0.512)" fill="#f4efe8"/>
        </g>
        <g id="Group_5717" data-name="Group 5717" transform="translate(23.43 18.109)">
          <path id="Path_8269" data-name="Path 8269" d="M1.207.693A4.466,4.466,0,0,0,.688-.448C.31-.669-.465.237-.618.559c-.195.412-.409,1.782.063,1.986.865.373,1.8-1.077,1.762-1.852" transform="translate(0.84 0.482)" fill="#f4efe8"/>
        </g>
        <g id="Group_5718" data-name="Group 5718" transform="translate(25.205 15.42)">
          <path id="Path_8270" data-name="Path 8270" d="M1.046,1.2A2.894,2.894,0,0,0,.7-.835a2.14,2.14,0,0,0-.938,3.39C.086,2.1.917,1.741,1.046,1.2" transform="translate(0.728 0.835)" fill="#f4efe8"/>
        </g>
        <g id="Group_5719" data-name="Group 5719" transform="translate(23.288 15.065)">
          <path id="Path_8271" data-name="Path 8271" d="M.934,1.522C1.122.567,1.349-.235.649-1.059A2.585,2.585,0,0,0-.628.64c-.112.6.234,1.109.3,1.706Z" transform="translate(0.65 1.059)" fill="#f4efe8"/>
        </g>
        <g id="Group_5720" data-name="Group 5720" transform="translate(28.887 13.389)">
          <path id="Path_8272" data-name="Path 8272" d="M.136.6A5.623,5.623,0,0,0-.093,1.726c.022.236.485.651.424.982A2.014,2.014,0,0,0,1.693.281C1.537-1.089.409-.143.136.6" transform="translate(0.094 0.416)" fill="#f4efe8"/>
        </g>
        <g id="Group_5721" data-name="Group 5721" transform="translate(22.586 23.407)">
          <path id="Path_8273" data-name="Path 8273" d="M.831,0C-.032.726-1.275,2.13-.093,3.129,1.189,3.051,1.81.719.831,0" transform="translate(0.578)" fill="#f4efe8"/>
        </g>
        <g id="Group_5722" data-name="Group 5722" transform="translate(25.641 18.044)">
          <path id="Path_8274" data-name="Path 8274" d="M.294,1.8a2.033,2.033,0,0,0,.96-3.054C.077-.926-.8.948.294,1.8" transform="translate(0.205 1.253)" fill="#f4efe8"/>
        </g>
        <g id="Group_5723" data-name="Group 5723" transform="translate(17.841 22.894)">
          <path id="Path_8275" data-name="Path 8275" d="M.841,1.377A3.13,3.13,0,0,0,.42-.958C-.514-.726-.955,2.566-.207,2.7A3.1,3.1,0,0,0,.841,1.377" transform="translate(0.585 0.958)" fill="#f4efe8"/>
        </g>
        <g id="Group_5724" data-name="Group 5724" transform="translate(26.967 13.378)">
          <path id="Path_8276" data-name="Path 8276" d="M.93,1.308C1.159.413,1.335-.169.662-.91-.729-.583-.917.894-.344,2.054Z" transform="translate(0.647 0.91)" fill="#f4efe8"/>
        </g>
        <g id="Group_5725" data-name="Group 5725" transform="translate(27.298 15.925)">
          <path id="Path_8277" data-name="Path 8277" d="M.851,1.367c-.017-.361.8-2.091-.085-2.315C.527-1.007-.4-.258-.494-.027A2.239,2.239,0,0,0-.243,1.857c.319.261.955-.546,1.07-.434s-.838.758-.936.892A1.932,1.932,0,0,0,.02,4.572a2.753,2.753,0,0,0,1.258-2.2c-.056-.312-.412-.7-.427-1.009" transform="translate(0.592 0.951)" fill="#f4efe8"/>
        </g>
        <g id="Group_5726" data-name="Group 5726" transform="translate(19.537 22.979)">
          <path id="Path_8278" data-name="Path 8278" d="M.32,1.66a1.426,1.426,0,0,0,.531-.115A7.1,7.1,0,0,0,1.563-.348a1.5,1.5,0,0,0-.729-.807c-.232,0-.719.5-.829.7C-.243.015-.455,1.616.32,1.66" transform="translate(0.222 1.155)" fill="#f4efe8"/>
        </g>
        <g id="Group_5727" data-name="Group 5727" transform="translate(24.194 20.5)">
          <path id="Path_8279" data-name="Path 8279" d="M.587.158a3.46,3.46,0,0,0-.6.507c-.336.463-.695,2.091.022,2.289.314.088.9-.509,1.024-.819A2.412,2.412,0,0,0,.879-.1C.653-.159.721.043.587.158" transform="translate(0.408 0.11)" fill="#f4efe8"/>
        </g>
        <g id="Group_5728" data-name="Group 5728" transform="translate(29.047 16.005)">
          <path id="Path_8280" data-name="Path 8280" d="M.093.813c-.2.636-.319,1.248.319,1.66C1.244,1.918,2.275.3,1.349-.566.79-.059.337.036.093.813" transform="translate(0.065 0.566)" fill="#f4efe8"/>
        </g>
        <g id="Group_5729" data-name="Group 5729" transform="translate(20.818 23.415)">
          <path id="Path_8281" data-name="Path 8281" d="M.066,1.7c.271.317,1.009-.227,1.2-.456a2.272,2.272,0,0,0,.183-2.293c-.185-.3-.539-.022-.738.163C.649-.262-.382,1.176.066,1.7" transform="translate(0.046 1.183)" fill="#f4efe8"/>
        </g>
        <g id="Group_5730" data-name="Group 5730" transform="translate(20.752 25.874)">
          <path id="Path_8282" data-name="Path 8282" d="M.52.362c-.2.124-.585.207-.639.253C-.326.789-.648,2.5.149,2.468,1.173,2.429,1.989.54,1.18-.252A5.617,5.617,0,0,1,.52.362" transform="translate(0.362 0.252)" fill="#f4efe8"/>
        </g>
        <g id="Group_5731" data-name="Group 5731" transform="translate(25.984 20.583)">
          <path id="Path_8283" data-name="Path 8283" d="M.758.008C.536-.056.6.125.5.213c-.307.253-.731.453-.875.831-.2.536-.351,2.067.558,1.84.6-.151.987-1.411.9-1.962C1.026.6.763.347.758.008" transform="translate(0.527 0.005)" fill="#f4efe8"/>
        </g>
        <g id="Group_5732" data-name="Group 5732" transform="translate(44.892 28.402)">
          <path id="Path_8284" data-name="Path 8284" d="M2.334.07l-.183.5c-.3,0-.543-.5-.868-.578a4.2,4.2,0,0,0-2.4.37,3.5,3.5,0,0,0-.507.76c.329.373.746.2,1.136.207a16.482,16.482,0,0,0,2.817-.158c.994-.134,2.332.241,2.162-1.2-.717.039-1.44-.007-2.157.1" transform="translate(1.624 0.049)" fill="#f4efe8"/>
        </g>
        <g id="Group_5733" data-name="Group 5733" transform="translate(12.95 4.881)">
          <path id="Path_8285" data-name="Path 8285" d="M11.08,7.966c.195-.29.685-.963.843-1.277C12.616,5.783,13,5.237,13.7,4.337c.331-.424.543-.816.855-1.26l1.163-1.535c1.253-1.935,2.583-3.819,3.917-5.7.2-.28.388-.568.585-.851,0-.007-.548-.175-.619-.2a7.068,7.068,0,0,0-1.209-.278,9.292,9.292,0,0,0-2.493.071A17.565,17.565,0,0,0,9.708-3.352c-.626.363-1.238.756-1.835,1.167A29.834,29.834,0,0,0,3.549,1.481,36.678,36.678,0,0,0-.129,5.88,41.911,41.911,0,0,0-3.1,10.72c-.1.188-.2.38-.3.57-2.557,5.043-4.4,10.578-4.3,16.229C-.887,21.549,6.016,15.485,11.08,7.966m-9.359,9.61a4.152,4.152,0,0,1-1.535,1.1l-.29-.712-.175-.054c-.112.453-1.019.787-1.231,1.111s-.1,1.15-.3,1.489c-.129.229-1.253.89-1.45.765-.546-.748-.79-.8-.57-1.767.044-.195.2-.9.4-.707-.47.758-.4,2.53.853,1.96a1.6,1.6,0,0,0,.756-1.46c.039-.653-.292-.836-.758-1.2-.054-.551.08-1.231,0-1.762-.046-.292-.317-.582-.383-.894A4.263,4.263,0,0,1-2.308,12.7c.195-.292.578-.5.58-.907l.124.682.429.763c.129-.419.834-.743,1.016-1.026a7.232,7.232,0,0,0,.3-1.44c.151-.019.085.193.076.288-.034.319-.224.685-.141,1.009a2.872,2.872,0,0,0,.663.787c.483.227.924-.509.938-.977l.017.612.4,1.175c.107.093.838-.519.938-.636a4.664,4.664,0,0,0,.429-1.95C2.694,10.93,2.691,10.637,2.4,10l-.6.514c-.582-.3-.853-.327-1.311.166-.015-.207.2-.329.173-.551C.637,9.953.442,9.889.42,9.78A3.955,3.955,0,0,1,1.512,6.989c.173-.136.841-.412.887-.475a10.234,10.234,0,0,1,.517-1.355A3.637,3.637,0,0,1,4.11,4.225c.146-.058.1.032.136.1A8.121,8.121,0,0,0,4.7,5.492c.188-.441,1.08-.648,1.275-.851.346-.361.458-2.193-.334-2.125-.475.044-.748.746-1.067,1.019.141-.541.826-1.4,1.445-1.063l.509.977c.041-.448.843-.641.977-.936s-.022-.938.1-1.275A3.269,3.269,0,0,1,9.04-.033c.8-.122.792.419,1.016,1.016.129-.141,1.253-1.623,1.4-1.445l.171.851-.383-.424a4.691,4.691,0,0,0-1.4,2.349c-.034.451.185.456.31.78.08.207.1.953.239.951l.721-.551.512-.809a2.161,2.161,0,0,1-.117.487c-.1.195-.217.392-.319.59-.417.48-.782.166-1.053,1.136-.195.709-.088.729.214,1.36l.168-.119c.112-.151.1.078.068.144a10.389,10.389,0,0,1-1.3,2.276c-.146.18-.356.241-.49.446-.261.392-.4,1.07-.709,1.5-.244.344-.746.646-.96,1-.422.682-.448,1.879-1.616,1.886l-.483-.751c-.266.324-.78.529-.936.933-.334.855,0,1.638-.9,2.423-.263.229-.785.361-.97.561s-.271.7-.512,1.019" transform="translate(7.709 5.543)" fill="#b2d3d3"/>
        </g>
        <g id="Group_5734" data-name="Group 5734" transform="translate(32.581 6.649)">
          <path id="Path_8286" data-name="Path 8286" d="M16.883,12.416c-.066-.495-.144-.987-.239-1.477a24.587,24.587,0,0,0-.763-2.949,25.066,25.066,0,0,0-2.54-5.469A26.906,26.906,0,0,0,4.675-6.1,25.683,25.683,0,0,0-.455-8.571c-.356-.124-.468-.085-.668.19l-.6.838Q-2.759-6.113-3.787-4.684q-1.334,1.85-2.666,3.7Q-7.777.85-9.1,2.684q-.994,1.375-1.986,2.754a5.394,5.394,0,0,0-.665.958,14.123,14.123,0,0,0,2.013.178c.9.049,1.421.027,2.323.073.831.044,1.66.093,2.488.154,2.293.163,4.587.4,6.853.787.612.1,1.223.222,1.83.349A32.245,32.245,0,0,1,14.9,12.36q.556.366,1.089.76c.285.212.69.675,1.019.756a5.7,5.7,0,0,0-.129-1.46" transform="translate(11.747 8.639)" fill="#f4efe8"/>
        </g>
        <g id="Group_5735" data-name="Group 5735" transform="translate(14.878 22.385)">
          <path id="Path_8287" data-name="Path 8287" d="M25.9,3.592A19.614,19.614,0,0,0,19.656.5C13.729-1.412,7.463-1.967,1.253-2.462a3.369,3.369,0,0,0-2.13.3C-1.73-1.607-1.933-.393-2.747.219L9,.134c.268,0,.621.063.658.329.044.3-.353.444-.656.47A52.269,52.269,0,0,1-1.067.845,4.793,4.793,0,0,0-2.756.86,1.519,1.519,0,0,0-3.919,1.969Q.325,1.9,4.565,1.827c.453-.007,1.031.076,1.141.514a28.267,28.267,0,0,1-8.26.212c-.916-.112-2.13-.1-2.415.78q5.308.256,10.624.178c-.763.056-1.984.127-2.747.185h0a25.43,25.43,0,0,0-2.92-.071l.253.085c-.185.351-.568-.017-.826-.066A6.146,6.146,0,0,1-1.5,3.538l-.046.256-.085-.253c-.4.134-1.618-.134-1.36.509l-.3-.168-.468.509.424-.68-.929-.076-.09.158c.037-.263-.229-.158-.429-.168l.088.2c-.246.078-.078.224-.214.39l-.122-.295a4.986,4.986,0,0,1-.795.941,6.915,6.915,0,0,1,2.359.124l.09-.175c.063.317.322.088.59.083.453-.01.909.01,1.362.01l.088-.263.046.258a3.823,3.823,0,0,1,1.014.056c.117,0,.921-.044.97-.054s.051-.173.1-.175c.232-.015.826.314.929-.085.083.275.748.239,1.014.171l.1.151L2.964,4.9v.427l-.219-.246c-.239.151-.185-.068-.268-.088A10.636,10.636,0,0,0,.212,5c-.166.058-.11.336-.439.336-.171,0-.129-.175-.271-.246a10.319,10.319,0,0,0-2.367-.019c-.134.012-.253.063-.383.088l.127.595a2.472,2.472,0,0,0-.329-.429c-.027-.037.029-.141.015-.156C-3.695,4.9-5.157,4.969-6,5.032l-.317.285c-.041.034-.078.071-.119.1l.041.161-.115-.093c-.312.28-.619.565-.931.843.214.029.5-.022.67.093l.037-.163.124.168a5.941,5.941,0,0,1,2.647-.1c.812.136.361.041,1.019-.066.361-.058.8.032,1.175,0l.056-.171.124.171h.173c.054-.273.329,0,.592-.258l-.041.256c1.292.149,2.61-.141,3.914.085l-.024.158c-.058.029-.166-.017-.21.027-.127.134.044.327-.446.327.037-.324.012-.375-.3-.419C1.482,6.365.8,6.482.21,6.429l-.139.429L-.268,6.69l-.256.339c.241-.492.1-.246.034-.358-.051-.085.119-.163-.217-.266a8.27,8.27,0,0,0-2.4.039,1.91,1.91,0,0,0-.31.288l.256.044-.256.085.044.509c-.207-.183-.124-.6-.334-.773-.446-.353-1.977-.1-2.542-.146-.349.071-.285.29-.317.578H-6.99c.185-.351,0-.456-.329-.543a1.924,1.924,0,0,0-.241-.051c-.093.083-.185.163-.28.244-.414.344-.831.682-1.233,1.041l.08,0c.292-.007.59-.124.812.078L-8.1,7.54l.136.251c.346-.166.271.071.346.088a3.706,3.706,0,0,0,1.389-.085l-.085-.168c.041-.032.8.451.853-.085.151-.037.054.139.083.168.183.173.134-.212.253-.168l.056.171c.529-.171,1.628.5,1.821-.085.11.046.158.141.3.168a14.211,14.211,0,0,0,1.453-.032c.1-.049.1-.2.166-.227.229-.071.18.134.314.2.578.278.9-.107,1.384-.107H1.942l0-.171.168.253H.539c-.356,0-.938.414-1.111.429s-.466-.224-.76-.258c-.851-.093-2.111.29-2.64.217a4.667,4.667,0,0,0-.7-.278A5.947,5.947,0,0,0-6.5,7.989c-.436.066-.241.249-.536.573-.349.007.141-.334.044-.427a6.994,6.994,0,0,0-2.25-.266c-.061.049-.219.146-.349.239a3.8,3.8,0,0,0-.621.539,1.4,1.4,0,0,1,.146.536l.117.085a7.821,7.821,0,0,1,2.408.017c.171.032.458.2.6.2.034,0,.019-.139.1-.161a16.437,16.437,0,0,1,2.191,0l.09-.261c0,.288.249.336.514.344.288.007.448-.132.587-.134.621-.012,1.362-.044,1.962-.039.3,0,.69.256.851.251s.246-.175.378-.212c.831-.232,1.708.09,2.386-.38l-.085.253c.407.037.565.5.936.173.166.2-1.053,1.133-.846,1.526a1.274,1.274,0,0,0,.846,0,.23.23,0,0,0-.024.024c-.336.312-.11.741-.529,1,0-.346.168-.678-.246-.858a10.4,10.4,0,0,0-2.308-.08c-.658.078-.8.894-1.314,1.236.31.373.719.185,1.055.212a7.868,7.868,0,0,0,1.026.085,6.373,6.373,0,0,0,1.36-.256l-.041.171.921-.1c.007.085.012.154.012.2l-.485.183-.107.741-.219-.587a.559.559,0,0,0-.266-.244c-.624-.18-1.672.173-2.349.083l-1.08,1.133c-.049.2.407.329.548.3l4-.244v.158a1.433,1.433,0,0,0-.456.217c-.28.239-.427.994-.855.929.261-.2.69-.814.195-.96a13.95,13.95,0,0,0-2.771.066l-.234,1.024c-.317-.168.041-.514-.127-.853a1.278,1.278,0,0,0-.451-.314,7.647,7.647,0,0,0-2.335,0c-.8.132-.646.663-.658,1.255a4.935,4.935,0,0,0,3,.063c.168-.061.21-.258.4-.232-.01.2-.392.3-.424.341-.368.412.763-.08.812-.083.275-.017.731.1,1.1.085.678-.029.943-.261,1.574.037.278.134.741-.119,1.126-.146,0,.007,0,.015,0,.019H4.709c.285,0,.968-.99.9-1.3a2.148,2.148,0,0,0-.3-.227H3.475l1.611-.3a1.211,1.211,0,0,0,.436-1c-.519-.446-1.182-.132-1.747-.139-.085,0-.388-.037-.385-.173a4.621,4.621,0,0,0,1.955-.256c.1.748.641.275,1.011.219.578-.088,1.713.058,2.172-.229.378-.234.758-1.053,0-1.177a12.305,12.305,0,0,0-2.033,0c-.6.1-.458.756-.558.848-.017.015-.271-.149-.424.083-.078-.1.329-.419.09-.814s-1.8-.115-2.469-.112v-.051a7.62,7.62,0,0,0,2.013-.28,2.822,2.822,0,0,0,.609-.841c.051-.519-1.872-.28-2.622-.171V9.3L5.13,9.066l.938.4.424-.317c.631.09,1.416-.083,2.016-.029.278.022.558.251.709.258s.4-.178.6-.214c1.243-.217,2.081.21,2.671-1.282-.239-.307-2.581-.154-2.927.09-.18.127-.319.714-.729.758-.11-.127.49-.558.032-.841a5.656,5.656,0,0,0-2.4.054c-.278.119-.222.361-.366.485-.1.085-.385.146-.5.3-.1-.119.448-.441.175-.814-.356-.487-2.22.056-2.22-.163.68-.251,1.66.088,2.116-.609.18-.28.329-.7-.115-.795-.541-.115-1.772.068-2.42.01v-.1c.234.022.6,0,.726,0,.492,0,1.231-.188,1.687-.171.051,0,.051.139.115.163.5.2.79-.041,1.255-.076a13.674,13.674,0,0,0,1.728-.1c.078-.173.692-.977.314-1.089a18.075,18.075,0,0,0-2.213,0c-.08,0-.183.054-.292,0,.01.5-.21.334-.3.419-.132.129-.18.436-.385.514l.253-.553c-.256-.1-.027-.251-.378-.388-.441-.175-.636,0-1.021.01S3.59,4.915,3.142,4.9V4.747c2.047.032,4.4.1,6.424.132a3.976,3.976,0,0,0,1.645-.21c.487-.212.87-.612,1.336-.865a5.143,5.143,0,0,1,2.51-.407l10.134.08q-.2.72-.4,1.44a4.266,4.266,0,0,0-3.224.972,1.418,1.418,0,0,0-1.538-1.055,2.221,2.221,0,0,0-1.613,1.138q2.647.212,5.308.285a5.632,5.632,0,0,0-1.128.11,1.848,1.848,0,0,0-1.082,1.167c.3.056.58.319.887.329a11.873,11.873,0,0,0,1.818-.3c.3-.1.785-.685.687-.992-.063-.195-.419-.28-.838-.307.785.019,1.567.034,2.349.037a3.288,3.288,0,0,0-1.791,1.328,3.824,3.824,0,0,0,1.786.349A2.189,2.189,0,0,0,25.133,9.77a2.969,2.969,0,0,0-3.117.958,1.358,1.358,0,0,1,.821.782,3.533,3.533,0,0,0-3.931.675q.548.406,1.1.809a4.352,4.352,0,0,0-4.37.731l.994.673a4.907,4.907,0,0,0-5,1.1q.413-.629.826-1.262a3.6,3.6,0,0,0-3.768,1.148c.487.056.972.115,1.46.173a32.423,32.423,0,0,1-4.35.175l.078-.185c.819-.073,2.588.251,2.988-.714.539-1.306-2.062-.692-2.683-.726l-.916,1.219.346.4c-.773-.027-1.543-.078-2.31-.161-.063.263-.129.526-.195.79-.032-.246-.063-.49-.1-.734q-4.113.2-8.223.4c.124-.2.251-.4.375-.6l-1.294-.007a1.4,1.4,0,0,0,.653-.227c.349-.249.475-.838.129-1.089.361-.1.721-.207,1.082-.31-.736-.926-2.069-1.055-3.251-1.089-1.777-.054-3.556-.061-5.335-.068-.653,0-1.509.163-1.582.812a3.059,3.059,0,0,0-.222-.855,3.272,3.272,0,0,0-.232-.78l-1.072.522c-.346.158-1.014.568-1.338.753s-.965.573-.609,1.026a1.176,1.176,0,0,0,.609.341,56.992,56.992,0,0,0,31.257.807c4.553-1.16,9.091-2.942,12.491-6.181a3.984,3.984,0,0,0,1.294-1.938C28.03,5.763,27,4.464,25.9,3.592M2.666,8.22c-.178.161-.28.368-.468.509.054-.383.451-.573.085-.933.251.046.446.141.68.041v.229a1.084,1.084,0,0,0-.3.154m9.317-4.509H9.815c-.251,0-.468.436-.724.509,0-.19.127-.66-.139-.753a14.79,14.79,0,0,0-1.774.073,2.436,2.436,0,0,0-1.574.68c.373-1.253,2.388-1.358,3.151-1.25l.573.222c.056.046.185.434.232.434h2.425ZM-6.7,13.9c-.777.071-1.582.363-1.618,1.089-.068-.317-.134-.634-.2-.948l-.982-.08c.931-.066,1.867-.085,2.8-.061m-7.265.185.212-.253c.08-.015.024.119.058.144a10.708,10.708,0,0,0,1.292-.1c.107.007.193-.037.224.124Zm2.552.6-.68-.6.173-.132,1.528-.037-1.275.256Z" transform="translate(18.021 2.499)" fill="#b2d3d3"/>
        </g>
      </g>
    </g>
  </g>
</svg>
