<svg xmlns="http://www.w3.org/2000/svg" xmlns:xlink="http://www.w3.org/1999/xlink" width="42.521" height="68.129" viewBox="0 0 42.521 68.129">
  <defs>
    <clipPath id="clip-path">
      <path id="Path_8142" data-name="Path 8142" d="M0,34.655H42.521V-33.474H0Z" transform="translate(0 33.474)" fill="none"/>
    </clipPath>
  </defs>
  <g id="Group_7156" data-name="Group 7156" transform="translate(-534.778 -3781.506)">
    <g id="Group_5600" data-name="Group 5600" transform="translate(534.778 3781.505)">
      <g id="Group_5591" data-name="Group 5591" transform="translate(0 0)" clip-path="url(#clip-path)">
        <g id="Group_5588" data-name="Group 5588" transform="translate(0 0.001)">
          <path id="Path_8139" data-name="Path 8139" d="M17.44,3.443l.187,2.864,7.811,6.21.238.6L25.6,64.37a1.053,1.053,0,0,1-.482.283,31.143,31.143,0,0,1-5.221.083A1.2,1.2,0,0,1,19,64.421l-2.546-15.7-4.712,5.615c-.083.415.191.256.484.275,1.036.065,2.862-.3,2.862,1.2,0,1.9-3.6.967-4.9,1.217A6.069,6.069,0,0,1-.147,59.4c-1.213-1.368-.92-2.218-1.59-3.48a68.544,68.544,0,0,0-5.389-6.733c-.187-.179-.254-.35-.584-.279l-2.31,15.23a.92.92,0,0,1-.364.395,23.374,23.374,0,0,1-5.967.106,1.6,1.6,0,0,1-.491-.46l0-51.344c2.182-2.121,4.913-3.761,7.172-5.8,1.427-1.286.936-1.8.981-3.592-.8.053-2.133,0-2.312-.863a24.163,24.163,0,0,1,.1-5.351,1.028,1.028,0,0,1,.491-.46l29.288-.1c.442.132.828.336.922.792a35.586,35.586,0,0,1,0,5.145c-.181.871-1.581.867-2.355.832m0-4.417H-8.694V1.052H17.442ZM15.083,3.443H-6.335V5.652H15.083Zm6.092,8.835L15.569,7.866c-7.588.1-15.257-.23-22.8.169l-5,4.244Zm2.161,2.208H-14.588V39.8c6.745,5.735,17.255,6.894,25.976,5.375A24.516,24.516,0,0,0,23.336,39.8ZM-14.588,43.018V62.526l2.227.008.234-.362L-9.7,45.429Zm37.924,0L18.616,45.5l-.2.37,2.571,16.649,2.349.008ZM14.885,46.7a42.6,42.6,0,0,1-21.025,0l5.208,6.438A6.334,6.334,0,0,1,7.68,51.147c.521.324,1.958,2,2.194,1.995Zm-7.27,7.913C6.262,51.226.925,52.03.923,55.809c0,3.8,5.353,4.583,6.692,1.195H4.373a1.2,1.2,0,0,1,0-2.391Z" transform="translate(16.845 3.326)" fill="#827593"/>
        </g>
        <g id="Group_5589" data-name="Group 5589" transform="translate(2.257 17.814)">
          <path id="Path_8140" data-name="Path 8140" d="M19.291,0V25.309A24.534,24.534,0,0,1,7.343,30.684c-8.721,1.516-19.231.358-25.976-5.375V0ZM-16.028,8.6a1.3,1.3,0,0,0,2.1-.6,28.727,28.727,0,0,0-.006-4.771,1.178,1.178,0,0,0-2.334,0c-.114.69-.108,5.033.236,5.371M-1,9.067C-9.2,10.174-8.4,22.553.491,22.384,10.311,22.2,9.5,7.649-1,9.067M-16.028,24.248a1.276,1.276,0,0,0,2.121-.771c-.377-3.513.466-7.838,0-11.247a1.224,1.224,0,0,0-2.265-.446c.069,3.666-.444,7.873-.112,11.508a1.567,1.567,0,0,0,.256.957" transform="translate(18.633)" fill="#b2d3d3"/>
        </g>
        <g id="Group_5590" data-name="Group 5590" transform="translate(4.614 11.16)">
          <path id="Path_8141" data-name="Path 8141" d="M16.992,2.261H-16.413l5-4.244c7.543-.4,15.212-.065,22.8-.171Z" transform="translate(16.413 2.184)" fill="#c12b30"/>
        </g>
      </g>
      <g id="Group_5592" data-name="Group 5592" transform="translate(2.256 46.343)">
        <path id="Path_8143" data-name="Path 8143" d="M0,0,4.889,2.414,2.461,19.154l-.234.364L0,19.51Z" fill="#c12b30"/>
      </g>
      <g id="Group_5593" data-name="Group 5593" transform="translate(35.261 46.343)">
        <path id="Path_8144" data-name="Path 8144" d="M2.5,0V19.51L.154,19.5-2.417,2.851l.2-.368Z" transform="translate(2.417)" fill="#c12b30"/>
      </g>
      <path id="Path_8145" data-name="Path 8145" d="M4.005-30.293H30.138v-2.025H4.005Z" transform="translate(4.146 34.671)" fill="#b7dd5e"/>
      <path id="Path_8146" data-name="Path 8146" d="M26.581-27.939H5.164v-2.208H26.581Z" transform="translate(5.346 36.918)" fill="#b7dd5e"/>
      <g id="Group_5599" data-name="Group 5599" transform="translate(0 0)" clip-path="url(#clip-path)">
        <g id="Group_5594" data-name="Group 5594" transform="translate(17.769 55.798)">
          <path id="Path_8147" data-name="Path 8147" d="M3.4,1.089H.162a1.2,1.2,0,0,0,0,2.394H3.4c-1.339,3.387-6.692,2.6-6.692-1.2,0-3.78,5.337-4.583,6.692-1.2" transform="translate(3.288 1.052)" fill="#b7dd5e"/>
        </g>
        <g id="Group_5595" data-name="Group 5595" transform="translate(14.2 26.784)">
          <path id="Path_8148" data-name="Path 8148" d="M2.9.05c10.5-1.419,11.308,13.13,1.488,13.317C-4.5,13.535-5.306,1.157,2.9.05m5.546,8.6c2-4.14-2.969-8.322-6.973-5.522-4.655,3.256.075,9.961,5.007,7.27,0-.228-3.079-2.611-3.387-3.271-.529-1.14.629-1.986,1.815-1.51.545.218,2.233,2.239,2.949,2.758.2.142.25.356.588.275" transform="translate(2.797 0.048)" fill="#c12b30"/>
        </g>
        <g id="Group_5596" data-name="Group 5596" transform="translate(4.493 29.008)">
          <path id="Path_8149" data-name="Path 8149" d="M.187,6.641a1.569,1.569,0,0,1-.254-.957C-.4,2.049.112-2.158.043-5.823a1.224,1.224,0,0,1,2.265.446c.466,3.409-.377,7.734,0,11.247a1.276,1.276,0,0,1-2.121.771" transform="translate(0.181 6.414)" fill="#605477"/>
        </g>
        <g id="Group_5597" data-name="Group 5597" transform="translate(4.56 20.026)">
          <path id="Path_8150" data-name="Path 8150" d="M.154,3.251C-.19,2.913-.2-1.43-.081-2.12a1.177,1.177,0,0,1,2.332,0A28.927,28.927,0,0,1,2.26,2.649a1.3,1.3,0,0,1-2.107.6" transform="translate(0.148 3.14)" fill="#605477"/>
        </g>
        <g id="Group_5598" data-name="Group 5598" transform="translate(16.562 29.053)">
          <path id="Path_8151" data-name="Path 8151" d="M4.516,3.271c-.338.081-.393-.132-.588-.275C3.21,2.479,1.522.456.979.239-.208-.238-1.366.611-.836,1.751c.307.659,3.383,3.041,3.387,3.269C-2.381,7.71-7.111,1.006-2.457-2.251c4-2.8,8.976,1.382,6.973,5.522" transform="translate(4.362 3.16)" fill="#3a2856"/>
        </g>
      </g>
    </g>
  </g>
</svg>
