<svg xmlns="http://www.w3.org/2000/svg" xmlns:xlink="http://www.w3.org/1999/xlink" width="56.698" height="52.92" viewBox="0 0 56.698 52.92">
  <defs>
    <clipPath id="clip-path">
      <path id="Path_7844" data-name="Path 7844" d="M0,21.736H56.7v-52.92H0Z" transform="translate(0 31.184)" fill="none"/>
    </clipPath>
  </defs>
  <g id="Group_7154" data-name="Group 7154" transform="translate(-286.285 -3781.505)">
    <g id="Group_5291" data-name="Group 5291" transform="translate(286.285 3781.505)" clip-path="url(#clip-path)">
      <g id="Group_5223" data-name="Group 5223" transform="translate(32.045 7.715)">
        <path id="Path_7776" data-name="Path 7776" d="M6.235,1.987a3.126,3.126,0,0,1-.616,1.086.153.153,0,0,0-.019.216q.756,1.168,1.505,2.34a.187.187,0,0,0,.221.09,2.835,2.835,0,0,1,2.34.625A2.868,2.868,0,0,1,10.755,8.4a2.833,2.833,0,0,1-.28,1.446A2.673,2.673,0,0,1,9.5,10.985a2.825,2.825,0,0,1-2.467.344,2.887,2.887,0,0,1-2-3.46,2.794,2.794,0,0,1,.448-.983.171.171,0,0,0,.007-.212Q4.73,5.488,3.977,4.3c-.051-.08-.1-.078-.182-.056a3.565,3.565,0,0,1-2.171-.1A3.466,3.466,0,0,1-.086,2.836a.177.177,0,0,0-.243-.078q-1.283.4-2.569.8a.256.256,0,0,0-.216.253A2.844,2.844,0,0,1-5.949,6.4a2.9,2.9,0,0,1-2.145-.864,2.754,2.754,0,0,1-.849-1.914A2.874,2.874,0,0,1-6.857.72,2.9,2.9,0,0,1-4.994.786a2.842,2.842,0,0,1,1.227.872.2.2,0,0,0,.241.076Q-2.2,1.322-.879.923c.112-.034.139-.085.141-.2a3.589,3.589,0,0,1,.8-2.235,3.407,3.407,0,0,1,2.05-1.263,3.526,3.526,0,0,1,2.914.645A3.505,3.505,0,0,1,6.453.446a3.215,3.215,0,0,1-.217,1.541M5.144,3.379a.168.168,0,0,0-.114.058c-.046.051-.015.1.014.141l.541.852q.491.771.981,1.546c.042.068.08.075.151.044.151-.063.105-.144.042-.241-.506-.784-1.054-1.538-1.544-2.33-.015-.027-.027-.058-.071-.07m-9.7-.426c-.017-.124.059-.258-.058-.365a.3.3,0,0,0-.382-.049,3.7,3.7,0,0,0-.344.207.159.159,0,0,0-.051.239,1.193,1.193,0,0,0,.409.372.09.09,0,0,0,.126-.022c.1-.122.2-.251.3-.382M9,7.834a.618.618,0,0,0,.263.647.208.208,0,0,0,.288-.137.764.764,0,0,0-.051-.5c-.046-.131-.11-.238-.266-.241s-.192.119-.234.231" transform="translate(8.945 2.851)" fill="#b8dd5e"/>
      </g>
      <g id="Group_5224" data-name="Group 5224" transform="translate(33.901 30.293)">
        <path id="Path_7777" data-name="Path 7777" d="M2.579,2.371c-.389-.188-.268-.793.02-1.21.231-.336.165-.538-.132-.774Q.266-1.366-1.916-3.146c-.367-.3-.611-.4-.964.051s-.139.635.188.9Q-.658-.548,1.349,1.131c.6.5.587.538-.054.916-1.521.9-3.046,1.787-4.584,2.652-.445.251-.529.473-.253.932.339.565.669.238.988.059A49.323,49.323,0,0,1,2.114,3.045a3.581,3.581,0,0,1,.462-.176c.129-.056.2-.4,0-.5" transform="translate(3.701 3.402)" fill="#f4efe8"/>
      </g>
      <g id="Group_5225" data-name="Group 5225" transform="translate(43.823 36.216)">
        <path id="Path_7778" data-name="Path 7778" d="M3.314.511c.051-.526-.175-.643-.623-.684C.909-.336-.873-.506-2.65-.706c-.582-.066-.986-.071-.967.706.007.339-.513.265-.862.468-.156.092-.344.307-.249.511a2.978,2.978,0,0,1,.253.546c.619,1.724,1.23,3.452,1.816,5.188.149.441.339.541.776.385.419-.153.524-.319.365-.772C-2.127,4.6-2.67,2.846-3.267,1.115-3.444.6-3.313.5-2.811.545c1.782.168,3.565.3,5.347.467.412.037.723.066.777-.5" transform="translate(4.754 0.733)" fill="#f4efe8"/>
      </g>
      <g id="Group_5226" data-name="Group 5226" transform="translate(36.101 26.244)">
        <path id="Path_7779" data-name="Path 7779" d="M6.539,4.309C6.5,3.172,6.5,3.167,5.473,3.074,3.779,2.919,2.086,2.753.389,2.636-.153,2.6-.4,2.429-.277,1.877a.482.482,0,0,0-.385-.648C-1.256,1.073-1.183.7-1.015.255c.636-1.7,1.254-3.4,1.884-5.1.137-.368.188-.664-.282-.854-.44-.178-.658-.134-.828.361C-.833-3.6-1.483-1.885-2.087-.152c-.175.5-.39.779-.959.523a.608.608,0,0,0-.793.294c-.3.417-.584.339-.937.044Q-6.9-1.086-9.055-2.849c-.324-.265-.457-.492-.161-.879.311-.406.563-.363.925-.066C-6.91-2.659-5.5-1.554-4.122-.415c.419.344.579.244.8-.217.8-1.633,1.264-3.391,1.924-5.074.178-.455.351-.538.82-.438a9.11,9.11,0,0,1,2.227.818c.431.217.526.434.36.877C1.39-2.771.806-1.077.18.6c-.2.536-.1.752.5.8,1.762.146,3.518.355,5.278.494.541.042.742.214.679.765-.059.511.238,1.035-.1,1.65" transform="translate(9.381 6.182)" fill="#f4efe8"/>
      </g>
      <g id="Group_5227" data-name="Group 5227" transform="translate(33.005 41.673)">
        <path id="Path_7780" data-name="Path 7780" d="M.591,1.255c-.048.21-.122.533-.193.855a.814.814,0,0,1-.4.65.812.812,0,0,1-.7.078c-.278-.144-.075-.4-.036-.591.226-1.142.455-2.284.709-3.421C.026-1.423-.017-1.852.4-1.8c.355.048.837.008.937.543.081.443.363.482.74.4.781-.168,1.023.064.859.84C2.717,1,2.488,2.012,2.232,3.017c-.061.243.073.779-.417.619a.765.765,0,0,1-.57-.976c.188-.677.324-1.371.484-2.057C1.747.517,1.786.436,1.8.349c.061-.372.339-.865-.226-1.006C.985-.8,1.048-.2.937.137A6.579,6.579,0,0,1,.591,1.255" transform="translate(0.848 1.801)" fill="#f4efe8"/>
      </g>
      <g id="Group_5228" data-name="Group 5228" transform="translate(46.778 42.809)">
        <path id="Path_7781" data-name="Path 7781" d="M2.379.712a1.132,1.132,0,0,1-1.7.338A13.966,13.966,0,0,0-1.367.135c-.249-.105-.523-.192-.686.137-.175.356.059.569.334.672.789.3,1.449.842,2.23,1.151a.691.691,0,0,1,.5.689c.012.421-.112.592-.538.414C-.661,2.725-1.8,2.263-2.93,1.768c-.214-.092-.592-.193-.453-.536.12-.3.183-.733.641-.743.5-.01.555-.29.546-.7-.017-.735.311-.969,1-.7A32.249,32.249,0,0,1,2.379.712" transform="translate(3.413 1.022)" fill="#f4efe8"/>
      </g>
      <g id="Group_5229" data-name="Group 5229" transform="translate(40.034 44.902)">
        <path id="Path_7782" data-name="Path 7782" d="M.87.877C.551,1.43.242,1.989-.092,2.532c-.26.423-.675.238-1.022.182-.243-.037-.1-.244-.031-.368C-.54,1.227.057.105.678-1a.617.617,0,0,1,1.037.059c.255.484.5.618.969.277.334-.244.628.025.9.19.339.205.117.467.015.691C3.087,1.339,2.282,2.3,1.782,3.435c-.078.175-.212.463-.49.231C1.059,3.472.678,3.329.9,2.881c.358-.726.7-1.461,1.044-2.194.083-.178.176-.355.248-.538a.358.358,0,0,0-.16-.507A.405.405,0,0,0,1.5-.265,3.037,3.037,0,0,0,.87.877" transform="translate(1.248 1.259)" fill="#f4efe8"/>
      </g>
      <g id="Group_5230" data-name="Group 5230" transform="translate(34.874 23.084)">
        <path id="Path_7783" data-name="Path 7783" d="M.878,1.813c-.219-.051-.533-.139-.7.358s-.664.36-1.022.358c-.343,0-.238-.37-.248-.587-.056-1.166-.1-2.333-.124-3.5-.005-.231-.207-.64.317-.618.4.017.745.1.723.635A14.454,14.454,0,0,0,.1.873c.037.292-.071.759.455.716S.974,1.1.962.768C.935.085.867-.593.832-1.276A2.284,2.284,0,0,1,.872-2a.813.813,0,0,1,.718-.6c.336,0,.221.411.236.645C1.9-.9,1.943.152,2.009,1.2c.046.75-.277.971-1.132.609" transform="translate(1.259 2.601)" fill="#f4efe8"/>
      </g>
      <g id="Group_5231" data-name="Group 5231" transform="translate(47.27 24.191)">
        <path id="Path_7784" data-name="Path 7784" d="M.667,1.316a3.9,3.9,0,0,0,.4-.12Q2.287.687,3.5.166c.248-.105.49-.239.74-.022.161.141.431.222.416.475-.015.229-.273.265-.448.343C3.2,1.4,2.188,1.837,1.176,2.273c-.587.253-.867.1-.928-.541C.206,1.284.358.8-.434.843-.74.863-.858.322-.945-.009c-.076-.29.224-.351.414-.426,1.125-.45,2.254-.893,3.389-1.312.188-.07.489-.312.614.063a.619.619,0,0,1-.285.85C2.337-.413,1.494.021.647.452.469.542.267.626.328.887a.541.541,0,0,0,.339.429" transform="translate(0.957 1.888)" fill="#f4efe8"/>
      </g>
      <g id="Group_5232" data-name="Group 5232" transform="translate(41.689 38.096)">
        <path id="Path_7785" data-name="Path 7785" d="M.286,0c.37,0,.457.266.552.552C1.4,2.269,1.981,3.981,2.546,5.7a2.307,2.307,0,0,0,.445.879C1.676,6.8,1.677,6.8,1.255,5.586Q.524,3.5-.21,1.407C-.532.487-.532.487.3,0Z" transform="translate(0.41 0.002)" fill="#f4efe8"/>
      </g>
      <g id="Group_5233" data-name="Group 5233" transform="translate(35.087 37.484)">
        <path id="Path_7786" data-name="Path 7786" d="M2.392,0a1.873,1.873,0,0,1,.54.854c.081.243-.173.321-.341.417C.939,2.21-.709,3.153-2.365,4.083c-.582.326-.781.226-1.023-.4a.35.35,0,0,1,.16-.5Q-.569,1.634,2.095.09a1.33,1.33,0,0,1,.3-.09" transform="translate(3.431)" fill="#f4efe8"/>
      </g>
      <g id="Group_5234" data-name="Group 5234" transform="translate(28.761 37.934)">
        <path id="Path_7787" data-name="Path 7787" d="M1.751.117a1.375,1.375,0,0,0,.27.72c.326.35.122.776-.076,1.1-.187.307-.484.039-.714-.034Q-.4,1.39-2.03.839C-2.264.759-2.614.7-2.483.324a.6.6,0,0,1,.759-.468C-.847.075.04.262.906.521c.46.136.723.058.854-.406Z" transform="translate(2.512 0.168)" fill="#f4efe8"/>
      </g>
      <g id="Group_5235" data-name="Group 5235" transform="translate(29.407 29.513)">
        <path id="Path_7788" data-name="Path 7788" d="M1.719.877C1.658.191,1.292.048.645.16-.156.3-.977.3-1.787.4c-.526.063-.582-.35-.662-.657-.105-.394.278-.309.485-.344Q-.207-.912,1.558-1.19c.217-.034.548-.185.643.122.105.338.29.816-.046,1.049-.365.249-.344.579-.446.9Z" transform="translate(2.467 1.258)" fill="#f4efe8"/>
      </g>
      <g id="Group_5236" data-name="Group 5236" transform="translate(52.143 37.194)">
        <path id="Path_7789" data-name="Path 7789" d="M0,.67C.075.494.306.353.206.141-.081-.473.5-.6.771-.881c.182-.187.312-.01.429.126C2.095.28,2.78,1.466,3.61,2.551c.122.16.16.317-.061.434-.312.168-.626.243-.9-.063-.382-.426-.755-.86-1.129-1.293A6.537,6.537,0,0,1,.887.869.576.576,0,0,0,0,.669Z" transform="translate(0.001 0.962)" fill="#f4efe8"/>
      </g>
      <g id="Group_5237" data-name="Group 5237" transform="translate(42.733 21.142)">
        <path id="Path_7790" data-name="Path 7790" d="M.345,1.81C.864,1.54.889,1.182.608.7.221.034.088-.748-.356-1.389a.752.752,0,0,1-.137-.433.857.857,0,0,1,.546-.762c.241-.083.268.285.367.463Q1.3-.54,2.166,1.054c.107.2.358.433.068.63s-.731.531-.933.3C.966,1.611.654,1.857.341,1.8Z" transform="translate(0.494 2.596)" fill="#f4efe8"/>
      </g>
      <g id="Group_5238" data-name="Group 5238" transform="translate(52.563 31.798)">
        <path id="Path_7791" data-name="Path 7791" d="M1.682.24a2.584,2.584,0,0,1-.192.21C.538,1.333-.419,2.214-1.369,3.1c-.2.187-.416.316-.589.007-.163-.29-.721-.562-.3-.93C-1.288,1.32-.253.53.777-.259c.26-.2.552-.008.806.122.132.068.18.188.1.377" transform="translate(2.413 0.345)" fill="#f4efe8"/>
      </g>
      <g id="Group_5239" data-name="Group 5239" transform="translate(51.699 29.952)">
        <path id="Path_7792" data-name="Path 7792" d="M1.354.007c.272.129.288.918.008,1.171C.747,1.741.114,2.286-.5,2.851c-.214.2-.489.328-.54.7-.037.287-.38.143-.516.064A.659.659,0,0,1-1.9,2.785a.855.855,0,0,1,.248-.3Q-.356,1.314.942.154c.114-.1.238-.205.412-.148" transform="translate(1.943 0.01)" fill="#f4efe8"/>
      </g>
      <g id="Group_5240" data-name="Group 5240" transform="translate(29.285 35.814)">
        <path id="Path_7793" data-name="Path 7793" d="M1.539.988a.852.852,0,0,0-.725-.5A21.584,21.584,0,0,1-1.826-.368c-.516-.149-.3-.619-.378-.952-.029-.119.154-.105.261-.078A15.634,15.634,0,0,1,.337-.742a5.025,5.025,0,0,0,1,.328c.309.063.711.037.765.482A.8.8,0,0,1,1.53.989l.008,0" transform="translate(2.208 1.417)" fill="#f4efe8"/>
      </g>
      <g id="Group_5241" data-name="Group 5241" transform="translate(29.52 31.647)">
        <path id="Path_7794" data-name="Path 7794" d="M1.669,0c.372,0,.477.209.485.552a.438.438,0,0,1-.419.5c-1.259.2-2.523.378-3.786.558-.143.02-.39.029-.334-.185.083-.314.032-.757.5-.842C-1.259.466-.629.354,0,.281A7.391,7.391,0,0,0,1.679,0Z" transform="translate(2.394 0.002)" fill="#f4efe8"/>
      </g>
      <g id="Group_5242" data-name="Group 5242" transform="translate(51.057 38.824)">
        <path id="Path_7795" data-name="Path 7795" d="M.446,0C.3.377.532.63.736.891c.46.591.928,1.176,1.376,1.775a1,1,0,0,1,.3.714c-.032.26-.068.585-.317.691-.265.11-.319-.238-.455-.389A18.852,18.852,0,0,1-.325,1.118C-.457.91-.761.752-.588.433A.777.777,0,0,1,.183.019,1.981,1.981,0,0,0,.448,0Z" transform="translate(0.64)" fill="#f4efe8"/>
      </g>
      <g id="Group_5243" data-name="Group 5243" transform="translate(40.622 22.115)">
        <path id="Path_7796" data-name="Path 7796" d="M1.21,1.406a.635.635,0,0,1-.579.677c-.455.1-.5-.255-.635-.511C-.518.6-1.03-.37-1.527-1.35c-.087-.171-.368-.429-.085-.555s.767-.217.9.109A9.538,9.538,0,0,1,.254.161a2.7,2.7,0,0,0,.959,1.254Z" transform="translate(1.736 2.018)" fill="#f4efe8"/>
      </g>
      <g id="Group_5244" data-name="Group 5244" transform="translate(0.307 13.683)">
        <path id="Path_7797" data-name="Path 7797" d="M1.874.718C1.654.63,1.6.725,1.552.946a.535.535,0,0,1-.869.35c-.183-.11-.261-.11-.421.048a.554.554,0,0,1-.981-.175c-.092-.2-.144-.16-.3-.1-.5.183-.852-.053-.845-.575,0-.185.027-.285-.219-.272a.533.533,0,0,1-.608-.57.534.534,0,0,1,.56-.577c.373-.01.569.221.585.594.008.146.01.3.205.311.322.017.45.341.65.434A1.974,1.974,0,0,0,.5.481c.207-.046.389-.3.665-.222.193.056.263-.019.263-.2A.214.214,0,0,1,1.435.012c.037-.163.158-.377.272-.353.65.146.725-.759,1.305-.686a.546.546,0,0,1,.526.563A.511.511,0,0,1,3,.119c-.251,0-.392.041-.492.3a.536.536,0,0,1-.633.3" transform="translate(2.689 1.03)" fill="#c32b2f"/>
      </g>
      <g id="Group_5245" data-name="Group 5245" transform="translate(10.005 20.621)">
        <path id="Path_7798" data-name="Path 7798" d="M.53,0a.561.561,0,0,1,.575.4.533.533,0,0,1-.268.682C.62,1.2.544,1.293.63,1.548c.126.37-.27.524-.37.774-.083.209.263.548.048.862a.542.542,0,0,1-.569.251.574.574,0,0,1-.468-.414A.5.5,0,0,1-.513,2.4c.222-.127.231-.2.093-.417a.524.524,0,0,1,.226-.8C.05,1.071.057.962,0,.725A.564.564,0,0,1,.53,0" transform="translate(0.761)" fill="#c32b2f"/>
      </g>
      <g id="Group_5246" data-name="Group 5246" transform="translate(20.348 11.91)">
        <path id="Path_7799" data-name="Path 7799" d="M1.4.417c.064.373.02.716-.394.845S.368,1.14.229.78C-.313,1.2-.548,1.172-.893.607-.983.461-1.041.458-1.187.514A.536.536,0,0,1-1.979.174.536.536,0,0,1-1.635-.55a.536.536,0,0,1,.75.361c.076.2.153.244.329.129A.477.477,0,0,1-.421-.1c.4-.112.55.458.808.377C.728.168,1,.057,1.293.319l.112.1" transform="translate(2.015 0.598)" fill="#c32b2f"/>
      </g>
      <g id="Group_5247" data-name="Group 5247" transform="translate(20.346 8.946)">
        <path id="Path_7800" data-name="Path 7800" d="M1.409.361A.673.673,0,0,1,.328.381c-.205.436-.477.694-.971.484-.185-.078-.2.1-.248.2a.584.584,0,0,1-.826.3A.506.506,0,0,1-1.984.686a.535.535,0,0,1,.738-.38C-1.1.352-1,.381-.893.215-.526-.333-.331-.361.217.023c.148-.361.377-.638.809-.507S1.463,0,1.409.361Z" transform="translate(2.021 0.517)" fill="#c32b2f"/>
      </g>
      <g id="Group_5248" data-name="Group 5248" transform="translate(14.205 3.763)">
        <path id="Path_7801" data-name="Path 7801" d="M.232,0A.546.546,0,0,1,.76.832a.472.472,0,0,0,.012.674.466.466,0,0,1-.081.645c-.175.156-.221.232-.017.421a.516.516,0,0,1,0,.8.533.533,0,0,1-.767.044.536.536,0,0,1-.07-.83c.141-.165.154-.255,0-.423a.53.53,0,0,1-.008-.767C.008,1.2-.039,1.1-.185.93A.545.545,0,0,1-.231.27.493.493,0,0,1,.232,0" transform="translate(0.333 0)" fill="#c32b2f"/>
      </g>
      <g id="Group_5249" data-name="Group 5249" transform="translate(12.034 3.763)">
        <path id="Path_7802" data-name="Path 7802" d="M.235,0a.559.559,0,0,1,.54.311.5.5,0,0,1-.1.647c-.187.166-.192.255-.007.429a.491.491,0,0,1-.017.784c-.187.168-.146.236.01.392a.527.527,0,0,1-.027.828A.535.535,0,0,1-.135,3.4a.544.544,0,0,1-.048-.8c.16-.185.146-.268,0-.455-.282-.348.019-.636.112-.969C-.013.954-.456.626-.24.253A.514.514,0,0,1,.235,0" transform="translate(0.337 0)" fill="#c32b2f"/>
      </g>
      <g id="Group_5250" data-name="Group 5250" transform="translate(1.128 10.073)">
        <path id="Path_7803" data-name="Path 7803" d="M0,.513c-.01-.82.336-1.049,1.066-.7C1.324-.775,1.6-.867,2.14-.526c.107.07.173.112.275.005a.582.582,0,0,1,.764-.124c.3.166.261.468.26.75L3.28.275c-.068.041-.132.083-.2.119-.351.176-.6-.285-.837-.205-.285.093-.516.36-.849.161-.146-.088-.2-.063-.275.088a.623.623,0,0,1-.871.3C.165.664.083.587,0,.513" transform="translate(0 0.735)" fill="#c32b2f"/>
      </g>
      <g id="Group_5251" data-name="Group 5251" transform="translate(6.63 13.664)">
        <path id="Path_7804" data-name="Path 7804" d="M.5.313A1.927,1.927,0,0,1,.22.62a.558.558,0,0,1-.8-.1A.538.538,0,0,1-.547-.245.511.511,0,0,1,.21-.308c.222.205.336.229.565,0a.5.5,0,0,1,.753.07.527.527,0,0,1,.02.762A.547.547,0,0,1,.792.642,1.488,1.488,0,0,1,.5.313" transform="translate(0.724 0.449)" fill="#c32b2f"/>
      </g>
      <g id="Group_5252" data-name="Group 5252" transform="translate(6.634 11.489)">
        <path id="Path_7805" data-name="Path 7805" d="M.257.487a.6.6,0,0,1-.6-.431A.532.532,0,0,1-.12-.564.513.513,0,0,1,.574-.55c.2.2.3.241.528.008a.517.517,0,0,1,.793.068.525.525,0,0,1,.022.731A.5.5,0,0,1,1.17.386C.914.166.752.108.525.39c-.058.07-.2.073-.268.1" transform="translate(0.369 0.698)" fill="#c32b2f"/>
      </g>
      <g id="Group_5253" data-name="Group 5253" transform="translate(13.397 21.693)">
        <path id="Path_7806" data-name="Path 7806" d="M.2,0c.731.171.876.563.423,1.185.36.112.65.307.558.733s-.419.506-.8.457C.318,2.345.257,2.315.2,2.286.03,2.008-.082,1.721.161,1.431c.115-.137.063-.182-.066-.275C-.384.809-.4.6-.028.144L.2,0" transform="translate(0.289)" fill="#c32b2f"/>
      </g>
      <g id="Group_5254" data-name="Group 5254" transform="translate(9.159 13.689)">
        <path id="Path_7807" data-name="Path 7807" d="M.724.785C.294.8-.028.663-.069.187-.088-.043-.2,0-.349.021a.55.55,0,0,1-.681-.485.537.537,0,0,1,.472-.648.538.538,0,0,1,.67.49c.027.141.015.253.234.26.75.024.92.331.6,1.022L.724.785" transform="translate(1.038 1.126)" fill="#c32b2f"/>
      </g>
      <g id="Group_5255" data-name="Group 5255" transform="translate(23.574 10.749)">
        <path id="Path_7808" data-name="Path 7808" d="M.08.894-.032.8C-.19.323-.158-.067.405-.228c.12-.034.139-.109.1-.21A.713.713,0,0,1,.75-1.267l-.005,0a.68.68,0,0,1,.806.316c.112.216.112.5-.076.6-.4.205-.434.494-.485.9C.928,1.031.47.994.08.894" transform="translate(0.114 1.282)" fill="#c32b2f"/>
      </g>
      <g id="Group_5256" data-name="Group 5256" transform="translate(15.201 11.906)">
        <path id="Path_7809" data-name="Path 7809" d="M.5.926a1.073,1.073,0,0,1-.633.131.572.572,0,0,1-.3-.935C-.3-.05-.257-.106-.45-.266a.539.539,0,0,1-.064-.889.536.536,0,0,1,.8.012c.275.253.239.589-.081.9a1.176,1.176,0,0,1-.109.09C.634.2.677.313.5.929Z" transform="translate(0.72 1.328)" fill="#c32b2f"/>
      </g>
      <g id="Group_5257" data-name="Group 5257" transform="translate(14.212 7.345)">
        <path id="Path_7810" data-name="Path 7810" d="M.314.49A2.152,2.152,0,0,1,.5.631.565.565,0,0,1,.545,1.5a.529.529,0,0,1-.8.01A.569.569,0,0,1-.278.666C-.194.56,0,.536-.216.33A.561.561,0,0,1-.228-.564a.561.561,0,0,1,.8.064C.821-.241.76.1.433.395.4.425.361.453.314.49" transform="translate(0.45 0.703)" fill="#c32b2f"/>
      </g>
      <g id="Group_5258" data-name="Group 5258" transform="translate(-0.001 11.321)">
        <path id="Path_7811" data-name="Path 7811" d="M.464,0C.547.075.628.151.712.226c.149.591.093.718-.448,1a.758.758,0,0,1,.243.538.547.547,0,0,1-.419.555.561.561,0,0,1-.645-.268.464.464,0,0,1,.081-.675c.275-.193.272-.344.149-.64C-.5.312-.151.008.464,0" transform="translate(0.665)" fill="#c32b2f"/>
      </g>
      <g id="Group_5259" data-name="Group 5259" transform="translate(12.055 7.342)">
        <path id="Path_7812" data-name="Path 7812" d="M.3.491c.46.365.536.694.253,1a.579.579,0,0,1-.837,0c-.261-.268-.19-.645.185-1C-.485.07-.546-.314-.243-.553a.546.546,0,0,1,.8.048c.285.3.2.623-.253,1" transform="translate(0.436 0.704)" fill="#c32b2f"/>
      </g>
      <g id="Group_5260" data-name="Group 5260" transform="translate(10.835 23.849)">
        <path id="Path_7813" data-name="Path 7813" d="M0,.229A.538.538,0,0,1,.407-.294a.513.513,0,0,1,.674.277c.1.236.158.378.482.278a.491.491,0,0,1,.631.416.54.54,0,0,1-.351.686.506.506,0,0,1-.7-.288C1.03.772.9.775.626.828A.563.563,0,0,1,0,.229" transform="translate(0 0.328)" fill="#c32b2f"/>
      </g>
      <g id="Group_5261" data-name="Group 5261" transform="translate(12.913 20.615)">
        <path id="Path_7814" data-name="Path 7814" d="M.4.443.171.587A2.4,2.4,0,0,1-.146.514.577.577,0,0,1-.528-.263.58.58,0,0,1,.248-.582.569.569,0,0,1,.539.2,1.445,1.445,0,0,1,.4.443" transform="translate(0.574 0.636)" fill="#c32b2f"/>
      </g>
      <g id="Group_5262" data-name="Group 5262" transform="translate(13.089 23.979)">
        <path id="Path_7815" data-name="Path 7815" d="M.326,0,.511.088a3.153,3.153,0,0,1,.139.3.579.579,0,0,1-.394.772A.52.52,0,0,1-.436.774.543.543,0,0,1-.042.042,1.749,1.749,0,0,1,.326,0" transform="translate(0.467)" fill="#c32b2f"/>
      </g>
      <g id="Group_5263" data-name="Group 5263" transform="translate(16.499 11.916)">
        <path id="Path_7816" data-name="Path 7816" d="M.234.48A.574.574,0,0,1-.334-.14.543.543,0,0,1,.255-.688a.541.541,0,0,1,.569.569.571.571,0,0,1-.589.6" transform="translate(0.336 0.688)" fill="#c32b2f"/>
      </g>
      <g id="Group_5264" data-name="Group 5264" transform="translate(12.916 19.264)">
        <path id="Path_7817" data-name="Path 7817" d="M.479.239A.562.562,0,0,1-.069.826.583.583,0,0,1-.687.254a.579.579,0,0,1,.6-.594.58.58,0,0,1,.57.579" transform="translate(0.687 0.342)" fill="#c32b2f"/>
      </g>
      <g id="Group_5265" data-name="Group 5265" transform="translate(15.491 15.186)">
        <path id="Path_7818" data-name="Path 7818" d="M.254,0A.554.554,0,0,1,.8.552a.565.565,0,0,1-.577.608A.554.554,0,0,1-.362.611.594.594,0,0,1,.254,0" transform="translate(0.365)" fill="#c32b2f"/>
      </g>
      <g id="Group_5266" data-name="Group 5266" transform="translate(4.409 10.763)">
        <path id="Path_7819" data-name="Path 7819" d="M0,.132.158-.04C.82-.381,1.188-.131,1.174.649,1.1.724,1.022.8.945.872.294,1.079.039.878,0,.132" transform="translate(0 0.189)" fill="#c32b2f"/>
      </g>
      <g id="Group_5267" data-name="Group 5267" transform="translate(10.742 19.262)">
        <path id="Path_7820" data-name="Path 7820" d="M.261.48A.578.578,0,0,1-.375-.1a.565.565,0,0,1,.56-.582.587.587,0,0,1,.6.592A.556.556,0,0,1,.261.48" transform="translate(0.375 0.689)" fill="#c32b2f"/>
      </g>
      <g id="Group_5268" data-name="Group 5268" transform="translate(15.21 9.731)">
        <path id="Path_7821" data-name="Path 7821" d="M.48.253A.537.537,0,0,1-.084.791a.562.562,0,0,1-.6-.575A.565.565,0,0,1-.123-.361a.6.6,0,0,1,.6.614" transform="translate(0.688 0.363)" fill="#c32b2f"/>
      </g>
      <g id="Group_5269" data-name="Group 5269" transform="translate(17.731 11.909)">
        <path id="Path_7822" data-name="Path 7822" d="M.475.224a.577.577,0,0,1-.6.626A.56.56,0,0,1-.682.266a.583.583,0,0,1,.6-.584A.56.56,0,0,1,.475.224" transform="translate(0.682 0.321)" fill="#c32b2f"/>
      </g>
      <g id="Group_5270" data-name="Group 5270" transform="translate(18.993 11.911)">
        <path id="Path_7823" data-name="Path 7823" d="M0,.229A.584.584,0,0,1,.565-.326a.613.613,0,0,1,.606.6A.608.608,0,0,1,.555.851.616.616,0,0,1,0,.229" transform="translate(0 0.328)" fill="#c32b2f"/>
      </g>
      <g id="Group_5271" data-name="Group 5271" transform="translate(18.994 9.728)">
        <path id="Path_7824" data-name="Path 7824" d="M.242.477A.547.547,0,0,1-.347-.07a.6.6,0,0,1,.58-.614.611.611,0,0,1,.584.613A.546.546,0,0,1,.242.477" transform="translate(0.348 0.684)" fill="#c32b2f"/>
      </g>
      <g id="Group_5272" data-name="Group 5272" transform="translate(16.165 14.102)">
        <path id="Path_7825" data-name="Path 7825" d="M.1.025A1.747,1.747,0,0,1,.33-.029.561.561,0,0,1,.987.365a.535.535,0,0,1-.258.679A.525.525,0,0,1,.045.964.549.549,0,0,1-.033.205,2.048,2.048,0,0,1,.109.022Z" transform="translate(0.149 0.036)" fill="#c32b2f"/>
      </g>
      <g id="Group_5273" data-name="Group 5273" transform="translate(14.224 14.702)">
        <path id="Path_7826" data-name="Path 7826" d="M0,.239A.531.531,0,0,1,.541-.343a.567.567,0,0,1,.619.558.593.593,0,0,1-.6.594A.566.566,0,0,1,0,.239" transform="translate(0 0.344)" fill="#c32b2f"/>
      </g>
      <g id="Group_5274" data-name="Group 5274" transform="translate(23.734 9.569)">
        <path id="Path_7827" data-name="Path 7827" d="M.017.1A.611.611,0,0,1,1.11.315c.075.373-.16.567-.436.733,0,0,.005,0,.005,0C.036.94-.109.734.017.1Z" transform="translate(0.024 0.15)" fill="#c32b2f"/>
      </g>
      <g id="Group_5275" data-name="Group 5275" transform="translate(12.058 1.339)">
        <path id="Path_7828" data-name="Path 7828" d="M.2.474A.5.5,0,0,1-.287-.081a.559.559,0,0,1,.577-.6.579.579,0,0,1,.574.572C.892.211.607.476.2.474" transform="translate(0.287 0.68)" fill="#c32b2f"/>
      </g>
      <g id="Group_5276" data-name="Group 5276" transform="translate(5.354 11.511)">
        <path id="Path_7829" data-name="Path 7829" d="M0,.129.229-.093A1.451,1.451,0,0,1,.585-.185.542.542,0,0,1,1.173.3.535.535,0,0,1,.726.955.534.534,0,0,1,.063.585,2.115,2.115,0,0,1,0,.129" transform="translate(0 0.185)" fill="#c32b2f"/>
      </g>
      <g id="Group_5277" data-name="Group 5277" transform="translate(9.154 11.507)">
        <path id="Path_7830" data-name="Path 7830" d="M.235,0A.572.572,0,0,1,.819.6a.547.547,0,0,1-.569.56A.571.571,0,0,1-.337.565.584.584,0,0,1,.235,0" transform="translate(0.337 0)" fill="#c32b2f"/>
      </g>
      <g id="Group_5278" data-name="Group 5278" transform="translate(16.499 9.735)">
        <path id="Path_7831" data-name="Path 7831" d="M.479.234A.553.553,0,0,1-.076.811.553.553,0,0,1-.687.251a.578.578,0,0,1,.6-.585.58.58,0,0,1,.57.569" transform="translate(0.687 0.336)" fill="#c32b2f"/>
      </g>
      <g id="Group_5279" data-name="Group 5279" transform="translate(10.735 15.473)">
        <path id="Path_7832" data-name="Path 7832" d="M.076.052.3-.074a1.3,1.3,0,0,1,.141,0A.607.607,0,0,1,1.052.47a.517.517,0,0,1-.328.567A.543.543,0,0,1,.071.945.6.6,0,0,1,.026.13L.076.052" transform="translate(0.11 0.075)" fill="#c32b2f"/>
      </g>
      <g id="Group_5280" data-name="Group 5280" transform="translate(12.916 15.489)">
        <path id="Path_7833" data-name="Path 7833" d="M.479.236A.55.55,0,0,1-.074.809.556.556,0,0,1-.687.249a.576.576,0,0,1,.6-.585.577.577,0,0,1,.57.572" transform="translate(0.687 0.338)" fill="#c32b2f"/>
      </g>
      <g id="Group_5281" data-name="Group 5281" transform="translate(10.743 16.783)">
        <path id="Path_7834" data-name="Path 7834" d="M.236.48A.584.584,0,0,1-.337-.086a.573.573,0,0,1,.579-.6.574.574,0,0,1,.58.6A.587.587,0,0,1,.236.48" transform="translate(0.339 0.688)" fill="#c32b2f"/>
      </g>
      <g id="Group_5282" data-name="Group 5282" transform="translate(12.92 16.782)">
        <path id="Path_7835" data-name="Path 7835" d="M.476.226A.593.593,0,0,1-.147.837a.561.561,0,0,1-.536-.6A.564.564,0,0,1-.064-.321a.553.553,0,0,1,.54.546" transform="translate(0.683 0.324)" fill="#c32b2f"/>
      </g>
      <g id="Group_5283" data-name="Group 5283" transform="translate(14.23 2.548)">
        <path id="Path_7836" data-name="Path 7836" d="M.213,0A.589.589,0,0,1,.849.594a.551.551,0,0,1-.569.563A.561.561,0,0,1-.3.567.554.554,0,0,1,.213,0" transform="translate(0.305 0)" fill="#c32b2f"/>
      </g>
      <g id="Group_5284" data-name="Group 5284" transform="translate(10.743 18.013)">
        <path id="Path_7837" data-name="Path 7837" d="M.217,0A.59.59,0,0,1,.848.6a.559.559,0,0,1-.582.555.563.563,0,0,1-.575-.6A.549.549,0,0,1,.217,0" transform="translate(0.311)" fill="#c32b2f"/>
      </g>
      <g id="Group_5285" data-name="Group 5285" transform="translate(12.919 18.014)">
        <path id="Path_7838" data-name="Path 7838" d="M.207,0a.578.578,0,0,1,.65.582A.55.55,0,0,1,.3,1.156.567.567,0,0,1-.3.57.548.548,0,0,1,.207,0" transform="translate(0.297 0)" fill="#c32b2f"/>
      </g>
      <g id="Group_5286" data-name="Group 5286" transform="translate(12.058 2.547)">
        <path id="Path_7839" data-name="Path 7839" d="M.24.479A.55.55,0,0,1-.343-.066a.557.557,0,0,1,.55-.621A.579.579,0,0,1,.8-.1.578.578,0,0,1,.24.479" transform="translate(0.345 0.687)" fill="#c32b2f"/>
      </g>
      <g id="Group_5287" data-name="Group 5287" transform="translate(14.227 1.343)">
        <path id="Path_7840" data-name="Path 7840" d="M.477.24A.56.56,0,0,1-.079.8.534.534,0,0,1-.685.25.576.576,0,0,1-.094-.343.587.587,0,0,1,.477.24" transform="translate(0.685 0.344)" fill="#c32b2f"/>
      </g>
      <g id="Group_5288" data-name="Group 5288" transform="translate(17.728 9.735)">
        <path id="Path_7841" data-name="Path 7841" d="M.476.259A.528.528,0,0,1-.079.776a.564.564,0,0,1-.6-.57A.559.559,0,0,1-.125-.369a.586.586,0,0,1,.6.628" transform="translate(0.683 0.371)" fill="#c32b2f"/>
      </g>
      <g id="Group_5289" data-name="Group 5289" transform="translate(14.26 -0.001)">
        <path id="Path_7842" data-name="Path 7842" d="M.224.441A.518.518,0,0,1-.321-.081.5.5,0,0,1,.237-.633.493.493,0,0,1,.763-.1a.517.517,0,0,1-.54.538" transform="translate(0.321 0.633)" fill="#c32b2f"/>
      </g>
      <g id="Group_5290" data-name="Group 5290" transform="translate(2.672 27.939)">
        <path id="Path_7843" data-name="Path 7843" d="M6.159,5.034a.84.84,0,0,1-.506-.105A6.073,6.073,0,0,1,4.677,4.3c-.042-.032-.09-.1-.132-.08s-.024.1-.029.148a7.36,7.36,0,0,1-.124,1,1.145,1.145,0,0,1-.258.577A.258.258,0,0,1,4.066,6a2.645,2.645,0,0,1-.945.36,13.128,13.128,0,0,1-1.714-.012Q.778,6.322.153,6.286c-.071-.005-.08.014-.063.08a1.465,1.465,0,0,1,.058.774.509.509,0,0,1-.056.132c-.087.131-.176.26-.253.4a.657.657,0,0,1-.45.314,3.071,3.071,0,0,1-.854.056c-.183-.005-.367-.02-.552-.031-.025,0-.058-.015-.075.012s.008.051.02.075a8.44,8.44,0,0,1,.458.92,1.594,1.594,0,0,1,.127.552.527.527,0,0,1-.087.309c-.09.136-.185.268-.261.411a.723.723,0,0,1-.557.372,2.184,2.184,0,0,1-.278.032c-.061,0-.078.019-.053.081a1.563,1.563,0,0,1,.122.47.593.593,0,0,1-.1.4c-.092.134-.183.27-.261.411a.686.686,0,0,1-.479.338,3.613,3.613,0,0,1-.927.048c-.182-.008-.36-.02-.56-.032.1.183.187.35.273.518a4.251,4.251,0,0,1,.3.687,1.209,1.209,0,0,1,.058.311.572.572,0,0,1-.1.368c-.1.144-.193.29-.282.441a.64.64,0,0,1-.421.3,1.542,1.542,0,0,1-.373.058c-.083,0-.083.029-.058.1a1.575,1.575,0,0,1,.117.5.574.574,0,0,1-.1.343,4.572,4.572,0,0,0-.251.4.748.748,0,0,1-.616.385A5.7,5.7,0,0,1-7.5,16.81l-.214-.012c-.019.031,0,.049.014.068.127.236.258.47.368.714.049.107.039.126-.075.136-.139.015-.277.025-.414.042a.124.124,0,0,1-.144-.076c-.146-.277-.3-.552-.44-.83a.141.141,0,0,0-.153-.092c-.163.007-.163,0-.2-.154-.024-.1-.046-.193-.075-.288-.02-.07-.005-.115.073-.119s.064-.044.049-.092a1.083,1.083,0,0,1-.036-.579.679.679,0,0,1,.066-.168,4.122,4.122,0,0,1,.406-.618.81.81,0,0,1,.417-.239,3.708,3.708,0,0,1,1.095-.076c.051,0,.12.029.146-.008s-.029-.09-.051-.134a4.372,4.372,0,0,1-.37-.91.95.95,0,0,1,.143-.825,2.578,2.578,0,0,0,.165-.26.958.958,0,0,1,.755-.482c.068-.01.1-.024.07-.1a1.066,1.066,0,0,1-.053-.275.81.81,0,0,1,.083-.463,3.584,3.584,0,0,1,.412-.625.926.926,0,0,1,.575-.275,4.245,4.245,0,0,1,.893-.041l.209.008c-.078-.16-.154-.312-.226-.465a2.616,2.616,0,0,1-.243-.726.833.833,0,0,1,.093-.567c.105-.173.214-.343.328-.509a.878.878,0,0,1,.592-.344c.161-.034.165-.036.126-.19A.939.939,0,0,1-2.964,6.4,1.211,1.211,0,0,0-2.834,6.2.494.494,0,0,1-2.5,5.942a5.029,5.029,0,0,1,1.176-.176c.156-.008.314-.01.47-.014.1,0,.1,0,.059-.1-.255-.592-.511-1.185-.764-1.777a5.766,5.766,0,0,1-.272-.747.828.828,0,0,1-.012-.382A2.577,2.577,0,0,1-1.364,1.66c.036-.048.022-.064-.029-.081a2.984,2.984,0,0,1-.48-.205A.909.909,0,0,1-2.4.727C-2.43.571-2.481.418-2.52.263a.865.865,0,0,1,.134-.672A3.974,3.974,0,0,1-1.719-1.2l.046-.042c.049-.044.037-.066-.022-.083a5.66,5.66,0,0,1-.636-.2,2.039,2.039,0,0,1-.56-.3.775.775,0,0,1-.275-.414c-.044-.168-.081-.339-.131-.507a.8.8,0,0,1,.075-.6.926.926,0,0,1,.12-.21c.053-.059-.005-.081-.044-.1a1.149,1.149,0,0,1-.3-.2.828.828,0,0,1-.263-.472c-.034-.148-.073-.292-.112-.438a.867.867,0,0,1,.127-.674,3.466,3.466,0,0,1,.55-.679c.056-.058.114-.115.173-.171.046-.041.034-.071-.02-.075-.193-.01-.251-.139-.283-.3-.02-.105-.061-.209-.09-.312-.008-.034-.031-.071,0-.1s.063-.007.1,0c.258.068.519.132.776.205A.165.165,0,0,0-2.3-6.939c.078-.085.161-.163.239-.246.053-.054.09-.049.12.02.066.149.137.3.2.446a.145.145,0,0,0,.087.092c.081.032.16.071.238.109a.818.818,0,0,1,.458.641c.02.124.063.244.092.368a.684.684,0,0,1-.1.5,3.136,3.136,0,0,1-.528.64c-.134.134-.273.263-.409.4-.064.063-.061.07.025.092a8.044,8.044,0,0,1,1.044.319,1.386,1.386,0,0,1,.451.275.583.583,0,0,1,.16.278c.039.153.07.305.119.455a.789.789,0,0,1-.158.728,1.4,1.4,0,0,1-.122.158c-.044.046-.034.068.019.088a1.793,1.793,0,0,1,.384.2A.626.626,0,0,1,.294-1c.039.173.088.344.134.516A.987.987,0,0,1,.267.279a5.291,5.291,0,0,1-.648.842c-.071.08-.068.087.039.117.175.048.348.1.521.148.112.034.12.066.049.156s-.16.2-.236.309a.145.145,0,0,1-.183.064c-.222-.066-.448-.117-.672-.176a.1.1,0,0,0-.114.027,6.84,6.84,0,0,0-.64.793.22.22,0,0,0-.034.187,4.071,4.071,0,0,0,.38.9c.316.6.67,1.185.976,1.794.044.085.087.171.126.26a.1.1,0,0,0,.1.064C.888,5.8,1.843,5.9,2.8,5.96c.246.017.492.029.74.032a.111.111,0,0,0,.12-.08,2.87,2.87,0,0,0,.151-.65c.063-.472.075-.949.127-1.42.008-.071-.036-.1-.081-.126-.132-.088-.132-.088-.083-.236.032-.093.066-.187.1-.282.02-.063.051-.1.124-.064.058.029.075-.005.09-.051a1.423,1.423,0,0,1,.173-.375.692.692,0,0,1,.29-.251c.175-.081.351-.16.526-.243A.786.786,0,0,1,5.6,2.179a1.934,1.934,0,0,1,.555.236,4.406,4.406,0,0,1,.541.36c.02.015.044.044.07.034s.022-.053.025-.08a5.033,5.033,0,0,1,.163-.952,1.37,1.37,0,0,1,.219-.433.671.671,0,0,1,.261-.2c.134-.061.273-.114.4-.185A.927.927,0,0,1,8.686.942c.12.051.122.049.163-.073a1.358,1.358,0,0,1,.183-.36A.611.611,0,0,1,9.278.3c.168-.078.341-.153.507-.234a.806.806,0,0,1,.6-.042,2.172,2.172,0,0,1,.5.216c.193.109.372.243.56.361.078.049.085.046.1-.048s.024-.216.034-.322c.007-.066.032-.1.105-.109.137-.015.273-.041.411-.061.1-.015.114,0,.105.1-.024.278-.044.558-.073.837a.154.154,0,0,0,.07.161l.37.244c.1.064.1.092,0,.149-.131.076-.261.149-.392.224-.014.008-.027.022-.039.019-.11-.017-.109.064-.129.134a2.164,2.164,0,0,1-.093.292.66.66,0,0,1-.367.39,4.321,4.321,0,0,0-.394.18.715.715,0,0,1-.619.025,3.492,3.492,0,0,1-.765-.438c-.132-.093-.261-.193-.394-.287-.076-.054-.088-.048-.1.044-.022.288-.042.577-.09.862a2.074,2.074,0,0,1-.168.6.6.6,0,0,1-.288.3c-.18.085-.361.166-.543.248a.618.618,0,0,1-.424.014,1.548,1.548,0,0,1-.389-.168c-.059-.034-.085-.024-.1.042a1.732,1.732,0,0,1-.144.436.6.6,0,0,1-.294.294c-.143.064-.285.129-.428.2M-.157.028a2.55,2.55,0,0,0,.3-.579C.19-.673.189-.684.082-.75A3.6,3.6,0,0,0-.86-1.108c-.049-.014-.08.017-.109.046-.241.232-.487.458-.72.7a2.543,2.543,0,0,0-.526.7c-.073.163-.071.178.075.278a3.782,3.782,0,0,0,1.152.458.085.085,0,0,0,.1-.037c.239-.324.5-.635.728-1m-3.25-4.933c-.027.041-.054.08-.078.122s-.032.071-.049.107c-.049.112-.041.134.061.209a2.68,2.68,0,0,0,.755.356c.056.017.083-.01.117-.042.226-.216.453-.429.677-.648a4.287,4.287,0,0,0,.72-.816c.071-.117.061-.151-.063-.216a4.3,4.3,0,0,0-.862-.317.124.124,0,0,0-.136.036c-.188.182-.38.36-.569.541a4.074,4.074,0,0,0-.574.669m12,6.437c-.12-.066-.21-.119-.305-.168A1.96,1.96,0,0,0,7.842,1.2a.106.106,0,0,0-.136.068,2.106,2.106,0,0,0-.176.509,11.655,11.655,0,0,0-.16,1.434.1.1,0,0,0,.056.1c.08.053.16.109.238.163a2.678,2.678,0,0,0,.628.331c.064.022.09,0,.114-.056a2.59,2.59,0,0,0,.158-.675c.056-.438.071-.881.119-1.32.012-.114,0-.2-.088-.222m-2.748,1.4a2.75,2.75,0,0,0-.835-.414.134.134,0,0,0-.175.073,2.424,2.424,0,0,0-.234.849c-.005.034.017.054.042.073l.263.188c.282.205.56.416.847.616a2.981,2.981,0,0,0,.6.329c.141.056.144.053.2-.1a3.937,3.937,0,0,0,.168-.93.1.1,0,0,0-.051-.1c-.292-.212-.574-.438-.821-.592m-9.279,7.759c-.022,0-.042-.007-.063-.008-.331-.019-.66-.051-.991-.053a2.773,2.773,0,0,0-.937.1c-.117.041-.126.053-.115.175a2.629,2.629,0,0,0,.258.813.091.091,0,0,0,.1.053c.367.02.733.042,1.1.061a3.75,3.75,0,0,0,.925-.036c.156-.032.16-.039.126-.192a3.957,3.957,0,0,0-.365-.871.28.28,0,0,0-.032-.046m-4.916,4.5c0,.022,0,.049,0,.076a2.543,2.543,0,0,0,.265.857c.019.042.054.041.092.044.378.02.757.044,1.135.063a3.379,3.379,0,0,0,.933-.049c.092-.022.105-.061.087-.144a3.786,3.786,0,0,0-.372-.908c-.025-.049-.07-.053-.115-.056-.368-.022-.738-.054-1.108-.051a2.316,2.316,0,0,0-.826.115.191.191,0,0,0-.09.053M10.639,2.235a2.148,2.148,0,0,0,.465.243c.124.046.139.039.187-.085a4.227,4.227,0,0,0,.165-.82.249.249,0,0,0-.134-.288l-.029-.02c-.219-.16-.434-.324-.657-.479A2.921,2.921,0,0,0,9.772.348a.145.145,0,0,0-.192.08,2.373,2.373,0,0,0-.229.838c-.007.042.017.066.049.088.07.046.141.092.209.141.321.234.63.484,1.03.74M-2.883-2.919a2.062,2.062,0,0,0-.148.268.115.115,0,0,0,.044.163,2.155,2.155,0,0,0,.322.2,9.114,9.114,0,0,0,1.517.467.1.1,0,0,0,.107-.025A3.5,3.5,0,0,0-.4-2.613c.037-.064.031-.1-.034-.139a2.814,2.814,0,0,0-.587-.253c-.458-.146-.932-.241-1.393-.382a.113.113,0,0,0-.127.039,3.093,3.093,0,0,0-.343.429M-5.849,14.474a.282.282,0,0,0,.048.008c.1.005.205.01.307.012a2.771,2.771,0,0,0,.7-.059c.066-.017.092-.044.076-.112a1.926,1.926,0,0,0-.076-.278c-.212-.575-.555-1.088-.821-1.636a.073.073,0,0,0-.073-.044,2.673,2.673,0,0,0-.881.117.112.112,0,0,0-.083.136,2.224,2.224,0,0,0,.192.682c.165.387.375.748.572,1.117a.7.7,0,0,0,.041.058m2.81-4.389c.061,0,.12.007.18.008a3.189,3.189,0,0,0,.871-.056c.073-.019.1-.048.076-.12A2.64,2.64,0,0,0-2,9.623c-.217-.563-.548-1.071-.815-1.61a.072.072,0,0,0-.073-.042,2.62,2.62,0,0,0-.872.114.118.118,0,0,0-.09.141,2.1,2.1,0,0,0,.165.616,13.234,13.234,0,0,0,.609,1.2c.008.015.02.029.032.048m.316-3.62a.171.171,0,0,0,0,.105,2.96,2.96,0,0,0,.224.694.161.161,0,0,0,.161.112c.343.015.684.039,1.027.056A4.007,4.007,0,0,0-.366,7.4c.081-.015.1-.046.09-.126a5.906,5.906,0,0,0-.253-.932.114.114,0,0,0-.124-.087c-.272,0-.541-.005-.813.007a4.453,4.453,0,0,0-1.168.16.2.2,0,0,0-.09.042M.084,6.191l.845.042c.017,0,.044,0,.041-.02-.01-.053.034-.075.053-.11.053-.1.012-.182-.1-.19C.75,5.9.579,5.889.408,5.881c-.054,0-.132-.037-.131.071,0,.014-.031.029-.048.037a.115.115,0,0,0-.066.081.184.184,0,0,1-.08.12m7.09-2.921a1.494,1.494,0,0,0-.3-.258.273.273,0,0,0-.2-.09,2.111,2.111,0,0,1-.358.064.075.075,0,0,0-.07.061c-.012.039.02.051.042.071a1.542,1.542,0,0,0,.209.154c.053.036.093.119.175.044.008-.008.036,0,.053,0A.442.442,0,0,0,7,3.282c.058-.022.109-.051.171-.012M-1.9-4.106a.087.087,0,0,0,.024-.075,1.943,1.943,0,0,1-.051-.311c-.005-.025-.02-.049-.048-.046-.048.007-.1,0-.143.041-.061.064-.129.124-.2.187-.02.02-.048.041-.036.076a1.947,1.947,0,0,1,.1.392c0,.034.02.051.053.02l.3-.285M11.628.879A1.832,1.832,0,0,0,11.311.63C11.25.584,11.2.55,11.13.615s-.149.014-.217.044a.3.3,0,0,1-.282.014c.12.09.251.161.361.26A.171.171,0,0,0,11.2.966c.076-.041.182-.008.239-.058s.11-.076.185-.029M-1.659,7.5c-.146-.008-.294-.017-.44-.027-.046,0-.075.01-.081.061a.444.444,0,0,1-.143.292c-.039.036-.031.064.025.068.129.008.258.014.387.019.019,0,.039.005.049-.024.049-.136.156-.239.2-.389M-3.4,10.242c-.007-.019.109-.063,0-.083a3.482,3.482,0,0,0-.377-.025c-.017,0-.039-.007-.046.017a1.523,1.523,0,0,1-.146.275c-.039.076-.01.124.076.131.07.007.139.007.207.019a.148.148,0,0,0,.178-.11c.031-.071.068-.141.109-.222M-5,12c-.034.064-.07.127-.1.19s-.022.1.056.107c.112.008.222.014.333.019.022,0,.053,0,.056-.02.017-.1.1-.176.115-.282.007-.063-.01-.117-.085-.124-.09-.008-.18-.012-.27-.017-.022,0-.046,0-.046.027s-.037.068-.056.1m-1.125,2.579a.14.14,0,0,0-.012-.022l-.428-.027c-.024,0-.054-.008-.063.022a.936.936,0,0,1-.132.243c-.053.09-.012.154.093.161a1.406,1.406,0,0,0,.224.01c.063,0,.115-.007.1-.1-.005-.025.02-.048.041-.066a.236.236,0,0,0,.068-.115c.014-.058.034-.11.114-.11M9.9,1.84a1.472,1.472,0,0,0-.221-.171c-.066-.051-.122-.126-.212-.039-.01.01-.034.007-.053.008-.132,0-.248.1-.39.07.122.1.248.2.373.287a.04.04,0,0,0,.058,0c.117-.141.3-.092.445-.153M-1.563-1.225a.1.1,0,0,0,0,.09,1.434,1.434,0,0,1,.087.358c0,.049.031.042.059.017.059-.056.115-.114.176-.168s.088-.088.042-.166a.308.308,0,0,1-.022-.176.276.276,0,0,0-.046-.163c-.015-.025-.034-.034-.058-.012-.08.073-.158.148-.236.221m6.9,5.363a2.373,2.373,0,0,0-.3-.229c-.017-.012-.032-.017-.049,0-.137.12-.328.064-.468.154l.283.207c.024.017.051.039.081.017.136-.093.307-.073.457-.148M-7.158,16.412a.079.079,0,0,0,.024-.081c-.012-.041-.049-.027-.076-.031-.059-.005-.12-.007-.18-.012s-.114-.014-.143.076a.7.7,0,0,1-.173.249c-.051.054-.039.083.036.09.1.01.192.014.288.02a.061.061,0,0,0,.071-.049.787.787,0,0,1,.153-.263M-2.939-5.607c.061-.058.107-.105.158-.146.071-.054.1-.112.042-.2a.148.148,0,0,1-.022-.076A.839.839,0,0,0-2.835-6.3c-.078.076-.148.148-.219.216-.031.031-.027.058-.007.1a.84.84,0,0,1,.122.385M-.86,1.146c-.087.075,0,.144.014.214.015.09.036.09.1.025a.654.654,0,0,1,.1-.112A.386.386,0,0,0-.517.825C-.522.8-.526.781-.548.773S-.59.789-.6.808l-.256.338" transform="translate(8.836 7.222)" fill="#b1d2d2"/>
      </g>
    </g>
  </g>
</svg>
