<svg xmlns="http://www.w3.org/2000/svg" xmlns:xlink="http://www.w3.org/1999/xlink" width="94.772" height="79.968" viewBox="0 0 94.772 79.968">
  <defs>
    <clipPath id="clip-path">
      <path id="Path_7732" data-name="Path 7732" d="M0,43.015H94.772V-36.953H0Z" transform="translate(0 36.953)" fill="none"/>
    </clipPath>
  </defs>
  <g id="Group_7153" data-name="Group 7153" transform="translate(-162.776 -3744.194)">
    <g id="Group_5181" data-name="Group 5181" transform="translate(162.776 3744.195)" clip-path="url(#clip-path)">
      <g id="Group_5177" data-name="Group 5177" transform="translate(1.567 14.121)">
        <path id="Path_7728" data-name="Path 7728" d="M45.54,25.3H-39.122V-15.463a6.271,6.271,0,0,1,6.271-6.271H39.268a6.27,6.27,0,0,1,6.271,6.271Z" transform="translate(39.122 21.734)" fill="#605477"/>
      </g>
      <g id="Group_5178" data-name="Group 5178" transform="translate(1.567 14.121)">
        <path id="Path_7729" data-name="Path 7729" d="M42.166,25.3h-78.39V-15.463a6.271,6.271,0,0,1,6.271-6.271H35.895a6.27,6.27,0,0,1,6.271,6.271Z" transform="translate(36.224 21.734)" fill="#b2d3d3"/>
      </g>
      <g id="Group_5179" data-name="Group 5179" transform="translate(1.568 61.155)">
        <path id="Path_7730" data-name="Path 7730" d="M3.373,4.216H75.492a6.271,6.271,0,0,0,6.271-6.271V-3.622H-2.9v1.567A6.271,6.271,0,0,0,3.373,4.216" transform="translate(2.898 3.622)" fill="#605477"/>
      </g>
      <g id="Group_5180" data-name="Group 5180" transform="translate(1.567 61.155)">
        <path id="Path_7731" data-name="Path 7731" d="M38.793,4.216H-27.055a6.271,6.271,0,0,1-6.271-6.271V-3.622h78.39v1.567a6.271,6.271,0,0,1-6.271,6.271" transform="translate(33.326 3.622)" fill="#605477"/>
      </g>
    </g>
    <path id="Path_7733" data-name="Path 7733" d="M15.938,1.2h14.11V-5.071H15.938Z" transform="translate(181.328 3818.26)" fill="#605477"/>
    <path id="Path_7734" data-name="Path 7734" d="M15.938-.486h9.407V-3.622H15.938Z" transform="translate(181.328 3819.946)" fill="#3a2856"/>
    <g id="Group_5189" data-name="Group 5189" transform="translate(162.776 3744.195)" clip-path="url(#clip-path)">
      <g id="Group_5182" data-name="Group 5182" transform="translate(25.086 75.265)">
        <path id="Path_7735" data-name="Path 7735" d="M16.866,2.529H-14.489V.963a3.133,3.133,0,0,1,3.134-3.136H13.73A3.135,3.135,0,0,1,16.866.963Z" transform="translate(14.489 2.173)" fill="#605477"/>
      </g>
      <g id="Group_5183" data-name="Group 5183" transform="translate(47.033 75.265)">
        <path id="Path_7736" data-name="Path 7736" d="M5.06,2.529H-4.347V.963A3.135,3.135,0,0,1-1.211-2.173H1.924A3.135,3.135,0,0,1,5.06.963Z" transform="translate(4.347 2.173)" fill="#605477"/>
      </g>
      <g id="Group_5184" data-name="Group 5184" transform="translate(21.949 67.425)">
        <path id="Path_7737" data-name="Path 7737" d="M3.373,1.687A3.136,3.136,0,1,1,.238-1.449,3.136,3.136,0,0,1,3.373,1.687" transform="translate(2.898 1.449)" fill="#c12b30"/>
      </g>
      <g id="Group_5185" data-name="Group 5185" transform="translate(25.085 67.425)">
        <path id="Path_7738" data-name="Path 7738" d="M0,0V6.271A3.136,3.136,0,0,0,3.136,3.136,3.136,3.136,0,0,0,0,0" fill="#c12b30"/>
      </g>
      <g id="Group_5186" data-name="Group 5186" transform="translate(0.001 4.715)">
        <path id="Path_7739" data-name="Path 7739" d="M15.179,23.613H8.908a21.949,21.949,0,0,1,0-43.9h6.271a21.949,21.949,0,1,1,0,43.9" transform="translate(13.04 20.285)" fill="#c12b30"/>
      </g>
      <g id="Group_5187" data-name="Group 5187" transform="translate(0.001 4.713)">
        <path id="Path_7740" data-name="Path 7740" d="M23.613,11.807a21.949,21.949,0,1,1-21.95-21.95,21.949,21.949,0,0,1,21.95,21.95" transform="translate(20.285 10.143)" fill="#b7dd5e"/>
      </g>
      <g id="Group_5188" data-name="Group 5188" transform="translate(6.272 10.984)">
        <path id="Path_7741" data-name="Path 7741" d="M16.866,8.433A15.677,15.677,0,1,1,1.187-7.245,15.679,15.679,0,0,1,16.866,8.433" transform="translate(14.489 7.245)" fill="#f4efe8"/>
      </g>
    </g>
    <path id="Path_7743" data-name="Path 7743" d="M16.414-11.353H10.143v-3.136h6.271Z" transform="translate(174.583 3807.297)" fill="#f4efe8"/>
    <g id="Group_5221" data-name="Group 5221" transform="translate(162.776 3744.195)" clip-path="url(#clip-path)">
      <g id="Group_5190" data-name="Group 5190" transform="translate(21.949 48.612)">
        <path id="Path_7744" data-name="Path 7744" d="M0,0V1.567H1.567A1.569,1.569,0,0,1,3.136,3.136H6.271V0Z" fill="#b7dd5e"/>
      </g>
      <g id="Group_5191" data-name="Group 5191" transform="translate(20.382 51.747)">
        <path id="Path_7745" data-name="Path 7745" d="M4.216,10.12H-2.055A1.566,1.566,0,0,1-3.622,8.553V-7.125A1.568,1.568,0,0,1-2.055-8.694H4.216A1.568,1.568,0,0,1,5.783-7.125V8.553A1.566,1.566,0,0,1,4.216,10.12" transform="translate(3.622 8.694)" fill="#b7dd5e"/>
      </g>
      <g id="Group_5192" data-name="Group 5192" transform="translate(25.084 51.747)">
        <path id="Path_7746" data-name="Path 7746" d="M1.687,10.12H-1.449V-8.694H1.687A1.568,1.568,0,0,1,3.253-7.125V8.553A1.566,1.566,0,0,1,1.687,10.12" transform="translate(1.449 8.694)" fill="#b7dd5e"/>
      </g>
      <g id="Group_5193" data-name="Group 5193" transform="translate(16.461 23.266)">
        <path id="Path_7747" data-name="Path 7747" d="M4.639,5.622H3.855v-8.1A2.353,2.353,0,0,0,1.5-4.83H-1.633A2.353,2.353,0,0,0-3.985-2.478,2.353,2.353,0,0,0-1.633-.125h.783V5.622h-.783A2.353,2.353,0,0,0-3.985,7.975a2.351,2.351,0,0,0,2.352,2.35H4.639a2.351,2.351,0,1,0,0-4.7" transform="translate(3.985 4.83)" fill="#3a2856"/>
      </g>
      <g id="Group_5194" data-name="Group 5194" transform="translate(18.813 15.688)">
        <path id="Path_7748" data-name="Path 7748" d="M1.687,3.373A3.136,3.136,0,1,0-1.449.238,3.136,3.136,0,0,0,1.687,3.373" transform="translate(1.449 2.898)" fill="#3a2856"/>
      </g>
      <g id="Group_5195" data-name="Group 5195" transform="translate(54.553 29.342)">
        <path id="Path_7749" data-name="Path 7749" d="M.124,6.956A8.454,8.454,0,0,1,.4,6.032C1.065,4.184,2.7,1.763,6.683.713c3.936-1.034,8.862-.37,13.625.273a49.659,49.659,0,0,0,9.407.712c5.371-.379,6.9-6.267,6.916-6.325a1.769,1.769,0,0,1,2.132-1.3,1.768,1.768,0,0,1,1.3,2.116.139.139,0,0,0,0,.015A14.106,14.106,0,0,1,38.085.449a10.54,10.54,0,0,1-8.124,4.772,52.8,52.8,0,0,1-10.123-.736c-4.423-.6-9-1.214-12.257-.355a5.118,5.118,0,0,0-3.863,3.1,4.986,4.986,0,0,0-.277,2.114A1.767,1.767,0,0,1,.295,10.683a1.777,1.777,0,0,1-.346-.812A8.433,8.433,0,0,1,.124,6.956M38.8-4.1a.471.471,0,0,0-.346-.563.469.469,0,0,0-.565.346c-.017.069-1.731,6.866-8.087,7.312a50.374,50.374,0,0,1-9.669-.721C15.5,1.646,10.7,1,7.014,1.968c-3.443.9-4.834,2.95-5.4,4.506a7.246,7.246,0,0,0-.385,3.2.483.483,0,0,0,.091.216.468.468,0,0,0,.749-.009.477.477,0,0,0,.087-.348A6.186,6.186,0,0,1,2.5,6.792,6.344,6.344,0,0,1,7.252,2.875c3.508-.924,8.21-.29,12.757.325a51.91,51.91,0,0,0,9.862.727A9.287,9.287,0,0,0,37.018-.289,12.665,12.665,0,0,0,38.8-4.1v0" transform="translate(0.106 5.976)" fill="#c12b30"/>
      </g>
      <g id="Group_5196" data-name="Group 5196" transform="translate(61.126 38.284)">
        <path id="Path_7750" data-name="Path 7750" d="M.025,7.914a1.668,1.668,0,0,1,.1-.3,1.762,1.762,0,0,1,2.32-.92,5.051,5.051,0,0,0,2.108.264A5.124,5.124,0,0,0,8.534,4.01c1.485-2.629,2.1-6.665,2.554-10.242a.648.648,0,0,1,.725-.56.648.648,0,0,1,.563.725C11.9-2.37,11.263,1.813,9.663,4.648a6.34,6.34,0,0,1-4.995,3.6,6.174,6.174,0,0,1-2.74-.366.464.464,0,0,0-.357-.006.467.467,0,0,0-.013.866,7.224,7.224,0,0,0,3.194.439c1.647-.147,3.978-.976,5.726-4.075C12.163,2.127,12.819-2.156,13.3-5.936a.649.649,0,0,1,.727-.56.648.648,0,0,1,.56.725C14.067-1.69,13.407,2.56,11.611,5.745,9.586,9.335,6.826,10.3,4.87,10.476a8.533,8.533,0,0,1-3.826-.541A1.765,1.765,0,0,1,.025,7.914" transform="translate(0.021 6.798)" fill="#c12b30"/>
      </g>
      <g id="Group_5197" data-name="Group 5197" transform="translate(72.505 19.684)">
        <path id="Path_7751" data-name="Path 7751" d="M.62,5.265c.188-.805.4-1.573.649-2.3A10.542,10.542,0,0,1,7.945-3.687a14.046,14.046,0,0,1,4.607-.835,1.765,1.765,0,0,1,1.731,1.8,1.751,1.751,0,0,1-.541,1.238,1.76,1.76,0,0,1-1.259.493c-.058,0-6.142-.015-7.871,5.085a46.3,46.3,0,0,0-1.636,8.79.649.649,0,0,1-1.288-.158,46.986,46.986,0,0,1,1.7-9.048C5.43-2.361,12.44-2.292,12.509-2.289a.464.464,0,0,0,.333-.132.463.463,0,0,0,.145-.329.469.469,0,0,0-.461-.476,12.589,12.589,0,0,0-4.14.76A9.276,9.276,0,0,0,2.5,3.376,48.227,48.227,0,0,0,.76,12.588a.648.648,0,0,1-.723.565.652.652,0,0,1-.565-.725A70.513,70.513,0,0,1,.62,5.265" transform="translate(0.532 4.523)" fill="#c12b30"/>
      </g>
      <g id="Group_5198" data-name="Group 5198" transform="translate(85.042 22.075)">
        <path id="Path_7752" data-name="Path 7752" d="M.007.2A.483.483,0,0,1,.184-.073.492.492,0,0,1,.873.015L7.259,8.293a.491.491,0,1,1-.777.6L.1.615A.49.49,0,0,1,.007.2" transform="translate(0.006 0.175)" fill="#c12b30"/>
      </g>
      <g id="Group_5199" data-name="Group 5199" transform="translate(82.568 22.613)">
        <path id="Path_7753" data-name="Path 7753" d="M.007.2A.483.483,0,0,1,.184-.073.492.492,0,0,1,.873.015L8.564,9.983a.491.491,0,1,1-.777.6L.1.615A.49.49,0,0,1,.007.2" transform="translate(0.006 0.175)" fill="#c12b30"/>
      </g>
      <g id="Group_5200" data-name="Group 5200" transform="translate(80.392 23.538)">
        <path id="Path_7754" data-name="Path 7754" d="M.007.2A.483.483,0,0,1,.184-.073.492.492,0,0,1,.873.015L9.319,10.963a.491.491,0,1,1-.777.6L.1.615A.49.49,0,0,1,.007.2" transform="translate(0.006 0.175)" fill="#c12b30"/>
      </g>
      <g id="Group_5201" data-name="Group 5201" transform="translate(78.411 24.716)">
        <path id="Path_7755" data-name="Path 7755" d="M.007.2A.483.483,0,0,1,.184-.073.492.492,0,0,1,.873.015l8.686,11.26a.491.491,0,0,1-.777.6L.1.615A.49.49,0,0,1,.007.2" transform="translate(0.006 0.175)" fill="#c12b30"/>
      </g>
      <g id="Group_5202" data-name="Group 5202" transform="translate(77.205 26.898)">
        <path id="Path_7756" data-name="Path 7756" d="M.007.2A.483.483,0,0,1,.184-.073.492.492,0,0,1,.873.015L8.581,10a.491.491,0,1,1-.777.6L.1.615A.49.49,0,0,1,.007.2" transform="translate(0.006 0.175)" fill="#c12b30"/>
      </g>
      <g id="Group_5203" data-name="Group 5203" transform="translate(76.142 29.265)">
        <path id="Path_7757" data-name="Path 7757" d="M.007.2A.483.483,0,0,1,.184-.073.492.492,0,0,1,.873.015L7.01,7.97a.491.491,0,1,1-.777.6L.1.615A.49.49,0,0,1,.007.2" transform="translate(0.006 0.175)" fill="#c12b30"/>
      </g>
      <g id="Group_5204" data-name="Group 5204" transform="translate(75.548 32.241)">
        <path id="Path_7758" data-name="Path 7758" d="M.007.2A.483.483,0,0,1,.184-.073.492.492,0,0,1,.873.015L4.56,4.794a.491.491,0,0,1-.777.6L.1.615A.49.49,0,0,1,.007.2" transform="translate(0.006 0.175)" fill="#c12b30"/>
      </g>
      <g id="Group_5205" data-name="Group 5205" transform="translate(57.103 43.631)">
        <path id="Path_7759" data-name="Path 7759" d="M.007.2A.483.483,0,0,1,.184-.073.492.492,0,0,1,.873.015L7.259,8.293a.491.491,0,1,1-.777.6L.1.615A.49.49,0,0,1,.007.2" transform="translate(0.006 0.175)" fill="#c12b30"/>
      </g>
      <g id="Group_5206" data-name="Group 5206" transform="translate(57.886 40.901)">
        <path id="Path_7760" data-name="Path 7760" d="M.007.2A.483.483,0,0,1,.184-.073.492.492,0,0,1,.873.015L9.319,10.963a.491.491,0,1,1-.777.6L.1.615A.49.49,0,0,1,.007.2" transform="translate(0.006 0.175)" fill="#c12b30"/>
      </g>
      <g id="Group_5207" data-name="Group 5207" transform="translate(59.698 39.504)">
        <path id="Path_7761" data-name="Path 7761" d="M.007.2A.483.483,0,0,1,.184-.073.492.492,0,0,1,.873.015L9.319,10.963a.491.491,0,1,1-.777.6L.1.615A.49.49,0,0,1,.007.2" transform="translate(0.006 0.175)" fill="#c12b30"/>
      </g>
      <g id="Group_5208" data-name="Group 5208" transform="translate(61.74 38.406)">
        <path id="Path_7762" data-name="Path 7762" d="M.007.2A.483.483,0,0,1,.184-.073.492.492,0,0,1,.873.015L8.949,10.483a.491.491,0,1,1-.777.6L.1.615A.49.49,0,0,1,.007.2" transform="translate(0.006 0.175)" fill="#c12b30"/>
      </g>
      <g id="Group_5209" data-name="Group 5209" transform="translate(64.322 37.997)">
        <path id="Path_7763" data-name="Path 7763" d="M.007.188a.454.454,0,0,1,.8-.173L7.347,8.49a.454.454,0,0,1-.718.554L.089.569A.453.453,0,0,1,.007.188" transform="translate(0.006 0.162)" fill="#c12b30"/>
      </g>
      <g id="Group_5210" data-name="Group 5210" transform="translate(67.217 37.993)">
        <path id="Path_7764" data-name="Path 7764" d="M.006.175A.428.428,0,0,1,.16-.063.423.423,0,0,1,.751.013l4.41,5.72a.421.421,0,0,1-.667.515L.082.528A.418.418,0,0,1,.006.175" transform="translate(0.005 0.15)" fill="#c12b30"/>
      </g>
      <g id="Group_5211" data-name="Group 5211" transform="translate(70.311 38.28)">
        <path id="Path_7765" data-name="Path 7765" d="M.007.2A.483.483,0,0,1,.184-.073.492.492,0,0,1,.873.015L2.656,2.327a.491.491,0,1,1-.777.6L.1.615A.49.49,0,0,1,.007.2" transform="translate(0.006 0.175)" fill="#c12b30"/>
      </g>
      <g id="Group_5212" data-name="Group 5212" transform="translate(50.908 14.413)">
        <path id="Path_7766" data-name="Path 7766" d="M3.773,2.4a3.793,3.793,0,0,1-.169.493,3.566,3.566,0,0,1-6.587-.05A3.545,3.545,0,0,1-2.955.117,3.548,3.548,0,0,1-1-1.8a3.545,3.545,0,0,1,2.727.019A3.554,3.554,0,0,1,3.773,2.4M-1.732.971A2.1,2.1,0,0,0-1.648,2.3,2.1,2.1,0,0,0-.509,3.462a2.111,2.111,0,0,0,1.627.011A2.133,2.133,0,0,0,2.3.705,2.124,2.124,0,0,0-.468-.465,2.119,2.119,0,0,0-1.63.677a2.057,2.057,0,0,0-.1.294" transform="translate(3.242 2.062)" fill="#b7dd5e"/>
      </g>
      <g id="Group_5213" data-name="Group 5213" transform="translate(61.465 8.743)">
        <path id="Path_7767" data-name="Path 7767" d="M3.774,2.4a3.793,3.793,0,0,1-.169.493,3.566,3.566,0,0,1-6.587-.05A3.535,3.535,0,0,1-2.954.117,3.548,3.548,0,0,1-1-1.8a3.545,3.545,0,0,1,2.727.019A3.542,3.542,0,0,1,3.633.164,3.54,3.54,0,0,1,3.774,2.4M-1.732.971A2.1,2.1,0,0,0-1.647,2.3,2.1,2.1,0,0,0-.509,3.462a2.111,2.111,0,0,0,1.627.011A2.133,2.133,0,0,0,2.3.705,2.124,2.124,0,0,0-.468-.465,2.119,2.119,0,0,0-1.63.677a2.057,2.057,0,0,0-.1.294" transform="translate(3.242 2.062)" fill="#b7dd5e"/>
      </g>
      <g id="Group_5214" data-name="Group 5214" transform="translate(70.308 0)">
        <path id="Path_7768" data-name="Path 7768" d="M3.774,2.4a3.793,3.793,0,0,1-.169.493,3.562,3.562,0,0,1-1.95,1.915,3.54,3.54,0,0,1-2.729-.022A3.518,3.518,0,0,1-2.982,2.843,3.535,3.535,0,0,1-2.954.117,3.555,3.555,0,0,1-1-1.8h0a3.545,3.545,0,0,1,2.727.019A3.554,3.554,0,0,1,3.774,2.4m-5.5-1.43A2.105,2.105,0,0,0-1.647,2.3a2.126,2.126,0,0,0,3.928.028A2.121,2.121,0,0,0,2.3.705,2.1,2.1,0,0,0,1.16-.452,2.121,2.121,0,0,0-.468-.465h0A2.128,2.128,0,0,0-1.729.969" transform="translate(3.242 2.062)" fill="#b7dd5e"/>
      </g>
      <g id="Group_5215" data-name="Group 5215" transform="translate(73.149 10.144)">
        <path id="Path_7769" data-name="Path 7769" d="M3.774,2.4a3.793,3.793,0,0,1-.169.493,3.562,3.562,0,0,1-1.95,1.915A3.56,3.56,0,0,1-2.982,2.843,3.535,3.535,0,0,1-2.954.117,3.548,3.548,0,0,1-1-1.8a3.545,3.545,0,0,1,2.727.019A3.542,3.542,0,0,1,3.633.164,3.54,3.54,0,0,1,3.774,2.4M-1.732.971A2.119,2.119,0,0,0-.509,3.462a2.129,2.129,0,0,0,2.789-1.13A2.111,2.111,0,0,0,2.3.705,2.126,2.126,0,0,0-.468-.465,2.119,2.119,0,0,0-1.63.677a2.057,2.057,0,0,0-.1.294" transform="translate(3.242 2.062)" fill="#b7dd5e"/>
      </g>
      <g id="Group_5216" data-name="Group 5216" transform="translate(61.249 19.808)">
        <path id="Path_7770" data-name="Path 7770" d="M3.773,2.4a3.793,3.793,0,0,1-.169.493,3.562,3.562,0,0,1-1.95,1.915,3.54,3.54,0,0,1-2.729-.022A3.518,3.518,0,0,1-2.983,2.843,3.576,3.576,0,0,1-1.006-1.8h0a3.545,3.545,0,0,1,2.727.019A3.554,3.554,0,0,1,3.773,2.4M-1.73.969A2.113,2.113,0,0,0-1.648,2.3,2.1,2.1,0,0,0-.51,3.462a2.121,2.121,0,0,0,1.627.013A2.136,2.136,0,0,0,2.3.705,2.126,2.126,0,0,0-1.73.969" transform="translate(3.241 2.062)" fill="#b7dd5e"/>
      </g>
      <g id="Group_5217" data-name="Group 5217" transform="translate(56.234 13.017)">
        <path id="Path_7771" data-name="Path 7771" d="M3.781.485A.72.72,0,0,1,3.4.948L-2.211,3.72a.718.718,0,0,1-.963-.327.72.72,0,0,1,.329-.963L2.768-.342a.716.716,0,0,1,.963.327.707.707,0,0,1,.05.5" transform="translate(3.248 0.417)" fill="#b7dd5e"/>
      </g>
      <g id="Group_5218" data-name="Group 5218" transform="translate(64.543 14.564)">
        <path id="Path_7772" data-name="Path 7772" d="M.764,3.356a.523.523,0,0,1-.21.314.719.719,0,0,1-.6.158.717.717,0,0,1-.573-.84c0-.006,0-.015,0-.022.026-.446,0-2.924-.041-5.116a.723.723,0,0,1,.708-.734.715.715,0,0,1,.731.7A39.307,39.307,0,0,1,.764,3.356" transform="translate(0.656 2.883)" fill="#b7dd5e"/>
      </g>
      <g id="Group_5219" data-name="Group 5219" transform="translate(67.146 11.836)">
        <path id="Path_7773" data-name="Path 7773" d="M4.063.649a.725.725,0,0,1-.734.537l-6.137-.3A.719.719,0,0,1-3.49.127a.726.726,0,0,1,.757-.684l6.137.3A.719.719,0,0,1,4.087.5a.835.835,0,0,1-.024.147" transform="translate(3.49 0.557)" fill="#b7dd5e"/>
      </g>
      <g id="Group_5220" data-name="Group 5220" transform="translate(74.559 5.315)">
        <path id="Path_7774" data-name="Path 7774" d="M.79,3.279A.722.722,0,0,1,.1,3.816a.717.717,0,0,1-.727-.71L-.679-2.088a.722.722,0,0,1,.712-.729.718.718,0,0,1,.727.71L.814,3.087a.8.8,0,0,1-.024.193" transform="translate(0.679 2.817)" fill="#b7dd5e"/>
      </g>
    </g>
  </g>
</svg>
