<svg xmlns="http://www.w3.org/2000/svg" xmlns:xlink="http://www.w3.org/1999/xlink" width="126.571" height="126.57" viewBox="0 0 126.571 126.57">
  <defs>
    <clipPath id="clip-path">
      <path id="Path_8689" data-name="Path 8689" d="M0,28.056,75.327,59.169h.153l7.28-27.725v-.3L7.364,0Z" fill="none"/>
    </clipPath>
    <clipPath id="clip-path-3">
      <path id="Path_8698" data-name="Path 8698" d="M0,59.5H119.5V0H0Z" fill="none"/>
    </clipPath>
  </defs>
  <g id="Group_6931" data-name="Group 6931" transform="translate(42.073) rotate(45)">
    <g id="Group_6255" data-name="Group 6255" transform="translate(0 0.273)" clip-path="url(#clip-path)">
      <g id="Group_6244" data-name="Group 6244" transform="translate(6.861 1.559)">
        <path id="Path_8678" data-name="Path 8678" d="M60.753,29.513c.1.139.168.747.31.894.733.768,1.588.944,2.391,2.048.541.744.78,2.1,1.76,2.077l-.262.323c1.448.846,2.022,2.763,2.747,4.4.143.321.448.515.568.786.323.736.293,2.311.591,3.06.226.568.673.786.853,1.178.293.639.008,2.142.794,1.782-.58.852-.038,1.866-.006,2.865.046,1.459,0,2.613-1.048,3.417a14.9,14.9,0,0,1-3.472,1.406c-.411-.3.247-1.3.36-1.69.291-1,.5-2.048.792-3.049l-.363.071c.974-1.682.685-4.069-1.184-4.311-.7-.092-.576.639-.889.628a8.322,8.322,0,0,1-1.322-2.056c-.224-.5.088-.355-.44-1.117-.1-.147.023-.347.008-.371-.153-.255-.616.865-1.033.844-.641-.029-.562-.86-.912-1-.467-.192-1.106.591-1.232.581a18.234,18.234,0,0,1-3.824-1.146.484.484,0,0,1-.262-.326c-.132-.549,1.391.184,1.591.221l-.5-.744c.159-.039.838-.413.882-.394s.2.434.134.484-.333-.315-.365.066l2.24.71c-.138-.818-1.188-.957-1.614-1.322-.119-.1-.021-.379-.04-.4-.247-.3-.622.237-.933.326-.335.095-.677.034-.987.137-.926.3-2.263,1.446-2.961.413.692.055.918-.917,1.188-1.091.2-.126.61.074.853-.021.191-.079.094-.478.115-.484.149-.05.6.347.857.016-1.165-1.3-1.293-.584-2.291-.187a28.938,28.938,0,0,0-3.508,1.159c-.08-1.262.308-.681.744-.9.245-.124.335-.542.624-.718.308-.187,1.882-.513,1.741-1.012-.794.557-1.176-.41-1.838-.547-.39-.079-1.842,1.364-2.45,1.711-.358.205-1.9.92-2.182.726-.421-.752.346-.97.8-.757.168-.292-.264-.216-.241-.426.082-.812,1.287-.655,1.865-.9.84-.347,2.311-1.375.606-1.885l.31-.52c-1.119-.489-2.075.6-3.164,1.041-1.588.636-3.632,1.306-5.21.5l.44.618c.731,3.7,2.655,7.095,3.9,10.609.18.973-.153,1.059-.821.886L40.3,35.369l-2.01,1.4c-.212.344.228.384.2.5-.025.1-.235.292-.3.536a13.843,13.843,0,0,1-.409,1.582c-.268.6-1.5.833-1.681.074-.075-.3.555-2.626.444-3.307-.381.1-.754-.2-1.117-.024-.453.216-1.461,2.071-1.93,2.027-.187-.016-.918-1.291-.918-1.383,0-.712.708-.715.725-.775.251-.949-.9-1.385-1.377-1.272-.3.071-1.123,1.719-1.871,1.68-1.132-.06-.616-1.5-.126-2.245.247-.373.9-.3.983-.983-.511-.179-1.033.329-1.557.181-.346-.1-.511-.471-.966-.489-.413-.016-1.312.657-1.846.62-.689-.047-1.79-.946-1.075-1.7.3-.315,2.651-.573,3.146-1.083-.616-.691-1.456-.426-2.186-.907l.413-.26c-1.243-.258-1.662-1.535-2.678-2.318-.216-.166-.467-.047-.568-.108s.038-.46-.063-.465a10.822,10.822,0,0,0-3.667.21c-.136.05-1.289,1.677-1.459,1.149a3.486,3.486,0,0,1,1.785-2.524c.629-.3,1.423.084,1.586-1.078a24.651,24.651,0,0,1-2.949-1.485c-.539-.368-.8-1.322-1.241-1.506-.289-.121-.566.263-.872.3a25.953,25.953,0,0,0-5.176,1.225c-.428.121-1.165-.513-1.427.342l-.153-.063c.289-.828-.564-.271-.966-.289a10.971,10.971,0,0,1-1.781-.216,22.645,22.645,0,0,1-3.663-1.49A4.705,4.705,0,0,0,3.727,20.2c-.044-.46-.616-.473-.344-1,1.188.9,2.039-.991,3.129-1.54a12.372,12.372,0,0,1,3.135-.544c2.131-.239,4.08.108,6.178-.208.49-.074.671.347.769-.5a9.92,9.92,0,0,0-2.314-.741c-4.124-1.609-9.032-6.884-11.815-11A37.583,37.583,0,0,1,.115.918C-.344-.2.72-.039.771.093A1.486,1.486,0,0,0,.747.839C3.069,4.37,5.354,7.887,8.319,10.6c1.3,1.188,2.8,1.6,4.229,2.392.757.418,1.534,1.228,2.36,1.58.153.066,1,.313,1.109.071a19.375,19.375,0,0,1-4.671-3.012c-.075-.357.153-.757.369-.723.331.055,1.245,1.943,2.11,1.527l-.26.323.939.386-.21-.518.624.255-1.9-2.476c-.606-.639-.017-1.057.448-.62.235.221.566,1.015.907,1.4.668.749,1.582,1.525,2.276,2.282l3.426,1.548c.113-.355-.346-.273-.547-.552-.386-.536-.465-2.087.277-2.379l-1.771-.518c.13-1.159.444-.565,1.09-.691,2.14-.418,3.125-.016,5.027-.142.352-.024.624-.326.9-.344,4.231-.271,7.276,1.462,11.065,3.228,1.167.544,2.37.594,3.546,1.017a29.9,29.9,0,0,1,8.349,5.029c.455.4.725,1.162,1.09,1.435.675.5,1.706.623,2.441,1.072.66.4,1.148,1.4,1.649,1.735.541.368,1.306.426,1.85.791s1.285,1.467,1.838,1.943c.958.828,3.221,1.961,3.868,2.873M30.721,18.472c.277-.331.363-.691.589-.975.352-.444,1.486-.765.616-1.879-1.148-1.48-1.473-.142-2.058-.079-.692.074-1.278-.694-1.811-.263a5.649,5.649,0,0,0,.019,1.958c.327.873,2.11.81.97,2.571.694.234,1.008-.823,1.289-1.154.161-.187.354-.139.386-.179M46.654,33.679c-1.023-1.314-2.944-.373-3.663,1.009.792-.284.6.468.643.484a7.645,7.645,0,0,0,2.544-.468c.08-.089.015-.41.036-.421.086-.034.4.536.652.158.1-.15-.168-.7-.212-.762" fill="#605477"/>
      </g>
      <g id="Group_6245" data-name="Group 6245" transform="translate(7.078 2.323)">
        <path id="Path_8679" data-name="Path 8679" d="M22.457,24.042c-1.186-.731-2.745-1.243-3.837-2.069-.7-.528-1.083-1.945-2-1.656-.151.05-.26.347-.4.379-.419.1-1.327-.045-1.93.074C12.081,21.2,9.581,22.2,7.282,21.8a30.8,30.8,0,0,1-3.929-1.535l.038-1.493c.53.137.513.173.314.781l.6.029c.247.376.021.486-.126.815a6.879,6.879,0,0,0,3.906.962c.153-.247-.576-.415-.157-.712.442-.313,2.366.473,2.961.147.21-.113.272-.476.545-.662.367-.25.889-.118,1.142-.247.1-.05,1.213-.867,1.264-.936.277-.384.086-1.13.325-1.593l.522.649.017-.828c-1.077-.786-2.341.263-3.416-.373l-.247.563c-.277.013.126-.781-.337-.352-.654.612-.677,1.94-1.012,2.826-.53-.371-.853.081-1.3.168a7.291,7.291,0,0,1-3.116.189c.757-.676,3.69-.195,4.225-1,.073-.11.207-.439.063-.489L7.4,18.69l1.037-.655L7.6,17.9l.178-.365L6.4,17.191c.662-.694,1.93-.618,2.8-.649a20.6,20.6,0,0,0,2.242-.26c1.207-.139,2.517.52,3.751.418l-.031.749.564,1.4c.4.039,1.165-.494,1.53-.754.419-.294.44-.907,1.037-.657-.522-1.057-1.614-.72-2.4-.77-.172-.013-.57.074-.442-.292.583.129,1.486-.31,2.024-.15.369.11.916.523,1.391.7,1.572.573,1.419.121,2.689,1.717.124.155,1.306,2.216,1.268,1.325l-.6-2.111c-.067-.095-1.559-1.2-1.731-1.285-.788-.407-2-.071-2.808-.468C13.883,14.226,9.9,12.476,6.494,9.411,6.4,9.326,5.241,7.81,4.918,7.429A41.675,41.675,0,0,1,0,0C1.622,1.874,2.8,4.366,4.35,6.317a30.288,30.288,0,0,0,9.571,7.589,21.141,21.141,0,0,0,3.15,1.133c.834.039.754-1.682,1.821-.949.1.074-.008.418.092.489.4.287,1.643-.334,2.276.179.645-.56-.281-.973-.677-1.038-.377-.06-.748.331-1.062.16-.826-.442-.706-2.432.22-2.592.358-.06.761.881.853.039l-2.81-.51.155-.581a1.426,1.426,0,0,0,.863.039,28.9,28.9,0,0,1,13.213.765A39.677,39.677,0,0,1,35.659,13c1.714.812,3.546.91,5.281,1.727a19.634,19.634,0,0,1,5.495,3.8c-.212-.142-.534-.218-.807-.384-.377-.231-.7-1.154-1.356-.618,1.28.831,2.458,2.271,3.755,2.855-.266-.849-.989-1.046-1.473-1.522a.356.356,0,0,1-.119-.331,20.926,20.926,0,0,1,2.372,2.014c.438.376,1.3.686,1.62,1.264l-.495-.095c-.006.747.522.434.811.573s.639.983,1.224.915l-1.1-1.753c.851.421,1.347,1.619,2.167,2.142a22.851,22.851,0,0,1,3.458,2.555,5.952,5.952,0,0,0,1.838,1.207l-1.3-.321a.5.5,0,0,0-.029.426,23.5,23.5,0,0,0,1.982,1.993c.115.1.333.032.4.087.111.092,0,.426.082.471.409.229.662-.407.933-.3a11.73,11.73,0,0,1,1.536,1.094c-.048.352-.428.055-.593-.032-.379-.2-.7-.594-1.125-.678-.09.925.388.647.757,1.07.168.195.155.631.417.883.327.313,1,.555,1.385.841l-.465.455,1.668.91-.26.321c.539.326.876.652.681,1.372-.354-.081-.377-.578-.643-.818-1.643-1.493-3.355-3.189-4.918-4.892-.448-.489-.782-1.383-1.609-1.937-.7-.471-2.28-.189-1.553-1.37-.27-.15-.666-.357-.467-.86l1.306.97c-.352-1.446-2.19-2.616-3.319-2.889-.226-.055-.48-.081-.331.294l1.758,1.178-.193.773-2.873-1.83-.027-.683-1.6-.41-.14-.51-.2.368-1.27-.959c-.633.155-.176.513-.275.957a7.36,7.36,0,0,0-2.842-2.042l.522.649c.258.988-2.043-.218-2.263-.281-.8-.229-1.48-.481-2.238-.731a5.937,5.937,0,0,1-1.54-.4l1.379,1.02,2.529.594c-.673.607-1.465-.06-2.11-.223-.243-.063-.518-.042-.333.3a8.815,8.815,0,0,1,2.425,1.327c.159.121.505.21.39.484-3.791-1.18-8.1-2.552-9.841-7.421-.482-1.354-.44-2.4-1.364-3.551-1.444-1.8-4.457-1.427-6.358-1.887A6.911,6.911,0,0,0,24.8,15.291c-.027.626.557,1.929.472,2.65-.1.878-1.136,1.908-.4,2.534.476-.452,1.211-1.08,1.844-.931.44.1.836.731,1.287.931a24.739,24.739,0,0,0,3.345-.105c1.752-.192,1.66-1.209,3.757.013.8.463,1.32,1.343,2,1.837a26.167,26.167,0,0,0,2.812,1.656c2.33,1.151,4.744,1.362,7.069,2.476-.331.407,0,1.388-.08,1.567-.092.216-.935.478-.849,1.306l-.272-.565c-1.257-.321-2.5-1.278-3.755-1.506-1.3-.237-2.624.41-3.915-.016.486,1.072,1.167,3.554,1.985,4.14.775.555,2.379,1.309,3.131.476l.163.452.486.032-1.32,1.088L40.89,34.37l5.032,12.5-.534.3L40.018,34.422a3.762,3.762,0,0,0-2.586,2.539l-.692-.294-.912,1.8c.363-.815.187-2.2.434-2.96.143-.431.677-.736.694-1.351l-2.779,1.674.281-1.4-.933.263.828-1.175c-.513-.252-.541.694-1.092.2,1.19-1.672-2.1-1.493-1.771-.513l.7-.36c.448.034.034.523.08.686l.807.221c-.474.4-1.106-.074-1.559.013-.618.121-.92,1.677-1.689,1.141L31,33.755c-.419-.371-.189-.3.021-.744-.513-.407-.365.51-.52.655l-.241-.284-.8.936c-.262-.047-.107-.339-.006-.5.237-.36,2.1-1.79,2.029-1.922-.6-.357-1.243.218-1.79.247s-1.461-.3-2.06-.26c-.442.034-.895.607-1.4.229-.159-.287,1.957-.389.96-1.023-.656-.418-1.31.373-1.9.636a.9.9,0,0,1,.432-.7c.08-.063,1.635-.7,1.79-.736a8.339,8.339,0,0,1,2.81.021l.218-.754c-.618-.607-1.092-.024-1.511-.029a4.788,4.788,0,0,1-2.766-1.078l-.075-.173c.115-.57.383-1.178.467-1.743.042-.281.174-.3-.157-.381-.562.173-1.232.355-1.435,1.13-.245.142-1.45-1.475-1.911-1.625-.241-.079-.566.152-.865.1-.258-.047-1.593-.518-1.676-.489-.136.047-.247.518-.49.415.262-1.53,1.429-.8,2-1.017.289-.108.243-.489.333-.623.195.121.381.51.62.615l1.41-.444c0-.791-.138-1.845-.836-2.066a12,12,0,0,1-1.194,1.9m9.537-12.565c-2.043-.81-7.23-2.085-9.043-.536-.142.121-.545,1.067-.6.3l.031-.489c-.951-.357-2.234-.938-3.146-.2l1.555.21a17.514,17.514,0,0,1,1.211,3.1c.826-1.249.744-2.821,2.167-3.2a21.963,21.963,0,0,1,6.094.536c.608.171,1.1,1.057,1.727.276m5.319,2.844c-.054-.857-.824-.51-1.272-.731a31.549,31.549,0,0,0-3.42-1.856,8.287,8.287,0,0,0,1.5,1.927.466.466,0,0,0,.612-.079l-.39-.484c.7.195,1.274.489.993,1.5.421.239.532-.36.933-.436a3.6,3.6,0,0,1,1.044.163m2.45.581c-.593-.35-1.744-1.249-2.188-.255a9.33,9.33,0,0,0,1.62.61c.3.047.539.124.568-.355m2.967,1.228L40.282,14.9c-.31.655.689.612,1.058.883.415.3.847,1.044,1.417,1.228l-.6-.686Zm-3.21,4.316c-.082-.547-.541-.728-.813-1.2-.518-.9-.243-2.008-1.438-2.113l-.075,1.6ZM24.043,15.357c.256-.917-.1-2.229-1.016-1.4a2.18,2.18,0,0,0,1.016,1.4M33.964,25.1l2.345.97c.21-.413-.241-.765-.205-1.094.061-.573.612-.894,1.016-.318.247.352.507,1.257.811,1.622.643.781,3.024.3,3.948.35L41.043,25.2c.57.2.4.91,1.148.907l0-.649c.256-.108,1.364.726,1.668.255a28.212,28.212,0,0,1-7.142-3.17l-.283.749-.444-.615a11.036,11.036,0,0,0-.616,2.471c-.006.189.36.1.207.4ZM18.335,19.949c.694-.092.8.833,1.257,1.246.874.786,1.595.56,2.576.35.612-.131.719-.392.337-1.046a26.968,26.968,0,0,0-1.66-2.392,3.56,3.56,0,0,0-1.222-.615c-.754-.021-.838,1.809-1.289,2.458m5.176.166c-.082-.142.048-1.007-.444-1.033-.388,1.745.861,1.63,1.272,2.382.176.323.073.818.218,1.17a6.052,6.052,0,0,0,5.2,3.988c.178-.5.075-.313-.128-.492a11.737,11.737,0,0,1-1.475-1.367l.082-.938c.541.6.723,1.275,1.4,1.811.845.676,1.66.56,2.414,1.5l-.182.36-1.379-1.007c.04,2.063,2.037,1.343,3.164,1.546a14.546,14.546,0,0,1,1.917.534c.331.126,2.32,1.441,2.446.92-.457-.728-.7-2.555-1.3-2.939a25.426,25.426,0,0,1-3.875-1.472c-.821-.484-1.408-1.711-2.2-2.2a32.891,32.891,0,0,0-4.147-1.872c-.084-.032-.48-.066-.474.053.17.741.88,1.117,1.1,1.753.2.584-.316.542-.635-.011-.935-1.611-.782-.923-1.9-1.785-.153-.118-.027-.56-.21-.728-.264-.242-.782-.032-.863-.173m10.1,8.969,2.58,1.065.26-.326c-.111-.444-.868-.52-1.207-.726ZM29.5,28.907l-2.555-2.142c-.094.518-.511,1.191-.151,1.643.329.3,2.293.867,2.705.5m6.149,2.324-3.07-.841c.8.662,2.146,1.341,3.07.841m1.178,2.616c.21-.3.2-.731-.138-.86-.694-.2-1.492,1.046-.574,1.17a4.9,4.9,0,0,0,.713-.31m2.58.239c-.784-.163-1.656-.5-2.184.4l.415.392.31-.523.237.744ZM30,30.871c-.239-.36-1.4-.205-1.484.452l1.276.426c.285-.032.249-.812.207-.878" fill="#f4efe8"/>
      </g>
      <g id="Group_6246" data-name="Group 6246" transform="translate(54.77 35.324)">
        <path id="Path_8680" data-name="Path 8680" d="M13.005,2.492l-.39,2.773c.757.471,1.394,2.487,2.458,1.567a8.953,8.953,0,0,0,1.8,3.015c.455.4,1.262.689,1.744,1.112.182.16.622.6.4.967-.731-1.291-1.559-1.588-2.6-.639l.616-1.049L16.1,9.855l.031.878a9.64,9.64,0,0,1-1.054-3.257c-.266-.321-.813.894-.916,1.12-.555.152-1.111-1.054-1.337-1.122a10.475,10.475,0,0,1-1.331.486,4.85,4.85,0,0,1-1.8-.315l-.425-.828c.9.021,2.152,1.23,3.005.494.407-.352.289-1.672-.013-1.648s-.752.718-.918.71c-.987-.055-1.358-1.9-2.454-.578l-3.418.973c.073-.578.505-.3.861-.618.161-.145.172-.542.39-.615a15.431,15.431,0,0,0,2.36-.315c1.1-.489.423-1.885-.251-1.272-.2.184-.348.665-.658.657L6.543,3.746c-.006-.8.015-1.285-.587-1.78L4.736,3.181C2.928,1.659,3.02,2.9,1.741,3.812c-.14.1-1.679.865-1.741.694A2.127,2.127,0,0,1,1.48,3.162l.13.486c.226-.87,1.559-1.072,1.421-2.211C2.345,1.4,2.529.7,2.33.5S1.588.368,1.7,0C3.083.063,4.25,1.08,5.56,1.483c.231.071.472-.121.7-.026.794.329,1.35,1.264,2.737,1.33.157.008.2-.368.285-.313.187.124.532,1.044.895,1.4a5.466,5.466,0,0,0,2.006,1.1L12.488,3.8c-.943.4-1.733-.442-2.525-.933.39-.413,1.58.875,1.693.807l.05-.846.729.518c.155-.1.046-1.3.57-.852" fill="#f4efe8"/>
      </g>
      <g id="Group_6247" data-name="Group 6247" transform="translate(72.048 39.366)">
        <path id="Path_8681" data-name="Path 8681" d="M2.366,7.492c-.025-.192.1-.455-.082-.683L1.951,7.1c.245-1,.134-2.849-.689-3.328l.438-.36A6.566,6.566,0,0,1,0,0,1.121,1.121,0,0,1,.624.5a19.4,19.4,0,0,1,2.01,4.266c.038.205-.308.539-.038.862l.49-.881c.14.831.616.936.922,1.459.641,1.1,1.3,6.109.727,7.316a5.324,5.324,0,0,1-2.121,1.561c-.218.042-.388-.1-.486-.089a4.9,4.9,0,0,0,.719-2.744l.509.092c.078-.626.438-1.33.488-1.919a7.227,7.227,0,0,1-.411-1.4l-.541.423c-.017-.668.191-1.814-.528-1.953" fill="#f4efe8"/>
      </g>
      <g id="Group_6248" data-name="Group 6248" transform="translate(72.618 46.852)">
        <path id="Path_8682" data-name="Path 8682" d="M1.8.006a14.635,14.635,0,0,1-.065,4.208L.907,7.35c-.015.058-.235.066-.233.226.057.105.65-.045.884-.066A1.752,1.752,0,0,1,0,8.168,17.576,17.576,0,0,0,1.406.187c.115-.108.235-.213.39-.181" fill="#f4efe8"/>
      </g>
      <g id="Group_6249" data-name="Group 6249" transform="translate(48.543 35.195)">
        <path id="Path_8683" data-name="Path 8683" d="M6.211.068A1.989,1.989,0,0,1,4.96,1.721a27.956,27.956,0,0,1-3.395.888C1.3,2.591.015,2.342,0,1.953c.5-.265,1.163-.058,1.622-.113A13.781,13.781,0,0,0,4.556,1.3c.166-.063.821-.268.855-.3.228-.265.17-1.257.8-.923" fill="#f4efe8"/>
      </g>
      <g id="Group_6250" data-name="Group 6250" transform="translate(18.421 11.302)">
        <path id="Path_8684" data-name="Path 8684" d="M6.553,4.711c-.731,1.454-.838.447-1.565.121C3.276,4.067,1.8,3.738.317,2.187.109,1.971-.136,2.127.09,1.6A14.472,14.472,0,0,0,4.837,4.647C4.68,3.717,3.689,3.3,3.15,2.692A17.993,17.993,0,0,1,1.5.631C1.388.442,1.149.113,1.463,0A19.038,19.038,0,0,0,5.007,3.982c.5.326,1.067.229,1.547.728" fill="#f4efe8"/>
      </g>
      <g id="Group_6251" data-name="Group 6251" transform="translate(53.864 32.327)">
        <path id="Path_8685" data-name="Path 8685" d="M3.9.7c.132.336-.74.9-.9.912C1.915,1.725,1.383-.094,0,.395.029-.094.275-.01.566.037c.815.137,1.482.854,2.316.881C3.347.933,3.5.555,3.9.7" fill="#f4efe8"/>
      </g>
      <g id="Group_6252" data-name="Group 6252" transform="translate(57.686 39.151)">
        <path id="Path_8686" data-name="Path 8686" d="M3.326,0c-.036.436-.285.376-.52.484C2.46.641.122,1.714,0,1.446L.868.526Z" fill="#f4efe8"/>
      </g>
      <g id="Group_6253" data-name="Group 6253" transform="translate(62.875 35.35)">
        <path id="Path_8687" data-name="Path 8687" d="M3.288,2.668C2.3,1.869,1.077,1.961.015,1.306L0,.01C.239-.121.8,1.072,1.018,1.246c.689.549,1.972.415,2.27,1.422" fill="#f4efe8"/>
      </g>
      <g id="Group_6254" data-name="Group 6254" transform="translate(50.217 31.945)">
        <path id="Path_8688" data-name="Path 8688" d="M4.793,1.685c-.044.331-.371.092-.566.045A32.8,32.8,0,0,1,0,.136C.006-.079.767.021.8.039Z" fill="#f4efe8"/>
      </g>
    </g>
    <g id="Group_6256" data-name="Group 6256" transform="translate(47.097 32.722)">
      <path id="Path_8690" data-name="Path 8690" d="M0,.3,2.047.726,2.291.163,1.637,0Z" fill="#f4efe8"/>
    </g>
    <g id="Group_6262" data-name="Group 6262" transform="translate(0 0.273)" clip-path="url(#clip-path)">
      <g id="Group_6257" data-name="Group 6257" transform="translate(67.984 40.102)">
        <path id="Path_8691" data-name="Path 8691" d="M2.2,1.748c-.432-.15-.7-.6-1.088-.862S-.251.634.059,0C.866.389,2.016.439,2.2,1.748" fill="#f4efe8"/>
      </g>
      <g id="Group_6258" data-name="Group 6258" transform="translate(11.512 20.386)">
        <path id="Path_8692" data-name="Path 8692" d="M2.6.042,1.794.8,0,1.357C.392.437,1.075.8,1.524.608,1.85.466,2.215-.168,2.6.042" fill="#f4efe8"/>
      </g>
      <g id="Group_6259" data-name="Group 6259" transform="translate(25.329 27.359)">
        <path id="Path_8693" data-name="Path 8693" d="M1.484.4c.054.16.3.16.2.279L0,1.83C.1.6,1.027.938,1.347,0c.245.026.071.21.136.4" fill="#f4efe8"/>
      </g>
      <g id="Group_6260" data-name="Group 6260" transform="translate(30.07 21.405)">
        <path id="Path_8694" data-name="Path 8694" d="M.519,1.033c.08.139.6-.068.861.173.184.166.057.61.21.728,1.115.862.962.171,1.9,1.782.321.552.84.594.637.013-.222-.636-.935-1.012-1.1-1.756-.008-.116.39-.084.474-.053A33.114,33.114,0,0,1,7.64,3.8c.8.489,1.385,1.717,2.207,2.2a25.415,25.415,0,0,0,3.875,1.469c.593.386.836,2.211,1.293,2.939-.126.523-2.112-.794-2.443-.917a14.181,14.181,0,0,0-1.92-.534C9.526,8.748,7.527,9.471,7.487,7.4L8.866,8.412l.184-.357c-.757-.944-1.57-.825-2.414-1.5-.675-.539-.855-1.207-1.4-1.811l-.082.936a11.617,11.617,0,0,0,1.475,1.37c.2.176.306-.005.126.489a6.053,6.053,0,0,1-5.2-3.985c-.143-.352-.04-.849-.216-1.17C.934,1.627-.313,1.745.073,0,.568.024.438.888.519,1.033" fill="#c12b30"/>
      </g>
      <g id="Group_6261" data-name="Group 6261" transform="translate(26.107 13.576)">
        <path id="Path_8695" data-name="Path 8695" d="M2.327,1.968a1.16,1.16,0,0,1-1.507.954A1.6,1.6,0,0,1,.06,1.032,1.164,1.164,0,0,1,1.567.075a1.61,1.61,0,0,1,.761,1.893" fill="#3a2856"/>
      </g>
    </g>
    <g id="Group_6264" data-name="Group 6264" transform="translate(0)" clip-path="url(#clip-path-3)">
      <g id="Group_6263" data-name="Group 6263" transform="translate(49.147 0)">
        <path id="Path_8697" data-name="Path 8697" d="M69.532,26.264a2.22,2.22,0,0,0-1.2-.055,9.016,9.016,0,0,1-1.488.071c-1.253-.087-2.062-.113-2.884-.092-3.03.076-3.963-.068-5.3-.831a29.589,29.589,0,0,1-3.02-1.945c-.344-.26-1.4-.928-2.358-1.483s-1.93-1.157-2.179-1.338c-.553-.4-3.317-2.071-4.093-2.476-.568-.3-2.423-1.493-3.359-2.163a46.508,46.508,0,0,0-4.719-2.571c-1.094-.51-2.119-1.044-5.457-2.852-.622-.336-3.217-1.561-5.767-2.726a55.875,55.875,0,0,0-6.232-2.618c-.882-.276-2.192-.768-2.909-1.088A55.521,55.521,0,0,0,8.194.661C7.875.619,6.9.45,6.039.285A14,14,0,0,0,3.935,0c-.291.011-.907.034-1.371.05C1.236.1.589.261.264.624,0,.921-.028.989.019,1.339a1.558,1.558,0,0,0,.5.841,5.255,5.255,0,0,1,.733.994,5.938,5.938,0,0,0,.733,1.012,10.867,10.867,0,0,1,.74.891,2.722,2.722,0,0,0,.371.447,4.3,4.3,0,0,1,.486.565,3.229,3.229,0,0,0,.545.591,3.025,3.025,0,0,1,.513.513,19.836,19.836,0,0,0,2.9,2.3,14.461,14.461,0,0,1,1.331,1.067c.381.344.914.8,1.182,1.009s.629.5.8.644a8.772,8.772,0,0,0,1.632,1.162,16.6,16.6,0,0,1,1.456.878c1.438.938,3.72,2.316,5.006,3.015,1.31.71,6.723,3.133,7.207,3.228.2.039,1.28.463,2.4.944s2.33.983,2.682,1.112,1.628.652,2.833,1.159c7.192,3.023,10.862,4.469,12.014,4.734a6.8,6.8,0,0,1,1.106.368,31.486,31.486,0,0,0,5.05,1.017c.526.053,1.373.187,1.882.3a13.978,13.978,0,0,0,1.57.239,3.44,3.44,0,0,1,2.4,1.412,1.834,1.834,0,0,0,.838.747,3.322,3.322,0,0,1,.891.66,13.332,13.332,0,0,0,1.4,1.2A22.1,22.1,0,0,1,63,35.9a10.321,10.321,0,0,0,.889.812,2.5,2.5,0,0,1,.436.452,6.312,6.312,0,0,0,1.056.9,7.292,7.292,0,0,1,1,.823,2.4,2.4,0,0,0,.683.507.643.643,0,0,0,.983-.465,4.576,4.576,0,0,0-.819-2.534c-.675-1.159-.9-1.561-1.086-1.924-.1-.192-.522-.839-.949-1.433a8.49,8.49,0,0,1-.78-1.2.764.764,0,0,0-.2-.336.489.489,0,0,1-.159-.352,2.88,2.88,0,0,1,1.333-.7,15.484,15.484,0,0,0,3.843-1.419c.84-.423.941-.51,1.06-.923a1.3,1.3,0,0,0-.128-1.067,1.328,1.328,0,0,0-.627-.781M27.974,9.874c.352.16.721.336,1.117.528,2.487,1.209,5.755,3,7.442,3.812,3.98,1.6,7.182,4.074,10.721,6.758,1.49,1.08,1.982,1.59,1.871,1.709-.147.155-1.375-.394-2.731-1.228-2.559-1.635-4.654-3.557-7.238-5-3.414-1.908-7.328-3.3-10.79-5.2-.488-.273-3.194-1.575-6.017-2.886C19.317,6.954,17,5.818,16.693,5.589c-.342-.255,1.465.2,3.892,1.306l1.268.481c2.125.965,3.655,1.377,6.121,2.5m-13.4-5.215c.316.147.293.181.109.2a2.371,2.371,0,0,1-.922-.229c-1.062-.473-1.486-.029-.914.959.323.557.363.589.836.655a2.254,2.254,0,0,1,1.025.457c.293.208,2.029,1.065,3.86,1.9a111.181,111.181,0,0,0,10.491,4.734,64.41,64.41,0,0,1,9.654,4.5c3.045,1.748,5.939,3.951,8.825,5.252a17.427,17.427,0,0,0,2.376.849,6.047,6.047,0,0,1,2.9,1.1c1.2.8,1.306.938.8,1.02s-3.391-1.07-6.084-2.416c-1.075-.539-2.467-1.17-3.089-1.4s-1.989-.875-3.03-1.425-2.814-1.477-3.94-2.056-2.32-1.207-2.655-1.393a66.941,66.941,0,0,0-6.57-2.973,59.5,59.5,0,0,1-6.176-2.7c-.159-.255-5.591-3.225-8.188-4.479-1-.484-2.037-.991-2.3-1.125-.469-.244-.476-.242-.58.113-.174.6.044.77,2.3,1.8a30.944,30.944,0,0,1,5.537,3.012,8.751,8.751,0,0,0,2.823,1.766,18.2,18.2,0,0,1,2.215,1.214,12.5,12.5,0,0,0,1.435.86,17.866,17.866,0,0,1,2.781,1.69c.1.218-3.15-1.133-5.092-2.119a13.185,13.185,0,0,1-2.77-1.693c-1.106-.915-1.318-1.017-1.6-.773a.316.316,0,0,1-.474.008l-.972-.723c-1.44-1.07-2.349-1.593-2.569-1.483-.417.213-.75.118-1.93-.547a11.778,11.778,0,0,1-1.614-1.067c-.624-.57-1.591-1-1.746-.775a.639.639,0,0,0-.078.41c.044.273.3.484,1.475,1.246a9.864,9.864,0,0,1,1.211.9,10.586,10.586,0,0,0,1.507,1.023A39.974,39.974,0,0,1,17.068,13.2c.4.294,1.014.707,1.373.92.587.342.687.363.947.221a.781.781,0,0,0,.348-.35c.05-.171.189-.121,1.243.447a7.9,7.9,0,0,1,1.448.938c.562.644,2.2,1.525,5.26,2.826,1.637.7,3.533,1.454,4.218,1.685s1.509.526,1.834.649c1.375.528,2.423.891,3.227,1.117l1.465.418c.333.095.935.221,1.337.284a6.289,6.289,0,0,1,1.312.376c.809.363,1.054.373,1.111.045.04-.229.117-.247.555-.137a2.075,2.075,0,0,1,.65.263,3.279,3.279,0,0,0,.891.321,5.842,5.842,0,0,1,1.84.86,4.829,4.829,0,0,1,1.06.773c-.017.055-.044.092-.065.081s-.492-.1-1.048-.2a8.231,8.231,0,0,1-1.371-.352,2.349,2.349,0,0,0-.8-.168,5.84,5.84,0,0,1-1.362-.344c-.509-.184-1.027-.352-1.148-.376-.321-.058-.463.223-.316.62a.726.726,0,0,1,.078.368c-.044.026-3.8-1.493-4.92-1.993-.266-.118-1.056-.515-1.754-.881a5.3,5.3,0,0,0-1.557-.657,12.977,12.977,0,0,1-2.188-.8c-1.042-.447-2.477-1.009-3.19-1.251a98.573,98.573,0,0,1-10.285-4.661c-.478-.326-1.142-.747-1.48-.933s-.9-.539-1.247-.783-1-.66-1.442-.923A29.057,29.057,0,0,1,9.139,8.513,16.574,16.574,0,0,0,7.733,7.44a1.521,1.521,0,0,1-.557-.494c-.013-.087.342-.35.8-.586S8.9,5.873,9.034,5.8a3.949,3.949,0,0,0,.629-.5c.377-.36.5-.655.721-1.722l.078-.376.859.242c.474.131,1.5.5,2.28.81.469.189.782.318.972.4M7.885,2.69a.453.453,0,0,1,.3.3c.159.379.119.5-.228.641a2.949,2.949,0,0,0-.74.62c-.356.394-.436.542-.36.662.134.21.664-.021.979-.426.2-.258.245-.273.228-.081a.6.6,0,0,1-.222.379,1.364,1.364,0,0,0-.333.363,1.646,1.646,0,0,1-.432.41,1.116,1.116,0,0,0-.4.494c-.111.336-.333.326-.694-.037-.115-.116-.484-.463-.815-.768s-.757-.712-.939-.907l-.335-.355.212-.6c.2-.581.2-.612-.054-.873-.352-.36-.218-.518.4-.46s.725.229.4.726a1.1,1.1,0,0,0,.409,1.672,2.941,2.941,0,0,0,1.557-.823.787.787,0,0,0,.019-.56,1.52,1.52,0,0,1-.067-.5c.019-.063.319-.063.664.005a3.494,3.494,0,0,1,.457.113M56.072,26.2a2.7,2.7,0,0,1,.266.155c.522.329.572.4.624.812.027.213.153.355.48.536.358.2.428.281.354.436-.061.129-.226.152-.516.074a1.126,1.126,0,0,0-.664,0,1.573,1.573,0,0,1-.8.011,9,9,0,0,0-1.044-.145,5.555,5.555,0,0,1-.941-.147c-.254-.063-.886-.166-1.41-.226s-1.651-.244-2.506-.4-1.66-.308-1.79-.329-.22-.087-.2-.15.207-.081.419-.032c.9.208,1.656.037,1.783-.4a.254.254,0,0,1,.287-.145,14.211,14.211,0,0,1,2.265.61c.78.271.93.284,1.27.108a1.372,1.372,0,0,1,.675-.16c.159.024.306-.024.331-.105a1.341,1.341,0,0,1,.48-.394c.3-.171.415-.21.635-.1m3.711,2.1c.038.011.05.05.036.1-.021.071-.08.105-.132.081s-.09-.068-.082-.1a.2.2,0,0,1,.134-.084.132.132,0,0,1,.044,0m1.377,1.13a.242.242,0,0,1,.14.271c-.054.187-.115.184-.3-.018-.161-.184-.057-.35.155-.252m-2.81-.323a.3.3,0,0,1,.069.168c.013.081-.021.129-.078.1a.145.145,0,0,1-.067-.168c.019-.066.054-.11.075-.1m1.385.789c.2.081.371.213.386.294.027.173-.222.058-.53-.242-.193-.187-.178-.189.145-.053M34.952,19.324a3.9,3.9,0,0,1,.673.363l.36.263-.358-.079A20.119,20.119,0,0,1,32.442,18.5a9.484,9.484,0,0,1,2.511.82m-6.293-2.518a.641.641,0,0,1,.153.092c.084.074.021.076-.138.005s-.228-.131-.153-.134a.357.357,0,0,1,.138.037m18.5,9.676a.3.3,0,0,1,.1.076c.065.074.036.092-.078.045s-.153-.1-.109-.121a.1.1,0,0,1,.088,0M45.611,25.9c.26.108.44.239.415.323-.019.066-.182.053-.36-.029a3.561,3.561,0,0,0-.65-.21c-.191-.037-.31-.113-.289-.181s.182-.095.358-.06a2.835,2.835,0,0,1,.526.158" fill="#f4efe8"/>
      </g>
    </g>
    <g id="Group_6265" data-name="Group 6265" transform="translate(83.175 6.726)">
      <path id="Path_8699" data-name="Path 8699" d="M.187,8.385,0,7.986,10.878,0l.187.4Z" fill="#c12b30"/>
    </g>
    <g id="Group_6266" data-name="Group 6266" transform="translate(83.099 14.821)">
      <path id="Path_8700" data-name="Path 8700" d="M4.6,13.6,0,.184.339,0l4.6,13.414Z" fill="#c12b30"/>
    </g>
    <g id="Group_6272" data-name="Group 6272" transform="translate(0)" clip-path="url(#clip-path-3)">
      <g id="Group_6267" data-name="Group 6267" transform="translate(76.818 6.822)">
        <path id="Path_8701" data-name="Path 8701" d="M12.509,10.857c-1.218,4.2-4.918,6.361-8.265,4.834S-.827,9.522.39,5.324,5.309-1.037,8.656.49s5.071,6.169,3.854,10.367" fill="#c12b30"/>
      </g>
      <g id="Group_6268" data-name="Group 6268" transform="translate(88.094 13.887)">
        <path id="Path_8702" data-name="Path 8702" d="M.226,1.61a.391.391,0,0,1-.2-.373c0-.26,0-.528-.023-.818A.369.369,0,0,1,.278,0,.337.337,0,0,1,.613.348c.023.321.031.618.025.91a.351.351,0,0,1-.316.376.3.3,0,0,1-.1-.024" fill="#f7f3ec"/>
      </g>
      <g id="Group_6269" data-name="Group 6269" transform="translate(84.726 8.447)">
        <path id="Path_8703" data-name="Path 8703" d="M3.234,4.443a.35.35,0,0,1-.18-.221A5.581,5.581,0,0,0,.2.747.418.418,0,0,1,.019.253.291.291,0,0,1,.411.024,6.283,6.283,0,0,1,3.623,3.938a.421.421,0,0,1-.172.5.245.245,0,0,1-.218.005" fill="#f7f3ec"/>
      </g>
      <g id="Group_6270" data-name="Group 6270" transform="translate(84.911 24.639)">
        <path id="Path_8704" data-name="Path 8704" d="M5.778,5.015C5.217,6.955,3.507,7.954,1.96,7.25A4.059,4.059,0,0,1,.181,2.46C.742.52,2.452-.479,4,.226A4.06,4.06,0,0,1,5.778,5.015" fill="#b7dd5e"/>
      </g>
      <g id="Group_6271" data-name="Group 6271" transform="translate(91.997 4.23)">
        <path id="Path_8705" data-name="Path 8705" d="M4.17,3.619A2.062,2.062,0,0,1,1.414,5.231,2.931,2.931,0,0,1,.13,1.774,2.064,2.064,0,0,1,2.885.162,2.929,2.929,0,0,1,4.17,3.619" fill="#b7dd5e"/>
      </g>
    </g>
    <g id="Group_6273" data-name="Group 6273" transform="translate(76.834 4.685)">
      <path id="Path_8707" data-name="Path 8707" d="M6.289,10.37,0,.284.291,0,6.578,10.086Z" fill="#c12b30"/>
    </g>
    <g id="Group_6274" data-name="Group 6274" transform="translate(73.783 14.7)">
      <path id="Path_8708" data-name="Path 8708" d="M.143,5.391,0,4.966,9.413,0l.143.426Z" fill="#c12b30"/>
    </g>
    <g id="Group_6277" data-name="Group 6277" transform="translate(0)" clip-path="url(#clip-path-3)">
      <g id="Group_6275" data-name="Group 6275" transform="translate(71.213 16.565)">
        <path id="Path_8709" data-name="Path 8709" d="M5.122,4.446c-.5,1.719-2.014,2.605-3.384,1.979A3.6,3.6,0,0,1,.16,2.18C.659.461,2.174-.425,3.544.2A3.6,3.6,0,0,1,5.122,4.446" fill="#b7dd5e"/>
      </g>
      <g id="Group_6276" data-name="Group 6276" transform="translate(75.922 3.529)">
        <path id="Path_8710" data-name="Path 8710" d="M2.085,1.809a1.033,1.033,0,0,1-1.377.807A1.467,1.467,0,0,1,.065.886a1.031,1.031,0,0,1,1.379-.8,1.463,1.463,0,0,1,.641,1.727" fill="#b7dd5e"/>
      </g>
    </g>
  </g>
</svg>
