<svg id="Group_6932" data-name="Group 6932" xmlns="http://www.w3.org/2000/svg" xmlns:xlink="http://www.w3.org/1999/xlink" width="99.087" height="49.376" viewBox="0 0 99.087 49.376">
  <defs>
    <clipPath id="clip-path">
      <path id="Path_8677" data-name="Path 8677" d="M0,30.727H99.087V-18.648H0Z" transform="translate(0 18.648)" fill="none"/>
    </clipPath>
  </defs>
  <g id="Group_6242" data-name="Group 6242" transform="translate(0 0)" clip-path="url(#clip-path)">
    <g id="Group_6235" data-name="Group 6235" transform="translate(0 9.845)">
      <path id="Path_8670" data-name="Path 8670" d="M45.636,20.917A129.549,129.549,0,0,1,36.66,8.406C33.117,2.66,31.32-1.849,31.32-5a17.678,17.678,0,0,1,1.771-7.694H-14.577a9.822,9.822,0,0,0-7.557,3.527l-4.853,5.751a2.937,2.937,0,0,0-.432,3.159,2.934,2.934,0,0,0,2.68,1.708H-4.7v19.2a1.2,1.2,0,0,0,1.2,1.2H24.152a7.438,7.438,0,1,1,14.875-.071v.071h6.22a3.5,3.5,0,0,0,1.157-.212,4.042,4.042,0,0,1-.768-.723M13.858,13.1a1.2,1.2,0,0,1-1.194,1.2H3.992A1.2,1.2,0,0,1,2.8,13.1V-3.845a1.2,1.2,0,0,1,1.194-1.2h8.671a1.2,1.2,0,0,1,1.194,1.2ZM28.518,2.372a1.2,1.2,0,0,1-1.2,1.2H19.812a1.2,1.2,0,0,1-1.2-1.2V-3.845a1.2,1.2,0,0,1,1.2-1.2h7.509a1.2,1.2,0,0,1,1.2,1.2Z" transform="translate(27.696 12.694)" fill="#f4efe8"/>
    </g>
    <g id="Group_6236" data-name="Group 6236" transform="translate(2.12 26.38)">
      <path id="Path_8671" data-name="Path 8671" d="M3.966,1.883A6.61,6.61,0,0,1,1.215,5.111C-.4,6.046-2.407,7.6-2.407,9.668v4.183A1.761,1.761,0,0,0-.649,15.609H1.287a7.426,7.426,0,0,1,14.674.048h.119v-16.8H5.986a9.612,9.612,0,0,0-2.02,3.026m6.924-.646h1.242a.973.973,0,0,1,.969.969v4.1a.957.957,0,0,1-.956.956H6.765a.948.948,0,0,1-.945-.956,5.062,5.062,0,0,1,5.07-5.07" transform="translate(2.407 1.143)" fill="#f4efe8"/>
    </g>
    <g id="Group_6237" data-name="Group 6237" transform="translate(54.24 39.271)">
      <path id="Path_8672" data-name="Path 8672" d="M3.141,0A5.056,5.056,0,0,0-1.906,5.047v.071a5.047,5.047,0,0,0,10.093,0V5.047A5.056,5.056,0,0,0,3.141,0m0,6.588A1.534,1.534,0,1,1,4.671,5.047,1.536,1.536,0,0,1,3.143,6.588" transform="translate(1.906)" fill="#f4efe8"/>
    </g>
    <g id="Group_6238" data-name="Group 6238" transform="translate(8.097 39.271)">
      <path id="Path_8673" data-name="Path 8673" d="M3.141,0A5.056,5.056,0,0,0-1.906,5.047V5.07A5.047,5.047,0,0,0,8.187,5.1V5.047A5.056,5.056,0,0,0,3.141,0m0,6.588A1.534,1.534,0,1,1,4.671,5.047,1.536,1.536,0,0,1,3.143,6.588" transform="translate(1.906)" fill="#f4efe8"/>
    </g>
    <g id="Group_6239" data-name="Group 6239" transform="translate(18.562 4.644)">
      <path id="Path_8674" data-name="Path 8674" d="M28.646,0H-12.783a5.209,5.209,0,0,0-3.67,1.517,5.266,5.266,0,0,0-.932,1.292H26.221A17.791,17.791,0,0,1,28.646,0" transform="translate(17.385)" fill="#f4efe8"/>
    </g>
    <g id="Group_6240" data-name="Group 6240" transform="translate(64.333 0.001)">
      <path id="Path_8675" data-name="Path 8675" d="M10.814,0A17.212,17.212,0,0,0-.923,4.642a17.665,17.665,0,0,0-5.64,12.9c0,3.124,1.79,7.61,5.319,13.334a130.282,130.282,0,0,0,8.965,12.5,4.018,4.018,0,0,0,.834.755,3.928,3.928,0,0,0,2.259.731v0a3.952,3.952,0,0,0,3.093-1.485,129.363,129.363,0,0,0,8.965-12.5c3.529-5.724,5.319-10.21,5.319-13.334A17.477,17.477,0,0,0,10.814,0" transform="translate(6.563 0)" fill="#f4efe8"/>
    </g>
    <g id="Group_6241" data-name="Group 6241" transform="translate(74.319 6.088)">
      <path id="Path_8676" data-name="Path 8676" d="M8,3.427a5.509,5.509,0,0,0-11.017,0V15.1a7.3,7.3,0,0,0-1.835,4.819A7.362,7.362,0,0,0,2.438,27.3h.05a7.342,7.342,0,0,0,7.345-7.345A7.307,7.307,0,0,0,8,15.1ZM2.488,24.543H2.457A4.607,4.607,0,0,1-2.1,19.928,5.345,5.345,0,0,1-.265,16.137V3.427a2.755,2.755,0,0,1,5.51,0V16.137a5.335,5.335,0,0,1,1.835,3.815,4.6,4.6,0,0,1-4.591,4.591m3.672-4.591a3.671,3.671,0,1,1-5.507-3.18V3.427a1.836,1.836,0,0,1,3.672,0V16.772a3.673,3.673,0,0,1,1.835,3.18" transform="translate(4.854 2.08)" fill="#c12b30"/>
    </g>
  </g>
</svg>
