<svg id="Group_7176" data-name="Group 7176" xmlns="http://www.w3.org/2000/svg" xmlns:xlink="http://www.w3.org/1999/xlink" width="111.778" height="111.78" viewBox="0 0 111.778 111.78">
  <defs>
    <clipPath id="clip-path">
      <rect id="Rectangle_1135" data-name="Rectangle 1135" width="111.778" height="111.78" fill="none"/>
    </clipPath>
  </defs>
  <g id="Group_7175" data-name="Group 7175">
    <g id="Group_7174" data-name="Group 7174" clip-path="url(#clip-path)">
      <path id="Path_11074" data-name="Path 11074" d="M111.778,55.891A55.889,55.889,0,1,1,55.889,0a55.889,55.889,0,0,1,55.889,55.891" fill="#c32b30"/>
      <path id="Path_11075" data-name="Path 11075" d="M18.085,86.675a49.031,49.031,0,1,1,68.991,6.934,49.024,49.024,0,0,1-68.991-6.934" fill="#ccc8c2"/>
      <path id="Path_11076" data-name="Path 11076" d="M13.232,76.233A47.5,47.5,0,1,0,35.494,12.851,47.505,47.505,0,0,0,13.232,76.233" fill="#f5efe8"/>
      <path id="Path_11077" data-name="Path 11077" d="M64.105,70.325H47.673a2.089,2.089,0,0,1-1.9-2.234,2.443,2.443,0,0,1,.53-1.551,1.762,1.762,0,0,1,1.369-.683h1.082a5.673,5.673,0,0,0-1.2-2.949,4.626,4.626,0,0,0-.507-.529l-.055-.045a3.826,3.826,0,0,0-.838-.554h-.032l-.242-.156c-2.788-2.037-4.346-5.119-4.63-9.159-.031-.445-.048-.916-.048-1.4a14.686,14.686,0,0,1,29.371,0c0,.5-.017.97-.049,1.4-.283,4.033-1.836,7.111-4.617,9.148l-.027.038-.219.137-.052-.005a3.874,3.874,0,0,0-.821.544l-.067.057a4.526,4.526,0,0,0-.5.522,5.649,5.649,0,0,0-1.2,2.949h1.08a2.264,2.264,0,0,1,0,4.468M47.673,67.148a.62.62,0,0,0-.47.247,1.1,1.1,0,0,0-.23.7c0,.511.32.943.7.943H64.105c.38,0,.7-.432.7-.943s-.321-.943-.7-.943Zm13.392-1.291h.753a7.038,7.038,0,0,1,1.505-3.8,5.84,5.84,0,0,1,.629-.657l.119-.217h.14a5.047,5.047,0,0,1,.908-.571l.058-.08.108-.018c2.433-1.809,3.794-4.549,4.047-8.144.029-.413.044-.851.044-1.3a13.489,13.489,0,0,0-26.974,0c0,.452.015.89.045,1.3.253,3.584,1.6,6.316,4.019,8.124h.065l.107.108a4.924,4.924,0,0,1,.929.582h.094l.167.218a5.742,5.742,0,0,1,.627.656,7.047,7.047,0,0,1,1.506,3.8h.754V53.529a2.4,2.4,0,0,1,2.174-2.573,2,2,0,0,1,1.5.7,2.009,2.009,0,0,1,3,0,2,2,0,0,1,1.5-.7,2.4,2.4,0,0,1,2.177,2.573Zm-9.152,0h7.954V53.529a1.177,1.177,0,0,0-.979-1.282,1.039,1.039,0,0,0-.923.864l-.579,2.156-.573-2.156a.926.926,0,0,0-1.847,0l-.579,2.156-.574-2.156a1.041,1.041,0,0,0-.924-.864,1.162,1.162,0,0,0-.976,1.282Z" fill="#3a2856"/>
      <path id="Path_11078" data-name="Path 11078" d="M57.762,87.267H54.015a2.285,2.285,0,0,1-2.072-2.446V83.5h7.892v1.324a2.285,2.285,0,0,1-2.073,2.446m-4.621-2.48v.034c0,.626.4,1.155.874,1.155h3.747c.475,0,.876-.529.876-1.155v-.034Z" fill="#3a2856"/>
      <path id="Path_11079" data-name="Path 11079" d="M63.458,74.862l-.117-.007L48.4,72.949a1.206,1.206,0,0,1-.962-1.361,1.286,1.286,0,0,1,.452-.894.992.992,0,0,1,.754-.222l14.932,1.907a1.048,1.048,0,0,1,.745.484,1.382,1.382,0,0,1,.217.874,1.154,1.154,0,0,1-1.085,1.125m.017-1.29h0" fill="#3a2856"/>
      <path id="Path_11080" data-name="Path 11080" d="M63.458,78.9l-.123-.008L48.4,76.987a1.217,1.217,0,0,1-.962-1.36,1.286,1.286,0,0,1,.452-.895.987.987,0,0,1,.754-.22l14.932,1.906a1.056,1.056,0,0,1,.745.484,1.381,1.381,0,0,1,.216.874A1.153,1.153,0,0,1,63.458,78.9m-.021-1.2h0Zm.037-.088h0" fill="#3a2856"/>
      <path id="Path_11081" data-name="Path 11081" d="M63.458,82.939l-.123-.007L48.4,81.026a1.22,1.22,0,0,1-.962-1.361,1.284,1.284,0,0,1,.452-.9.99.99,0,0,1,.755-.22l14.93,1.9a1.068,1.068,0,0,1,.746.485,1.39,1.39,0,0,1,.217.875,1.154,1.154,0,0,1-1.085,1.124m.018-1.289h0Z" fill="#3a2856"/>
      <path id="Path_11082" data-name="Path 11082" d="M55.889,36.211a1.28,1.28,0,0,1-1.181-1.358V31.115a1.193,1.193,0,1,1,2.363,0v3.738a1.28,1.28,0,0,1-1.182,1.358" fill="#3a2856"/>
      <path id="Path_11083" data-name="Path 11083" d="M41.486,44.609a1.089,1.089,0,0,1-.682-.247l-2.551-2.067a1.5,1.5,0,0,1-.319-1.829,1.12,1.12,0,0,1,1.685-.389l2.552,2.067a1.5,1.5,0,0,1,.318,1.827,1.152,1.152,0,0,1-1,.638" fill="#3a2856"/>
      <path id="Path_11084" data-name="Path 11084" d="M40.357,64.863a1.125,1.125,0,0,1-.936-.528,1.507,1.507,0,0,1,.158-1.851l2.368-2.371a1.114,1.114,0,0,1,1.714.193A1.507,1.507,0,0,1,43.5,62.16l-2.365,2.37a1.1,1.1,0,0,1-.778.333" fill="#3a2856"/>
      <path id="Path_11085" data-name="Path 11085" d="M70.292,44.609a1.147,1.147,0,0,1-1-.637,1.492,1.492,0,0,1,.318-1.828l2.55-2.066a1.123,1.123,0,0,1,1.687.386v0a1.5,1.5,0,0,1-.32,1.828l-2.552,2.067a1.072,1.072,0,0,1-.681.248" fill="#3a2856"/>
      <path id="Path_11086" data-name="Path 11086" d="M71.422,64.863a1.107,1.107,0,0,1-.778-.332L68.278,62.16a1.419,1.419,0,0,1-.4-.9,1.517,1.517,0,0,1,.239-.955,1.113,1.113,0,0,1,1.715-.195l2.366,2.37a1.43,1.43,0,0,1,.4.9,1.5,1.5,0,0,1-.241.957,1.126,1.126,0,0,1-.934.526" fill="#3a2856"/>
    </g>
  </g>
  <text id="I" transform="matrix(-0.958, -0.286, 0.286, -0.958, 46.528, 91.849)" fill="#3a2856" font-size="9" font-family="Roboto-Bold, Roboto" font-weight="700"><tspan x="0" y="0">I</tspan></text>
  <text id="T" transform="translate(44.066 91.202) rotate(-157.158)" fill="#3a2856" font-size="9" font-family="Roboto-Bold, Roboto" font-weight="700"><tspan x="0" y="0">T</tspan></text>
  <text id="_" data-name=" " transform="translate(39.103 89.028) rotate(-151.351)" fill="#3a2856" font-size="9" font-family="Roboto-Bold, Roboto" font-weight="700"><tspan x="0" y="0"> </tspan></text>
  <text id="T-2" data-name="T" transform="translate(37.229 88.111) rotate(-145.595)" fill="#3a2856" font-size="9" font-family="Roboto-Bold, Roboto" font-weight="700"><tspan x="0" y="0">T</tspan></text>
  <text id="H" transform="translate(32.698 85.054) rotate(-136.625)" fill="#3a2856" font-size="9" font-family="Roboto-Bold, Roboto" font-weight="700"><tspan x="0" y="0">H</tspan></text>
  <text id="I-2" data-name="I" transform="matrix(-0.64, -0.769, 0.769, -0.64, 28.175, 80.629)" fill="#3a2856" font-size="9" font-family="Roboto-Bold, Roboto" font-weight="700"><tspan x="0" y="0">I</tspan></text>
  <text id="N" transform="translate(26.428 78.708) rotate(-122.918)" fill="#3a2856" font-size="9" font-family="Roboto-Bold, Roboto" font-weight="700"><tspan x="0" y="0">N</tspan></text>
  <text id="K" transform="translate(23.016 73.397) rotate(-113.641)" fill="#3a2856" font-size="9" font-family="Roboto-Bold, Roboto" font-weight="700"><tspan x="0" y="0">K</tspan></text>
  <text id="S" transform="translate(20.816 68.405) rotate(-105.313)" fill="#3a2856" font-size="9" font-family="Roboto-Bold, Roboto" font-weight="700"><tspan x="0" y="0">S</tspan></text>
  <text id="_2" data-name=" " transform="matrix(-0.166, -0.986, 0.986, -0.166, 19.469, 63.197)" fill="#3a2856" font-size="9" font-family="Roboto-Bold, Roboto" font-weight="700"><tspan x="0" y="0"> </tspan></text>
  <text id="L" transform="translate(19.078 61.098) rotate(-94.945)" fill="#3a2856" font-size="9" font-family="Roboto-Bold, Roboto" font-weight="700"><tspan x="0" y="0">L</tspan></text>
  <text id="I-3" data-name="I" transform="translate(18.744 56.357) rotate(-88.76)" fill="#3a2856" font-size="9" font-family="Roboto-Bold, Roboto" font-weight="700"><tspan x="0" y="0">I</tspan></text>
  <text id="K-2" data-name="K" transform="matrix(0.134, -0.991, 0.991, 0.134, 18.714, 53.72)" fill="#3a2856" font-size="9" font-family="Roboto-Bold, Roboto" font-weight="700"><tspan x="0" y="0">K</tspan></text>
  <text id="E" transform="translate(19.502 48.06) rotate(-73.953)" fill="#3a2856" font-size="9" font-family="Roboto-Bold, Roboto" font-weight="700"><tspan x="0" y="0">E</tspan></text>
  <text id="_3" data-name=" " transform="translate(20.918 43.352) rotate(-68.508)" fill="#3a2856" font-size="9" font-family="Roboto-Bold, Roboto" font-weight="700"><tspan x="0" y="0"> </tspan></text>
  <text id="A" transform="translate(21.58 41.369) rotate(-62.345)" fill="#3a2856" font-size="9" font-family="Roboto-Bold, Roboto" font-weight="700"><tspan x="0" y="0">A</tspan></text>
  <text id="_4" data-name=" " transform="translate(24.386 36.211) rotate(-56.24)" fill="#3a2856" font-size="9" font-family="Roboto-Bold, Roboto" font-weight="700"><tspan x="0" y="0"> </tspan></text>
  <text id="S-2" data-name="S" transform="matrix(0.636, -0.772, 0.772, 0.636, 25.476, 34.42)" fill="#3a2856" font-size="9" font-family="Roboto-Bold, Roboto" font-weight="700"><tspan x="0" y="0">S</tspan></text>
  <text id="C" transform="translate(28.913 30.215) rotate(-41.924)" fill="#3a2856" font-size="9" font-family="Roboto-Bold, Roboto" font-weight="700"><tspan x="0" y="0">C</tspan></text>
  <text id="I-4" data-name="I" transform="matrix(0.815, -0.58, 0.58, 0.815, 33.324, 26.375)" fill="#3a2856" font-size="9" font-family="Roboto-Bold, Roboto" font-weight="700"><tspan x="0" y="0">I</tspan></text>
  <text id="E-2" data-name="E" transform="translate(35.432 24.797) rotate(-29.484)" fill="#3a2856" font-size="9" font-family="Roboto-Bold, Roboto" font-weight="700"><tspan x="0" y="0">E</tspan></text>
  <text id="N-2" data-name="N" transform="translate(39.846 22.248) rotate(-20.585)" fill="#3a2856" font-size="9" font-family="Roboto-Bold, Roboto" font-weight="700"><tspan x="0" y="0">N</tspan></text>
  <text id="T-3" data-name="T" transform="translate(45.693 20.076) rotate(-11.533)" fill="#3a2856" font-size="9" font-family="Roboto-Bold, Roboto" font-weight="700"><tspan x="0" y="0">T</tspan></text>
  <text id="I-5" data-name="I" transform="matrix(0.996, -0.095, 0.095, 0.996, 51.057, 19.057)" fill="#3a2856" font-size="9" font-family="Roboto-Bold, Roboto" font-weight="700"><tspan x="0" y="0">I</tspan></text>
  <text id="S-3" data-name="S" transform="translate(53.614 18.732) rotate(0.696)" fill="#3a2856" font-size="9" font-family="Roboto-Bold, Roboto" font-weight="700"><tspan x="0" y="0">S</tspan></text>
  <text id="T-4" data-name="T" transform="matrix(0.987, 0.16, -0.16, 0.987, 59.113, 18.794)" fill="#3a2856" font-size="9" font-family="Roboto-Bold, Roboto" font-weight="700"><tspan x="0" y="0">T</tspan></text>
  <text id="_." data-name="." transform="translate(63.871 19.6) rotate(14.414)" fill="#3a2856" font-size="9" font-family="Roboto-Bold, Roboto" font-weight="700"><tspan x="0" y="0">.</tspan></text>
  <text id="_5" data-name=" " transform="translate(66.306 20.228) rotate(18.032)" fill="#3a2856" font-size="9" font-family="Roboto-Bold, Roboto" font-weight="700"><tspan x="0" y="0"> </tspan></text>
  <text id="W" transform="matrix(0.902, 0.431, -0.431, 0.902, 68.313, 20.675)" fill="#3a2856" font-size="9" font-family="Roboto-Bold, Roboto" font-weight="700"><tspan x="0" y="0">W</tspan></text>
  <text id="O" transform="matrix(0.81, 0.587, -0.587, 0.81, 75.15, 23.997)" fill="#3a2856" font-size="9" font-family="Roboto-Bold, Roboto" font-weight="700"><tspan x="0" y="0">O</tspan></text>
  <text id="R" transform="matrix(0.707, 0.707, -0.707, 0.707, 80.12, 27.618)" fill="#3a2856" font-size="9" font-family="Roboto-Bold, Roboto" font-weight="700"><tspan x="0" y="0">R</tspan></text>
  <text id="K-3" data-name="K" transform="translate(84.127 31.617) rotate(53.662)" fill="#3a2856" font-size="9" font-family="Roboto-Bold, Roboto" font-weight="700"><tspan x="0" y="0">K</tspan></text>
  <text id="S-4" data-name="S" transform="matrix(0.469, 0.883, -0.883, 0.469, 87.389, 36.035)" fill="#3a2856" font-size="9" font-family="Roboto-Bold, Roboto" font-weight="700"><tspan x="0" y="0">S</tspan></text>
  <text id="_6" data-name=" " transform="translate(89.838 40.799) rotate(67.775)" fill="#3a2856" font-size="9" font-family="Roboto-Bold, Roboto" font-weight="700"><tspan x="0" y="0"> </tspan></text>
  <text id="L-2" data-name="L" transform="translate(90.694 42.716) rotate(73.074)" fill="#3a2856" font-size="9" font-family="Roboto-Bold, Roboto" font-weight="700"><tspan x="0" y="0">L</tspan></text>
  <text id="I-6" data-name="I" transform="translate(92.044 47.334) rotate(78.783)" fill="#3a2856" font-size="9" font-family="Roboto-Bold, Roboto" font-weight="700"><tspan x="0" y="0">I</tspan></text>
  <text id="K-4" data-name="K" transform="translate(92.631 49.874) rotate(85.055)" fill="#3a2856" font-size="9" font-family="Roboto-Bold, Roboto" font-weight="700"><tspan x="0" y="0">K</tspan></text>
  <text id="E-3" data-name="E" transform="translate(93.098 55.588) rotate(93.362)" fill="#3a2856" font-size="9" font-family="Roboto-Bold, Roboto" font-weight="700"><tspan x="0" y="0">E</tspan></text>
  <text id="_7" data-name=" " transform="matrix(-0.153, 0.988, -0.988, -0.153, 92.75, 60.498)" fill="#3a2856" font-size="9" font-family="Roboto-Bold, Roboto" font-weight="700"><tspan x="0" y="0"> </tspan></text>
  <text id="A-2" data-name="A" transform="translate(92.542 62.572) rotate(104.99)" fill="#3a2856" font-size="9" font-family="Roboto-Bold, Roboto" font-weight="700"><tspan x="0" y="0">A</tspan></text>
  <text id="_8" data-name=" " transform="translate(90.934 68.217) rotate(111.142)" fill="#3a2856" font-size="9" font-family="Roboto-Bold, Roboto" font-weight="700"><tspan x="0" y="0"> </tspan></text>
  <text id="F" transform="matrix(-0.446, 0.895, -0.895, -0.446, 90.237, 70.212)" fill="#3a2856" font-size="9" font-family="Roboto-Bold, Roboto" font-weight="700"><tspan x="0" y="0">F</tspan></text>
  <text id="A-3" data-name="A" transform="translate(88.301 74.25) rotate(124.229)" fill="#3a2856" font-size="9" font-family="Roboto-Bold, Roboto" font-weight="700"><tspan x="0" y="0">A</tspan></text>
  <text id="R-2" data-name="R" transform="matrix(-0.685, 0.729, -0.729, -0.685, 84.91, 79.219)" fill="#3a2856" font-size="9" font-family="Roboto-Bold, Roboto" font-weight="700"><tspan x="0" y="0">R</tspan></text>
  <text id="M" transform="matrix(-0.804, 0.595, -0.595, -0.804, 81.12, 83.409)" fill="#3a2856" font-size="9" font-family="Roboto-Bold, Roboto" font-weight="700"><tspan x="0" y="0">M</tspan></text>
  <text id="E-4" data-name="E" transform="matrix(-0.894, 0.448, -0.448, -0.894, 74.76, 87.971)" fill="#3a2856" font-size="9" font-family="Roboto-Bold, Roboto" font-weight="700"><tspan x="0" y="0">E</tspan></text>
  <text id="R-3" data-name="R" transform="matrix(-0.95, 0.312, -0.312, -0.95, 70.228, 90.266)" fill="#3a2856" font-size="9" font-family="Roboto-Bold, Roboto" font-weight="700"><tspan x="0" y="0">R</tspan></text>
</svg>
