<svg id="Group_7165" data-name="Group 7165" xmlns="http://www.w3.org/2000/svg" xmlns:xlink="http://www.w3.org/1999/xlink" width="111.778" height="111.781" viewBox="0 0 111.778 111.781">
  <defs>
    <clipPath id="clip-path">
      <rect id="Rectangle_1130" data-name="Rectangle 1130" width="111.778" height="111.781" transform="translate(0 0)" fill="none"/>
    </clipPath>
  </defs>
  <g id="Group_7162" data-name="Group 7162">
    <g id="Group_7161" data-name="Group 7161" clip-path="url(#clip-path)">
      <path id="Path_11056" data-name="Path 11056" d="M111.778,55.891A55.889,55.889,0,1,1,55.889,0a55.889,55.889,0,0,1,55.889,55.891" fill="#b8dd5e"/>
      <path id="Path_11057" data-name="Path 11057" d="M18.085,86.675a49.031,49.031,0,1,1,68.991,6.934,49.026,49.026,0,0,1-68.991-6.934" fill="#ccc8c2"/>
      <path id="Path_11058" data-name="Path 11058" d="M13.232,76.233A47.5,47.5,0,1,0,35.494,12.851,47.506,47.506,0,0,0,13.232,76.233" fill="#f5efe8"/>
    </g>
  </g>
  <text id="S" transform="matrix(-0.815, -0.579, 0.579, -0.815, 39.866, 85.919)" fill="#3a2856" font-size="11.905" font-family="Roboto-Bold, Roboto" font-weight="700"><tspan x="0" y="0">S</tspan></text>
  <text id="C" transform="translate(34.174 81.955) rotate(-132.161)" fill="#3a2856" font-size="11.905" font-family="Roboto-Bold, Roboto" font-weight="700"><tspan x="0" y="0">C</tspan></text>
  <text id="A" transform="translate(29.243 76.616) rotate(-119.426)" fill="#3a2856" font-size="11.905" font-family="Roboto-Bold, Roboto" font-weight="700"><tspan x="0" y="0">A</tspan></text>
  <text id="L" transform="translate(25.493 69.861) rotate(-107.369)" fill="#3a2856" font-size="11.905" font-family="Roboto-Bold, Roboto" font-weight="700"><tspan x="0" y="0">L</tspan></text>
  <text id="E" transform="translate(23.626 64.05) rotate(-96.482)" fill="#3a2856" font-size="11.905" font-family="Roboto-Bold, Roboto" font-weight="700"><tspan x="0" y="0">E</tspan></text>
  <text id="S-2" data-name="S" transform="matrix(0.09, -0.996, 0.996, 0.09, 22.844, 57.722)" fill="#3a2856" font-size="11.905" font-family="Roboto-Bold, Roboto" font-weight="700"><tspan x="0" y="0">S</tspan></text>
  <text id="_" data-name=" " transform="translate(23.616 50.741) rotate(-76.48)" fill="#3a2856" font-size="11.905" font-family="Roboto-Bold, Roboto" font-weight="700"><tspan x="0" y="0"> </tspan></text>
  <text id="I" transform="matrix(0.322, -0.947, 0.947, 0.322, 24.244, 48.041)" fill="#3a2856" font-size="11.905" font-family="Roboto-Bold, Roboto" font-weight="700"><tspan x="0" y="0">I</tspan></text>
  <text id="N" transform="matrix(0.48, -0.877, 0.877, 0.48, 25.057, 44.913)" fill="#3a2856" font-size="11.905" font-family="Roboto-Bold, Roboto" font-weight="700"><tspan x="0" y="0">N</tspan></text>
  <text id="_2" data-name=" " transform="translate(29.117 37.909) rotate(-51.869)" fill="#3a2856" font-size="11.905" font-family="Roboto-Bold, Roboto" font-weight="700"><tspan x="0" y="0"> </tspan></text>
  <text id="M" transform="translate(30.437 35.597) rotate(-40.876)" fill="#3a2856" font-size="11.905" font-family="Roboto-Bold, Roboto" font-weight="700"><tspan x="0" y="0">M</tspan></text>
  <text id="O" transform="translate(38.07 29.113) rotate(-25.486)" fill="#3a2856" font-size="11.905" font-family="Roboto-Bold, Roboto" font-weight="700"><tspan x="0" y="0">O</tspan></text>
  <text id="N-2" data-name="N" transform="matrix(0.979, -0.203, 0.203, 0.979, 45.128, 25.685)" fill="#3a2856" font-size="11.905" font-family="Roboto-Bold, Roboto" font-weight="700"><tspan x="0" y="0">N</tspan></text>
  <text id="T" transform="translate(52.966 24.077) rotate(1.391)" fill="#3a2856" font-size="11.905" font-family="Roboto-Bold, Roboto" font-weight="700"><tspan x="0" y="0">T</tspan></text>
  <text id="H" transform="translate(59.926 24.145) rotate(14.246)" fill="#3a2856" font-size="11.905" font-family="Roboto-Bold, Roboto" font-weight="700"><tspan x="0" y="0">H</tspan></text>
  <text id="S-3" data-name="S" transform="translate(67.726 26.144) rotate(27.321)" fill="#3a2856" font-size="11.905" font-family="Roboto-Bold, Roboto" font-weight="700"><tspan x="0" y="0">S</tspan></text>
  <text id="_3" data-name="," transform="matrix(0.81, 0.586, -0.586, 0.81, 73.94, 29.519)" fill="#3a2856" font-size="11.905" font-family="Roboto-Bold, Roboto" font-weight="700"><tspan x="0" y="0">,</tspan></text>
  <text id="_4" data-name=" " transform="translate(76.158 31.113) rotate(40.694)" fill="#3a2856" font-size="11.905" font-family="Roboto-Bold, Roboto" font-weight="700"><tspan x="0" y="0"> </tspan></text>
  <text id="N-3" data-name="N" transform="matrix(0.642, 0.767, -0.767, 0.642, 78.362, 32.685)" fill="#3a2856" font-size="11.905" font-family="Roboto-Bold, Roboto" font-weight="700"><tspan x="0" y="0">N</tspan></text>
  <text id="O-2" data-name="O" transform="translate(83.538 38.813) rotate(63.744)" fill="#3a2856" font-size="11.905" font-family="Roboto-Bold, Roboto" font-weight="700"><tspan x="0" y="0">O</tspan></text>
  <text id="T-2" data-name="T" transform="matrix(0.237, 0.972, -0.972, 0.237, 86.936, 45.662)" fill="#3a2856" font-size="11.905" font-family="Roboto-Bold, Roboto" font-weight="700"><tspan x="0" y="0">T</tspan></text>
  <text id="_5" data-name=" " transform="translate(88.471 52.566) rotate(84.852)" fill="#3a2856" font-size="11.905" font-family="Roboto-Bold, Roboto" font-weight="700"><tspan x="0" y="0"> </tspan></text>
  <text id="Y" transform="matrix(-0.059, 0.998, -0.998, -0.059, 88.896, 55.224)" fill="#3a2856" font-size="11.905" font-family="Roboto-Bold, Roboto" font-weight="700"><tspan x="0" y="0">Y</tspan></text>
  <text id="E-2" data-name="E" transform="translate(88.47 62.314) rotate(105.015)" fill="#3a2856" font-size="11.905" font-family="Roboto-Bold, Roboto" font-weight="700"><tspan x="0" y="0">E</tspan></text>
  <text id="A-2" data-name="A" transform="matrix(-0.465, 0.885, -0.885, -0.465, 86.827, 68.749)" fill="#3a2856" font-size="11.905" font-family="Roboto-Bold, Roboto" font-weight="700"><tspan x="0" y="0">A</tspan></text>
  <text id="R" transform="matrix(-0.654, 0.757, -0.757, -0.654, 83.249, 75.579)" fill="#3a2856" font-size="11.905" font-family="Roboto-Bold, Roboto" font-weight="700"><tspan x="0" y="0">R</tspan></text>
  <text id="S-4" data-name="S" transform="translate(78.593 81.015) rotate(142.976)" fill="#3a2856" font-size="11.905" font-family="Roboto-Bold, Roboto" font-weight="700"><tspan x="0" y="0">S</tspan></text>
  <g id="Group_7164" data-name="Group 7164">
    <g id="Group_7163" data-name="Group 7163" clip-path="url(#clip-path)">
      <path id="Path_11059" data-name="Path 11059" d="M55.877,55.023a9.337,9.337,0,1,0,9.337,9.337,9.337,9.337,0,0,0-9.337-9.337m-.035,10.228a1.126,1.126,0,0,1-.7-2.006l.7-6.879.818,6.986a1.125,1.125,0,0,1-.818,1.9" fill="#3e2659"/>
      <path id="Path_11060" data-name="Path 11060" d="M55.889,36.547A24.024,24.024,0,1,0,79.913,60.571,24.024,24.024,0,0,0,55.889,36.547M66.218,51.983l.765-.169.875.875-.169.766-2.02,2.02-.734-.735L64.2,54Zm-21.331-.169.765.169L47.672,54l-.736.737-.735.735-2.02-2.02-.169-.766Zm11,24.773a12.323,12.323,0,0,1-8.677-3.6q-.191-.192-.373-.391c-.039-.043-.076-.086-.114-.129-.061-.068-.122-.135-.182-.205-.022-.026-.043-.054-.065-.08l-.14-.172c-.071-.088-.142-.177-.21-.268-.047-.061-.092-.122-.137-.184q-.1-.135-.195-.273c-.044-.063-.087-.127-.13-.19-.062-.1-.123-.191-.184-.287l-.118-.191c-.061-.1-.12-.207-.179-.311-.033-.06-.068-.119-.1-.18-.067-.124-.131-.25-.194-.377-.021-.042-.043-.084-.063-.126q-.123-.255-.234-.517c-.018-.042-.034-.085-.051-.127-.055-.133-.108-.267-.158-.4-.025-.065-.046-.132-.07-.2-.04-.114-.079-.228-.116-.343-.023-.074-.045-.148-.067-.223-.032-.11-.064-.22-.094-.331-.02-.077-.04-.156-.059-.234-.027-.11-.053-.22-.076-.331-.018-.08-.034-.16-.05-.241-.022-.112-.042-.225-.06-.338-.014-.08-.027-.159-.039-.24-.017-.118-.031-.236-.045-.355-.009-.077-.019-.153-.026-.23-.013-.132-.022-.265-.03-.4,0-.065-.01-.13-.014-.2-.009-.2-.015-.4-.015-.6a12.265,12.265,0,0,1,11.1-12.208l0-.783a3.481,3.481,0,1,1,3.6-5.745h0c.077.079.151.16.221.246l0,0c.069.085.135.173.2.265l0,0c.061.091.117.186.17.282l0,.005c.052.1.1.2.143.3l0,.005c.043.1.081.207.114.313v.006q.05.16.084.327v0c.022.111.04.225.052.34v0c.011.115.017.233.017.352,0,.084,0,.167-.01.25,0,.018,0,.036,0,.054-.007.081-.016.162-.029.242l0,.025c-.013.076-.028.151-.046.226l-.007.034q-.03.123-.069.24l0,.017a3.493,3.493,0,0,1-2.121,2.186v.747h0v.055a12.264,12.264,0,0,1-1.15,24.474" fill="#3e2659"/>
    </g>
  </g>
</svg>
